<?xml version="1.0" encoding="UTF-8" standalone="no"?>
<!DOCTYPE svg PUBLIC "-//W3C//DTD SVG 1.1//EN"
 "http://www.w3.org/Graphics/SVG/1.1/DTD/svg11.dtd">
<!-- Generated by graphviz version 14.0.2 (20251019.1705)
 -->
<!-- Title: include/Pipal/Acceptance.hh Pages: 1 -->
<svg width="805pt" height="304pt"
 viewBox="0.00 0.00 805.00 304.00" xmlns="http://www.w3.org/2000/svg" xmlns:xlink="http://www.w3.org/1999/xlink">
<g id="graph0" class="graph" transform="scale(1 1) rotate(0) translate(4 299.5)">
<title>include/Pipal/Acceptance.hh</title>
<!-- Node1 -->
<g id="Node000001" class="node">
<title>Node1</title>
<g id="a_Node000001"><a xlink:title=" ">
<polygon fill="#999999" stroke="#666666" points="378.88,-295.5 239.12,-295.5 239.12,-276.25 378.88,-276.25 378.88,-295.5"/>
<text xml:space="preserve" text-anchor="middle" x="309" y="-282" font-family="Helvetica,sans-Serif" font-size="10.00">include/Pipal/Acceptance.hh</text>
</a>
</g>
</g>
<!-- Node2 -->
<g id="Node000002" class="node">
<title>Node2</title>
<g id="a_Node000002"><a xlink:href="_types_8hh.html" target="_top" xlink:title=" ">
<polygon fill="white" stroke="#666666" points="387.25,-74.5 306.75,-74.5 306.75,-55.25 387.25,-55.25 387.25,-74.5"/>
<text xml:space="preserve" text-anchor="middle" x="347" y="-61" font-family="Helvetica,sans-Serif" font-size="10.00">Pipal/Types.hh</text>
</a>
</g>
</g>
<!-- Node1&#45;&gt;Node2 -->
<g id="edge1_Node000001_Node000002" class="edge">
<title>Node1&#45;&gt;Node2</title>
<g id="a_edge1_Node000001_Node000002"><a xlink:title=" ">
<path fill="none" stroke="#63b8ff" d="M304.1,-275.91C290.16,-249.09 253.12,-167.76 283,-110.5 289.8,-97.46 302.35,-87.45 314.55,-80.25"/>
<polygon fill="#63b8ff" stroke="#63b8ff" points="316.09,-83.4 323.24,-75.58 312.78,-77.23 316.09,-83.4"/>
</a>
</g>
</g>
<!-- Node13 -->
<g id="Node000013" class="node">
<title>Node13</title>
<g id="a_Node000013"><a xlink:href="_iterate_8hh.html" target="_top" xlink:title=" ">
<polygon fill="white" stroke="#666666" points="388,-185 306,-185 306,-165.75 388,-165.75 388,-185"/>
<text xml:space="preserve" text-anchor="middle" x="347" y="-171.5" font-family="Helvetica,sans-Serif" font-size="10.00">Pipal/Iterate.hh</text>
</a>
</g>
</g>
<!-- Node1&#45;&gt;Node13 -->
<g id="edge13_Node000001_Node000013" class="edge">
<title>Node1&#45;&gt;Node13</title>
<g id="a_edge13_Node000001_Node000013"><a xlink:title=" ">
<path fill="none" stroke="#63b8ff" d="M311.27,-276.09C314.56,-263.69 321.02,-240.37 328,-221 330.99,-212.69 334.73,-203.69 338.09,-195.97"/>
<polygon fill="#63b8ff" stroke="#63b8ff" points="341.27,-197.43 342.15,-186.87 334.88,-194.58 341.27,-197.43"/>
</a>
</g>
</g>
<!-- Node16 -->
<g id="Node000016" class="node">
<title>Node16</title>
<g id="a_Node000016"><a xlink:href="_direction_8hh.html" target="_top" xlink:title=" ">
<polygon fill="white" stroke="#666666" points="430.62,-240.25 337.38,-240.25 337.38,-221 430.62,-221 430.62,-240.25"/>
<text xml:space="preserve" text-anchor="middle" x="384" y="-226.75" font-family="Helvetica,sans-Serif" font-size="10.00">Pipal/Direction.hh</text>
</a>
</g>
</g>
<!-- Node1&#45;&gt;Node16 -->
<g id="edge19_Node000001_Node000016" class="edge">
<title>Node1&#45;&gt;Node16</title>
<g id="a_edge19_Node000001_Node000016"><a xlink:title=" ">
<path fill="none" stroke="#63b8ff" d="M321.72,-275.84C332.71,-268.04 348.84,-256.59 361.93,-247.29"/>
<polygon fill="#63b8ff" stroke="#63b8ff" points="363.85,-250.22 369.98,-241.58 359.8,-244.51 363.85,-250.22"/>
</a>
</g>
</g>
<!-- Node3 -->
<g id="Node000003" class="node">
<title>Node3</title>
<g id="a_Node000003"><a xlink:title=" ">
<polygon fill="#e0e0e0" stroke="#999999" points="58,-19.25 0,-19.25 0,0 58,0 58,-19.25"/>
<text xml:space="preserve" text-anchor="middle" x="29" y="-5.75" font-family="Helvetica,sans-Serif" font-size="10.00">functional</text>
</a>
</g>
</g>
<!-- Node2&#45;&gt;Node3 -->
<g id="edge2_Node000002_Node000003" class="edge">
<title>Node2&#45;&gt;Node3</title>
<g id="a_edge2_Node000002_Node000003"><a xlink:title=" ">
<path fill="none" stroke="#63b8ff" d="M306.51,-58.27C254.12,-50.83 159.77,-36.8 69.67,-19.66"/>
<polygon fill="#63b8ff" stroke="#63b8ff" points="70.39,-16.24 59.9,-17.79 69.07,-23.11 70.39,-16.24"/>
</a>
</g>
</g>
<!-- Node4 -->
<g id="Node000004" class="node">
<title>Node4</title>
<g id="a_Node000004"><a xlink:title=" ">
<polygon fill="#e0e0e0" stroke="#999999" points="116,-19.25 76,-19.25 76,0 116,0 116,-19.25"/>
<text xml:space="preserve" text-anchor="middle" x="96" y="-5.75" font-family="Helvetica,sans-Serif" font-size="10.00">string</text>
</a>
</g>
</g>
<!-- Node2&#45;&gt;Node4 -->
<g id="edge3_Node000002_Node000004" class="edge">
<title>Node2&#45;&gt;Node4</title>
<g id="a_edge3_Node000002_Node000004"><a xlink:title=" ">
<path fill="none" stroke="#63b8ff" d="M306.65,-56.9C264.24,-49.32 195.39,-36.31 127.16,-19.61"/>
<polygon fill="#63b8ff" stroke="#63b8ff" points="128.23,-16.27 117.69,-17.26 126.55,-23.06 128.23,-16.27"/>
</a>
</g>
</g>
<!-- Node5 -->
<g id="Node000005" class="node">
<title>Node5</title>
<g id="a_Node000005"><a xlink:title=" ">
<polygon fill="#e0e0e0" stroke="#999999" points="173.62,-19.25 134.38,-19.25 134.38,0 173.62,0 173.62,-19.25"/>
<text xml:space="preserve" text-anchor="middle" x="154" y="-5.75" font-family="Helvetica,sans-Serif" font-size="10.00">limits</text>
</a>
</g>
</g>
<!-- Node2&#45;&gt;Node5 -->
<g id="edge4_Node000002_Node000005" class="edge">
<title>Node2&#45;&gt;Node5</title>
<g id="a_edge4_Node000002_Node000005"><a xlink:title=" ">
<path fill="none" stroke="#63b8ff" d="M312.14,-54.82C280.96,-46.64 233.77,-34.06 184.69,-19.96"/>
<polygon fill="#63b8ff" stroke="#63b8ff" points="185.89,-16.67 175.31,-17.26 183.95,-23.39 185.89,-16.67"/>
</a>
</g>
</g>
<!-- Node6 -->
<g id="Node000006" class="node">
<title>Node6</title>
<g id="a_Node000006"><a xlink:title=" ">
<polygon fill="#e0e0e0" stroke="#999999" points="234.5,-19.25 191.5,-19.25 191.5,0 234.5,0 234.5,-19.25"/>
<text xml:space="preserve" text-anchor="middle" x="213" y="-5.75" font-family="Helvetica,sans-Serif" font-size="10.00">cmath</text>
</a>
</g>
</g>
<!-- Node2&#45;&gt;Node6 -->
<g id="edge5_Node000002_Node000006" class="edge">
<title>Node2&#45;&gt;Node6</title>
<g id="a_edge5_Node000002_Node000006"><a xlink:title=" ">
<path fill="none" stroke="#63b8ff" d="M324.27,-54.84C302.64,-46.25 269.88,-33.23 245.49,-23.54"/>
<polygon fill="#63b8ff" stroke="#63b8ff" points="246.94,-20.35 236.36,-19.91 244.36,-26.85 246.94,-20.35"/>
</a>
</g>
</g>
<!-- Node7 -->
<g id="Node000007" class="node">
<title>Node7</title>
<g id="a_Node000007"><a xlink:title=" ">
<polygon fill="#e0e0e0" stroke="#999999" points="303.25,-19.25 252.75,-19.25 252.75,0 303.25,0 303.25,-19.25"/>
<text xml:space="preserve" text-anchor="middle" x="278" y="-5.75" font-family="Helvetica,sans-Serif" font-size="10.00">numeric</text>
</a>
</g>
</g>
<!-- Node2&#45;&gt;Node7 -->
<g id="edge6_Node000002_Node000007" class="edge">
<title>Node2&#45;&gt;Node7</title>
<g id="a_edge6_Node000002_Node000007"><a xlink:title=" ">
<path fill="none" stroke="#63b8ff" d="M335.3,-54.84C325.22,-47.07 310.46,-35.67 298.44,-26.4"/>
<polygon fill="#63b8ff" stroke="#63b8ff" points="300.79,-23.79 290.73,-20.45 296.51,-29.33 300.79,-23.79"/>
</a>
</g>
</g>
<!-- Node8 -->
<g id="Node000008" class="node">
<title>Node8</title>
<g id="a_Node000008"><a xlink:title=" ">
<polygon fill="#e0e0e0" stroke="#999999" points="372.62,-19.25 321.38,-19.25 321.38,0 372.62,0 372.62,-19.25"/>
<text xml:space="preserve" text-anchor="middle" x="347" y="-5.75" font-family="Helvetica,sans-Serif" font-size="10.00">memory</text>
</a>
</g>
</g>
<!-- Node2&#45;&gt;Node8 -->
<g id="edge7_Node000002_Node000008" class="edge">
<title>Node2&#45;&gt;Node8</title>
<g id="a_edge7_Node000002_Node000008"><a xlink:title=" ">
<path fill="none" stroke="#63b8ff" d="M347,-55.08C347,-48.57 347,-39.42 347,-31.12"/>
<polygon fill="#63b8ff" stroke="#63b8ff" points="350.5,-31.12 347,-21.12 343.5,-31.12 350.5,-31.12"/>
</a>
</g>
</g>
<!-- Node9 -->
<g id="Node000009" class="node">
<title>Node9</title>
<g id="a_Node000009"><a xlink:title=" ">
<polygon fill="#e0e0e0" stroke="#999999" points="463.12,-19.25 390.88,-19.25 390.88,0 463.12,0 463.12,-19.25"/>
<text xml:space="preserve" text-anchor="middle" x="427" y="-5.75" font-family="Helvetica,sans-Serif" font-size="10.00">Eigen/Dense</text>
</a>
</g>
</g>
<!-- Node2&#45;&gt;Node9 -->
<g id="edge8_Node000002_Node000009" class="edge">
<title>Node2&#45;&gt;Node9</title>
<g id="a_edge8_Node000002_Node000009"><a xlink:title=" ">
<path fill="none" stroke="#63b8ff" d="M360.57,-54.84C372.41,-46.96 389.84,-35.36 403.87,-26.02"/>
<polygon fill="#63b8ff" stroke="#63b8ff" points="405.72,-29 412.1,-20.54 401.84,-23.17 405.72,-29"/>
</a>
</g>
</g>
<!-- Node10 -->
<g id="Node000010" class="node">
<title>Node10</title>
<g id="a_Node000010"><a xlink:title=" ">
<polygon fill="#e0e0e0" stroke="#999999" points="555.25,-19.25 480.75,-19.25 480.75,0 555.25,0 555.25,-19.25"/>
<text xml:space="preserve" text-anchor="middle" x="518" y="-5.75" font-family="Helvetica,sans-Serif" font-size="10.00">Eigen/Sparse</text>
</a>
</g>
</g>
<!-- Node2&#45;&gt;Node10 -->
<g id="edge9_Node000002_Node000010" class="edge">
<title>Node2&#45;&gt;Node10</title>
<g id="a_edge9_Node000002_Node000010"><a xlink:title=" ">
<path fill="none" stroke="#63b8ff" d="M376.01,-54.84C404.01,-46.12 446.66,-32.84 477.9,-23.11"/>
<polygon fill="#63b8ff" stroke="#63b8ff" points="478.9,-26.47 487.4,-20.15 476.82,-19.78 478.9,-26.47"/>
</a>
</g>
</g>
<!-- Node11 -->
<g id="Node000011" class="node">
<title>Node11</title>
<g id="a_Node000011"><a xlink:title=" ">
<polygon fill="#e0e0e0" stroke="#999999" points="688.88,-19.25 573.12,-19.25 573.12,0 688.88,0 688.88,-19.25"/>
<text xml:space="preserve" text-anchor="middle" x="631" y="-5.75" font-family="Helvetica,sans-Serif" font-size="10.00">Eigen/SparseCholesky</text>
</a>
</g>
</g>
<!-- Node2&#45;&gt;Node11 -->
<g id="edge10_Node000002_Node000011" class="edge">
<title>Node2&#45;&gt;Node11</title>
<g id="a_edge10_Node000002_Node000011"><a xlink:title=" ">
<path fill="none" stroke="#63b8ff" d="M387.69,-56.25C435.9,-47.21 516.63,-32.07 571.77,-21.73"/>
<polygon fill="#63b8ff" stroke="#63b8ff" points="572.11,-25.23 581.3,-19.94 570.82,-18.35 572.11,-25.23"/>
</a>
</g>
</g>
<!-- Node12 -->
<g id="Node000012" class="node">
<title>Node12</title>
<g id="a_Node000012"><a xlink:href="_problem_8hh.html" target="_top" xlink:title=" ">
<polygon fill="white" stroke="#666666" points="797.12,-19.25 706.88,-19.25 706.88,0 797.12,0 797.12,-19.25"/>
<text xml:space="preserve" text-anchor="middle" x="752" y="-5.75" font-family="Helvetica,sans-Serif" font-size="10.00">Pipal/Problem.hh</text>
</a>
</g>
</g>
<!-- Node2&#45;&gt;Node12 -->
<g id="edge11_Node000002_Node000012" class="edge">
<title>Node2&#45;&gt;Node12</title>
<g id="a_edge11_Node000002_Node000012"><a xlink:title=" ">
<path fill="none" stroke="#63b8ff" d="M387.7,-58.43C451.92,-50.46 580.16,-34.86 689,-19.25 691.03,-18.96 693.09,-18.66 695.19,-18.35"/>
<polygon fill="#63b8ff" stroke="#63b8ff" points="695.68,-21.81 705.04,-16.86 694.63,-14.89 695.68,-21.81"/>
</a>
</g>
</g>
<!-- Node12&#45;&gt;Node2 -->
<g id="edge12_Node000012_Node000002" class="edge">
<title>Node12&#45;&gt;Node2</title>
<g id="a_edge12_Node000012_Node000002"><a xlink:title=" ">
<path fill="none" stroke="#63b8ff" d="M706.66,-19.3C597.43,-34.96 468.77,-50.6 398.66,-58.53"/>
<polygon fill="#63b8ff" stroke="#63b8ff" points="398.56,-55.02 389.01,-59.61 399.34,-61.97 398.56,-55.02"/>
</a>
</g>
</g>
<!-- Node13&#45;&gt;Node2 -->
<g id="edge14_Node000013_Node000002" class="edge">
<title>Node13&#45;&gt;Node2</title>
<g id="a_edge14_Node000013_Node000002"><a xlink:title=" ">
<path fill="none" stroke="#63b8ff" d="M327.48,-165.34C313.94,-157.9 296.97,-145.94 289,-129.75 279.42,-110.3 299.22,-92.42 318.24,-80.55"/>
<polygon fill="#63b8ff" stroke="#63b8ff" points="319.75,-83.73 326.64,-75.68 316.24,-77.67 319.75,-83.73"/>
</a>
</g>
</g>
<!-- Node14 -->
<g id="Node000014" class="node">
<title>Node14</title>
<g id="a_Node000014"><a xlink:href="_parameter_8hh.html" target="_top" xlink:title=" ">
<polygon fill="white" stroke="#666666" points="396.25,-129.75 297.75,-129.75 297.75,-110.5 396.25,-110.5 396.25,-129.75"/>
<text xml:space="preserve" text-anchor="middle" x="347" y="-116.25" font-family="Helvetica,sans-Serif" font-size="10.00">Pipal/Parameter.hh</text>
</a>
</g>
</g>
<!-- Node13&#45;&gt;Node14 -->
<g id="edge15_Node000013_Node000014" class="edge">
<title>Node13&#45;&gt;Node14</title>
<g id="a_edge15_Node000013_Node000014"><a xlink:title=" ">
<path fill="none" stroke="#63b8ff" d="M347,-165.58C347,-159.07 347,-149.92 347,-141.62"/>
<polygon fill="#63b8ff" stroke="#63b8ff" points="350.5,-141.62 347,-131.62 343.5,-141.62 350.5,-141.62"/>
</a>
</g>
</g>
<!-- Node15 -->
<g id="Node000015" class="node">
<title>Node15</title>
<g id="a_Node000015"><a xlink:href="_counter_8hh.html" target="_top" xlink:title=" ">
<polygon fill="white" stroke="#666666" points="502,-129.75 414,-129.75 414,-110.5 502,-110.5 502,-129.75"/>
<text xml:space="preserve" text-anchor="middle" x="458" y="-116.25" font-family="Helvetica,sans-Serif" font-size="10.00">Pipal/Counter.hh</text>
</a>
</g>
</g>
<!-- Node13&#45;&gt;Node15 -->
<g id="edge17_Node000013_Node000015" class="edge">
<title>Node13&#45;&gt;Node15</title>
<g id="a_edge17_Node000013_Node000015"><a xlink:title=" ">
<path fill="none" stroke="#63b8ff" d="M365.83,-165.34C383.05,-157.08 408.8,-144.73 428.71,-135.18"/>
<polygon fill="#63b8ff" stroke="#63b8ff" points="430.21,-138.34 437.71,-130.86 427.18,-132.03 430.21,-138.34"/>
</a>
</g>
</g>
<!-- Node14&#45;&gt;Node2 -->
<g id="edge16_Node000014_Node000002" class="edge">
<title>Node14&#45;&gt;Node2</title>
<g id="a_edge16_Node000014_Node000002"><a xlink:title=" ">
<path fill="none" stroke="#63b8ff" d="M347,-110.33C347,-103.82 347,-94.67 347,-86.37"/>
<polygon fill="#63b8ff" stroke="#63b8ff" points="350.5,-86.37 347,-76.37 343.5,-86.37 350.5,-86.37"/>
</a>
</g>
</g>
<!-- Node15&#45;&gt;Node2 -->
<g id="edge18_Node000015_Node000002" class="edge">
<title>Node15&#45;&gt;Node2</title>
<g id="a_edge18_Node000015_Node000002"><a xlink:title=" ">
<path fill="none" stroke="#63b8ff" d="M439.17,-110.09C421.95,-101.83 396.2,-89.48 376.29,-79.93"/>
<polygon fill="#63b8ff" stroke="#63b8ff" points="377.82,-76.78 367.29,-75.61 374.79,-83.09 377.82,-76.78"/>
</a>
</g>
</g>
<!-- Node16&#45;&gt;Node2 -->
<g id="edge20_Node000016_Node000002" class="edge">
<title>Node16&#45;&gt;Node2</title>
<g id="a_edge20_Node000016_Node000002"><a xlink:title=" ">
<path fill="none" stroke="#63b8ff" d="M408.29,-220.54C454.37,-201.94 546.8,-157.34 511,-110.5 497.31,-92.58 441.51,-80.15 398.76,-73.05"/>
<polygon fill="#63b8ff" stroke="#63b8ff" points="399.57,-69.63 389.14,-71.51 398.47,-76.54 399.57,-69.63"/>
</a>
</g>
</g>
<!-- Node16&#45;&gt;Node13 -->
<g id="edge21_Node000016_Node000013" class="edge">
<title>Node16&#45;&gt;Node13</title>
<g id="a_edge21_Node000016_Node000013"><a xlink:title=" ">
<path fill="none" stroke="#63b8ff" d="M377.89,-220.83C372.94,-213.71 365.8,-203.43 359.63,-194.55"/>
<polygon fill="#63b8ff" stroke="#63b8ff" points="362.69,-192.82 354.11,-186.6 356.94,-196.81 362.69,-192.82"/>
</a>
</g>
</g>
</g>
</svg>
