<?xml version="1.0" encoding="UTF-8" standalone="no"?>
<!DOCTYPE svg PUBLIC "-//W3C//DTD SVG 1.1//EN"
 "http://www.w3.org/Graphics/SVG/1.1/DTD/svg11.dtd">
<!-- Generated by graphviz version 14.0.2 (20251019.1705)
 -->
<!-- Title: include/Pipal/Counter.hh Pages: 1 -->
<svg width="224pt" height="304pt"
 viewBox="0.00 0.00 224.00 304.00" xmlns="http://www.w3.org/2000/svg" xmlns:xlink="http://www.w3.org/1999/xlink">
<g id="graph0" class="graph" transform="scale(1 1) rotate(0) translate(4 299.5)">
<title>include/Pipal/Counter.hh</title>
<!-- Node1 -->
<g id="Node000001" class="node">
<title>Node1</title>
<g id="a_Node000001"><a xlink:title=" ">
<polygon fill="#999999" stroke="#666666" points="211.9,-295.5 90.15,-295.5 90.15,-276.25 211.9,-276.25 211.9,-295.5"/>
<text xml:space="preserve" text-anchor="middle" x="151.02" y="-282" font-family="Helvetica,sans-Serif" font-size="10.00">include/Pipal/Counter.hh</text>
</a>
</g>
</g>
<!-- Node2 -->
<g id="Node000002" class="node">
<title>Node2</title>
<g id="a_Node000002"><a xlink:href="_iterate_8hh.html" target="_top" xlink:title=" ">
<polygon fill="white" stroke="#666666" points="165.9,-240.25 50.15,-240.25 50.15,-221 165.9,-221 165.9,-240.25"/>
<text xml:space="preserve" text-anchor="middle" x="108.02" y="-226.75" font-family="Helvetica,sans-Serif" font-size="10.00">include/Pipal/Iterate.hh</text>
</a>
</g>
</g>
<!-- Node1&#45;&gt;Node2 -->
<g id="edge1_Node000001_Node000002" class="edge">
<title>Node1&#45;&gt;Node2</title>
<g id="a_edge1_Node000001_Node000002"><a xlink:title=" ">
<path fill="none" stroke="#63b8ff" d="M136.77,-267.22C129.57,-258.31 121.14,-247.87 115.28,-240.61"/>
<polygon fill="#63b8ff" stroke="#63b8ff" points="133.96,-269.32 142.97,-274.9 139.41,-264.93 133.96,-269.32"/>
</a>
</g>
</g>
<!-- Node4 -->
<g id="Node000004" class="node">
<title>Node4</title>
<g id="a_Node000004"><a xlink:href="_solver_8hh.html" target="_top" xlink:title=" ">
<polygon fill="white" stroke="#666666" points="132.52,-74.5 17.52,-74.5 17.52,-55.25 132.52,-55.25 132.52,-74.5"/>
<text xml:space="preserve" text-anchor="middle" x="75.02" y="-61" font-family="Helvetica,sans-Serif" font-size="10.00">include/Pipal/Solver.hh</text>
</a>
</g>
</g>
<!-- Node1&#45;&gt;Node4 -->
<g id="edge9_Node000001_Node000004" class="edge">
<title>Node1&#45;&gt;Node4</title>
<g id="a_edge9_Node000001_Node000004"><a xlink:title=" ">
<path fill="none" stroke="#63b8ff" d="M165.35,-267.4C190.87,-234.04 238.32,-160.19 203.02,-110.5 187.01,-87.96 158.73,-76.71 132.82,-71.13"/>
<polygon fill="#63b8ff" stroke="#63b8ff" points="162.93,-264.82 159.48,-274.84 168.42,-269.16 162.93,-264.82"/>
</a>
</g>
</g>
<!-- Node3 -->
<g id="Node000003" class="node">
<title>Node3</title>
<g id="a_Node000003"><a xlink:href="_acceptance_8hh.html" target="_top" xlink:title=" ">
<polygon fill="white" stroke="#666666" points="193.9,-129.75 54.15,-129.75 54.15,-110.5 193.9,-110.5 193.9,-129.75"/>
<text xml:space="preserve" text-anchor="middle" x="124.02" y="-116.25" font-family="Helvetica,sans-Serif" font-size="10.00">include/Pipal/Acceptance.hh</text>
</a>
</g>
</g>
<!-- Node2&#45;&gt;Node3 -->
<g id="edge2_Node000002_Node000003" class="edge">
<title>Node2&#45;&gt;Node3</title>
<g id="a_edge2_Node000002_Node000003"><a xlink:title=" ">
<path fill="none" stroke="#63b8ff" d="M130.73,-213.51C139.43,-205.95 148.37,-196.16 153.02,-185 161.27,-165.21 144.47,-142.44 133.16,-130.14"/>
<polygon fill="#63b8ff" stroke="#63b8ff" points="128.76,-210.6 123.13,-219.58 133.13,-216.07 128.76,-210.6"/>
</a>
</g>
</g>
<!-- Node2&#45;&gt;Node4 -->
<g id="edge8_Node000002_Node000004" class="edge">
<title>Node2&#45;&gt;Node4</title>
<g id="a_edge8_Node000002_Node000004"><a xlink:title=" ">
<path fill="none" stroke="#63b8ff" d="M49.91,-216.86C33.23,-210.21 16.9,-200.16 7.02,-185 -18.97,-145.09 37.15,-94.83 62.95,-74.75"/>
<polygon fill="#63b8ff" stroke="#63b8ff" points="48.26,-219.98 58.85,-220.06 50.62,-213.39 48.26,-219.98"/>
</a>
</g>
</g>
<!-- Node6 -->
<g id="Node000006" class="node">
<title>Node6</title>
<g id="a_Node000006"><a xlink:href="_direction_8hh.html" target="_top" xlink:title=" ">
<polygon fill="white" stroke="#666666" points="143.52,-185 16.52,-185 16.52,-165.75 143.52,-165.75 143.52,-185"/>
<text xml:space="preserve" text-anchor="middle" x="80.02" y="-171.5" font-family="Helvetica,sans-Serif" font-size="10.00">include/Pipal/Direction.hh</text>
</a>
</g>
</g>
<!-- Node2&#45;&gt;Node6 -->
<g id="edge5_Node000002_Node000006" class="edge">
<title>Node2&#45;&gt;Node6</title>
<g id="a_edge5_Node000002_Node000006"><a xlink:title=" ">
<path fill="none" stroke="#63b8ff" d="M98.14,-210.83C93.59,-202.17 88.4,-192.31 84.75,-185.36"/>
<polygon fill="#63b8ff" stroke="#63b8ff" points="94.94,-212.27 102.69,-219.49 101.14,-209.01 94.94,-212.27"/>
</a>
</g>
</g>
<!-- Node3&#45;&gt;Node4 -->
<g id="edge3_Node000003_Node000004" class="edge">
<title>Node3&#45;&gt;Node4</title>
<g id="a_edge3_Node000003_Node000004"><a xlink:title=" ">
<path fill="none" stroke="#63b8ff" d="M108.3,-102.04C99.98,-93 90.11,-82.27 83.29,-74.86"/>
<polygon fill="#63b8ff" stroke="#63b8ff" points="105.56,-104.23 114.91,-109.22 110.71,-99.49 105.56,-104.23"/>
</a>
</g>
</g>
<!-- Node5 -->
<g id="Node000005" class="node">
<title>Node5</title>
<g id="a_Node000005"><a xlink:href="_pipal_8hh.html" target="_top" xlink:title=" ">
<polygon fill="white" stroke="#666666" points="117.52,-19.25 32.52,-19.25 32.52,0 117.52,0 117.52,-19.25"/>
<text xml:space="preserve" text-anchor="middle" x="75.02" y="-5.75" font-family="Helvetica,sans-Serif" font-size="10.00">include/Pipal.hh</text>
</a>
</g>
</g>
<!-- Node4&#45;&gt;Node5 -->
<g id="edge4_Node000004_Node000005" class="edge">
<title>Node4&#45;&gt;Node5</title>
<g id="a_edge4_Node000004_Node000005"><a xlink:title=" ">
<path fill="none" stroke="#63b8ff" d="M75.02,-43.63C75.02,-35.34 75.02,-26.17 75.02,-19.61"/>
<polygon fill="#63b8ff" stroke="#63b8ff" points="71.52,-43.57 75.02,-53.57 78.52,-43.57 71.52,-43.57"/>
</a>
</g>
</g>
<!-- Node6&#45;&gt;Node3 -->
<g id="edge6_Node000006_Node000003" class="edge">
<title>Node6&#45;&gt;Node3</title>
<g id="a_edge6_Node000006_Node000003"><a xlink:title=" ">
<path fill="none" stroke="#63b8ff" d="M94.61,-156.72C101.97,-147.81 110.6,-137.37 116.6,-130.11"/>
<polygon fill="#63b8ff" stroke="#63b8ff" points="91.92,-154.48 88.25,-164.42 97.32,-158.94 91.92,-154.48"/>
</a>
</g>
</g>
<!-- Node6&#45;&gt;Node4 -->
<g id="edge7_Node000006_Node000004" class="edge">
<title>Node6&#45;&gt;Node4</title>
<g id="a_edge7_Node000006_Node000004"><a xlink:title=" ">
<path fill="none" stroke="#63b8ff" d="M61.95,-156.97C55.27,-149.32 48.5,-139.81 45.02,-129.75 37.98,-109.37 54.8,-86.82 66,-74.72"/>
<polygon fill="#63b8ff" stroke="#63b8ff" points="59.35,-159.31 68.76,-164.17 64.43,-154.5 59.35,-159.31"/>
</a>
</g>
</g>
</g>
</svg>
