<?xml version="1.0" encoding="UTF-8" standalone="no"?>
<!DOCTYPE svg PUBLIC "-//W3C//DTD SVG 1.1//EN"
 "http://www.w3.org/Graphics/SVG/1.1/DTD/svg11.dtd">
<!-- Generated by graphviz version 14.0.2 (20251019.1705)
 -->
<!-- Title: include/Pipal/Direction.hh Pages: 1 -->
<svg width="190pt" height="193pt"
 viewBox="0.00 0.00 190.00 193.00" xmlns="http://www.w3.org/2000/svg" xmlns:xlink="http://www.w3.org/1999/xlink">
<g id="graph0" class="graph" transform="scale(1 1) rotate(0) translate(4 189)">
<title>include/Pipal/Direction.hh</title>
<!-- Node1 -->
<g id="Node000001" class="node">
<title>Node1</title>
<g id="a_Node000001"><a xlink:title=" ">
<polygon fill="#999999" stroke="#666666" points="182.38,-185 55.37,-185 55.37,-165.75 182.38,-165.75 182.38,-185"/>
<text xml:space="preserve" text-anchor="middle" x="118.88" y="-171.5" font-family="Helvetica,sans-Serif" font-size="10.00">include/Pipal/Direction.hh</text>
</a>
</g>
</g>
<!-- Node2 -->
<g id="Node000002" class="node">
<title>Node2</title>
<g id="a_Node000002"><a xlink:href="_acceptance_8hh.html" target="_top" xlink:title=" ">
<polygon fill="white" stroke="#666666" points="139.75,-129.75 0,-129.75 0,-110.5 139.75,-110.5 139.75,-129.75"/>
<text xml:space="preserve" text-anchor="middle" x="69.88" y="-116.25" font-family="Helvetica,sans-Serif" font-size="10.00">include/Pipal/Acceptance.hh</text>
</a>
</g>
</g>
<!-- Node1&#45;&gt;Node2 -->
<g id="edge1_Node000001_Node000002" class="edge">
<title>Node1&#45;&gt;Node2</title>
<g id="a_edge1_Node000001_Node000002"><a xlink:title=" ">
<path fill="none" stroke="#63b8ff" d="M103.16,-157.29C94.84,-148.25 84.96,-137.52 78.14,-130.11"/>
<polygon fill="#63b8ff" stroke="#63b8ff" points="100.41,-159.48 109.76,-164.47 105.56,-154.74 100.41,-159.48"/>
</a>
</g>
</g>
<!-- Node3 -->
<g id="Node000003" class="node">
<title>Node3</title>
<g id="a_Node000003"><a xlink:href="_solver_8hh.html" target="_top" xlink:title=" ">
<polygon fill="white" stroke="#666666" points="176.38,-74.5 61.38,-74.5 61.38,-55.25 176.38,-55.25 176.38,-74.5"/>
<text xml:space="preserve" text-anchor="middle" x="118.88" y="-61" font-family="Helvetica,sans-Serif" font-size="10.00">include/Pipal/Solver.hh</text>
</a>
</g>
</g>
<!-- Node1&#45;&gt;Node3 -->
<g id="edge4_Node000001_Node000003" class="edge">
<title>Node1&#45;&gt;Node3</title>
<g id="a_edge4_Node000001_Node000003"><a xlink:title=" ">
<path fill="none" stroke="#63b8ff" d="M134.56,-156.35C140.23,-148.68 145.96,-139.31 148.88,-129.75 155.16,-109.12 138.63,-86.67 127.68,-74.65"/>
<polygon fill="#63b8ff" stroke="#63b8ff" points="131.84,-154.14 128.32,-164.14 137.3,-158.52 131.84,-154.14"/>
</a>
</g>
</g>
<!-- Node2&#45;&gt;Node3 -->
<g id="edge2_Node000002_Node000003" class="edge">
<title>Node2&#45;&gt;Node3</title>
<g id="a_edge2_Node000002_Node000003"><a xlink:title=" ">
<path fill="none" stroke="#63b8ff" d="M85.59,-102.04C93.91,-93 103.79,-82.27 110.61,-74.86"/>
<polygon fill="#63b8ff" stroke="#63b8ff" points="83.19,-99.49 78.99,-109.22 88.34,-104.23 83.19,-99.49"/>
</a>
</g>
</g>
<!-- Node4 -->
<g id="Node000004" class="node">
<title>Node4</title>
<g id="a_Node000004"><a xlink:href="_pipal_8hh.html" target="_top" xlink:title=" ">
<polygon fill="white" stroke="#666666" points="161.38,-19.25 76.38,-19.25 76.38,0 161.38,0 161.38,-19.25"/>
<text xml:space="preserve" text-anchor="middle" x="118.88" y="-5.75" font-family="Helvetica,sans-Serif" font-size="10.00">include/Pipal.hh</text>
</a>
</g>
</g>
<!-- Node3&#45;&gt;Node4 -->
<g id="edge3_Node000003_Node000004" class="edge">
<title>Node3&#45;&gt;Node4</title>
<g id="a_edge3_Node000003_Node000004"><a xlink:title=" ">
<path fill="none" stroke="#63b8ff" d="M118.88,-43.63C118.88,-35.34 118.88,-26.17 118.88,-19.61"/>
<polygon fill="#63b8ff" stroke="#63b8ff" points="115.38,-43.57 118.88,-53.57 122.38,-43.57 115.38,-43.57"/>
</a>
</g>
</g>
</g>
</svg>
