<?xml version="1.0" encoding="UTF-8" standalone="no"?>
<!DOCTYPE svg PUBLIC "-//W3C//DTD SVG 1.1//EN"
 "http://www.w3.org/Graphics/SVG/1.1/DTD/svg11.dtd">
<!-- Generated by graphviz version 14.0.2 (20251019.1705)
 -->
<!-- Title: include/Pipal/Iterate.hh Pages: 1 -->
<svg width="221pt" height="248pt"
 viewBox="0.00 0.00 221.00 248.00" xmlns="http://www.w3.org/2000/svg" xmlns:xlink="http://www.w3.org/1999/xlink">
<g id="graph0" class="graph" transform="scale(1 1) rotate(0) translate(4 244.25)">
<title>include/Pipal/Iterate.hh</title>
<!-- Node1 -->
<g id="Node000001" class="node">
<title>Node1</title>
<g id="a_Node000001"><a xlink:title=" ">
<polygon fill="#999999" stroke="#666666" points="115.75,-240.25 0,-240.25 0,-221 115.75,-221 115.75,-240.25"/>
<text xml:space="preserve" text-anchor="middle" x="57.88" y="-226.75" font-family="Helvetica,sans-Serif" font-size="10.00">include/Pipal/Iterate.hh</text>
</a>
</g>
</g>
<!-- Node2 -->
<g id="Node000002" class="node">
<title>Node2</title>
<g id="a_Node000002"><a xlink:href="_acceptance_8hh.html" target="_top" xlink:title=" ">
<polygon fill="white" stroke="#666666" points="157.75,-129.75 18,-129.75 18,-110.5 157.75,-110.5 157.75,-129.75"/>
<text xml:space="preserve" text-anchor="middle" x="87.88" y="-116.25" font-family="Helvetica,sans-Serif" font-size="10.00">include/Pipal/Acceptance.hh</text>
</a>
</g>
</g>
<!-- Node1&#45;&gt;Node2 -->
<g id="edge1_Node000001_Node000002" class="edge">
<title>Node1&#45;&gt;Node2</title>
<g id="a_edge1_Node000001_Node000002"><a xlink:title=" ">
<path fill="none" stroke="#63b8ff" d="M63.32,-209.93C69.87,-186.26 80.57,-147.55 85.39,-130.13"/>
<polygon fill="#63b8ff" stroke="#63b8ff" points="60.03,-208.72 60.73,-219.29 66.77,-210.58 60.03,-208.72"/>
</a>
</g>
</g>
<!-- Node3 -->
<g id="Node000003" class="node">
<title>Node3</title>
<g id="a_Node000003"><a xlink:href="_solver_8hh.html" target="_top" xlink:title=" ">
<polygon fill="white" stroke="#666666" points="145.38,-74.5 30.38,-74.5 30.38,-55.25 145.38,-55.25 145.38,-74.5"/>
<text xml:space="preserve" text-anchor="middle" x="87.88" y="-61" font-family="Helvetica,sans-Serif" font-size="10.00">include/Pipal/Solver.hh</text>
</a>
</g>
</g>
<!-- Node1&#45;&gt;Node3 -->
<g id="edge7_Node000001_Node000003" class="edge">
<title>Node1&#45;&gt;Node3</title>
<g id="a_edge7_Node000001_Node000003"><a xlink:title=" ">
<path fill="none" stroke="#63b8ff" d="M40.9,-212.18C19.83,-188.33 -11.03,-144.6 8.88,-110.5 19.12,-92.95 39.1,-81.76 56.4,-74.97"/>
<polygon fill="#63b8ff" stroke="#63b8ff" points="38.25,-214.47 47.6,-219.45 43.4,-209.73 38.25,-214.47"/>
</a>
</g>
</g>
<!-- Node5 -->
<g id="Node000005" class="node">
<title>Node5</title>
<g id="a_Node000005"><a xlink:href="_direction_8hh.html" target="_top" xlink:title=" ">
<polygon fill="white" stroke="#666666" points="213.38,-185 86.38,-185 86.38,-165.75 213.38,-165.75 213.38,-185"/>
<text xml:space="preserve" text-anchor="middle" x="149.88" y="-171.5" font-family="Helvetica,sans-Serif" font-size="10.00">include/Pipal/Direction.hh</text>
</a>
</g>
</g>
<!-- Node1&#45;&gt;Node5 -->
<g id="edge4_Node000001_Node000005" class="edge">
<title>Node1&#45;&gt;Node5</title>
<g id="a_edge4_Node000001_Node000005"><a xlink:title=" ">
<path fill="none" stroke="#63b8ff" d="M82.98,-215.09C99.33,-205.63 120.16,-193.58 134.19,-185.45"/>
<polygon fill="#63b8ff" stroke="#63b8ff" points="81.69,-211.79 74.79,-219.83 85.2,-217.85 81.69,-211.79"/>
</a>
</g>
</g>
<!-- Node2&#45;&gt;Node3 -->
<g id="edge2_Node000002_Node000003" class="edge">
<title>Node2&#45;&gt;Node3</title>
<g id="a_edge2_Node000002_Node000003"><a xlink:title=" ">
<path fill="none" stroke="#63b8ff" d="M87.88,-98.88C87.88,-90.59 87.88,-81.42 87.88,-74.86"/>
<polygon fill="#63b8ff" stroke="#63b8ff" points="84.38,-98.82 87.88,-108.82 91.38,-98.82 84.38,-98.82"/>
</a>
</g>
</g>
<!-- Node4 -->
<g id="Node000004" class="node">
<title>Node4</title>
<g id="a_Node000004"><a xlink:href="_pipal_8hh.html" target="_top" xlink:title=" ">
<polygon fill="white" stroke="#666666" points="130.38,-19.25 45.38,-19.25 45.38,0 130.38,0 130.38,-19.25"/>
<text xml:space="preserve" text-anchor="middle" x="87.88" y="-5.75" font-family="Helvetica,sans-Serif" font-size="10.00">include/Pipal.hh</text>
</a>
</g>
</g>
<!-- Node3&#45;&gt;Node4 -->
<g id="edge3_Node000003_Node000004" class="edge">
<title>Node3&#45;&gt;Node4</title>
<g id="a_edge3_Node000003_Node000004"><a xlink:title=" ">
<path fill="none" stroke="#63b8ff" d="M87.88,-43.63C87.88,-35.34 87.88,-26.17 87.88,-19.61"/>
<polygon fill="#63b8ff" stroke="#63b8ff" points="84.38,-43.57 87.88,-53.57 91.38,-43.57 84.38,-43.57"/>
</a>
</g>
</g>
<!-- Node5&#45;&gt;Node2 -->
<g id="edge5_Node000005_Node000002" class="edge">
<title>Node5&#45;&gt;Node2</title>
<g id="a_edge5_Node000005_Node000002"><a xlink:title=" ">
<path fill="none" stroke="#63b8ff" d="M130.68,-157.89C119.97,-148.69 107.06,-137.6 98.24,-130.02"/>
<polygon fill="#63b8ff" stroke="#63b8ff" points="128.34,-160.5 138.21,-164.36 132.9,-155.19 128.34,-160.5"/>
</a>
</g>
</g>
<!-- Node5&#45;&gt;Node3 -->
<g id="edge6_Node000005_Node000003" class="edge">
<title>Node5&#45;&gt;Node3</title>
<g id="a_edge6_Node000005_Node000003"><a xlink:title=" ">
<path fill="none" stroke="#63b8ff" d="M162.08,-155.64C169.08,-142.34 175.01,-124.44 166.88,-110.5 156.63,-92.95 136.65,-81.76 119.35,-74.97"/>
<polygon fill="#63b8ff" stroke="#63b8ff" points="159.07,-153.85 157,-164.24 165.1,-157.41 159.07,-153.85"/>
</a>
</g>
</g>
</g>
</svg>
