<?xml version="1.0" encoding="UTF-8" standalone="no"?>
<!DOCTYPE svg PUBLIC "-//W3C//DTD SVG 1.1//EN"
 "http://www.w3.org/Graphics/SVG/1.1/DTD/svg11.dtd">
<!-- Generated by graphviz version 14.0.2 (20251019.1705)
 -->
<!-- Title: include/Pipal/Output.hh Pages: 1 -->
<svg width="125pt" height="138pt"
 viewBox="0.00 0.00 125.00 138.00" xmlns="http://www.w3.org/2000/svg" xmlns:xlink="http://www.w3.org/1999/xlink">
<g id="graph0" class="graph" transform="scale(1 1) rotate(0) translate(4 133.75)">
<title>include/Pipal/Output.hh</title>
<!-- Node1 -->
<g id="Node000001" class="node">
<title>Node1</title>
<g id="a_Node000001"><a xlink:title=" ">
<polygon fill="#999999" stroke="#666666" points="117.25,-129.75 0,-129.75 0,-110.5 117.25,-110.5 117.25,-129.75"/>
<text xml:space="preserve" text-anchor="middle" x="58.62" y="-116.25" font-family="Helvetica,sans-Serif" font-size="10.00">include/Pipal/Output.hh</text>
</a>
</g>
</g>
<!-- Node2 -->
<g id="Node000002" class="node">
<title>Node2</title>
<g id="a_Node000002"><a xlink:href="_solver_8hh.html" target="_top" xlink:title=" ">
<polygon fill="white" stroke="#666666" points="116.12,-74.5 1.12,-74.5 1.12,-55.25 116.12,-55.25 116.12,-74.5"/>
<text xml:space="preserve" text-anchor="middle" x="58.62" y="-61" font-family="Helvetica,sans-Serif" font-size="10.00">include/Pipal/Solver.hh</text>
</a>
</g>
</g>
<!-- Node1&#45;&gt;Node2 -->
<g id="edge1_Node000001_Node000002" class="edge">
<title>Node1&#45;&gt;Node2</title>
<g id="a_edge1_Node000001_Node000002"><a xlink:title=" ">
<path fill="none" stroke="#63b8ff" d="M58.62,-98.88C58.62,-90.59 58.62,-81.42 58.62,-74.86"/>
<polygon fill="#63b8ff" stroke="#63b8ff" points="55.13,-98.82 58.63,-108.82 62.13,-98.82 55.13,-98.82"/>
</a>
</g>
</g>
<!-- Node3 -->
<g id="Node000003" class="node">
<title>Node3</title>
<g id="a_Node000003"><a xlink:href="_pipal_8hh.html" target="_top" xlink:title=" ">
<polygon fill="white" stroke="#666666" points="101.12,-19.25 16.12,-19.25 16.12,0 101.12,0 101.12,-19.25"/>
<text xml:space="preserve" text-anchor="middle" x="58.62" y="-5.75" font-family="Helvetica,sans-Serif" font-size="10.00">include/Pipal.hh</text>
</a>
</g>
</g>
<!-- Node2&#45;&gt;Node3 -->
<g id="edge2_Node000002_Node000003" class="edge">
<title>Node2&#45;&gt;Node3</title>
<g id="a_edge2_Node000002_Node000003"><a xlink:title=" ">
<path fill="none" stroke="#63b8ff" d="M58.62,-43.63C58.62,-35.34 58.62,-26.17 58.62,-19.61"/>
<polygon fill="#63b8ff" stroke="#63b8ff" points="55.13,-43.57 58.63,-53.57 62.13,-43.57 55.13,-43.57"/>
</a>
</g>
</g>
</g>
</svg>
