<?xml version="1.0" encoding="UTF-8" standalone="no"?>
<!DOCTYPE svg PUBLIC "-//W3C//DTD SVG 1.1//EN"
 "http://www.w3.org/Graphics/SVG/1.1/DTD/svg11.dtd">
<!-- Generated by graphviz version 14.0.2 (20251019.1705)
 -->
<!-- Title: include/Pipal/Output.hh Pages: 1 -->
<svg width="841pt" height="138pt"
 viewBox="0.00 0.00 841.00 138.00" xmlns="http://www.w3.org/2000/svg" xmlns:xlink="http://www.w3.org/1999/xlink">
<g id="graph0" class="graph" transform="scale(1 1) rotate(0) translate(4 133.75)">
<title>include/Pipal/Output.hh</title>
<!-- Node1 -->
<g id="Node000001" class="node">
<title>Node1</title>
<g id="a_Node000001"><a xlink:title=" ">
<polygon fill="#999999" stroke="#666666" points="208.38,-129.75 91.12,-129.75 91.12,-110.5 208.38,-110.5 208.38,-129.75"/>
<text xml:space="preserve" text-anchor="middle" x="149.75" y="-116.25" font-family="Helvetica,sans-Serif" font-size="10.00">include/Pipal/Output.hh</text>
</a>
</g>
</g>
<!-- Node2 -->
<g id="Node000002" class="node">
<title>Node2</title>
<g id="a_Node000002"><a xlink:title=" ">
<polygon fill="#e0e0e0" stroke="#999999" points="53.5,-74.5 0,-74.5 0,-55.25 53.5,-55.25 53.5,-74.5"/>
<text xml:space="preserve" text-anchor="middle" x="26.75" y="-61" font-family="Helvetica,sans-Serif" font-size="10.00">iostream</text>
</a>
</g>
</g>
<!-- Node1&#45;&gt;Node2 -->
<g id="edge1_Node000001_Node000002" class="edge">
<title>Node1&#45;&gt;Node2</title>
<g id="a_edge1_Node000001_Node000002"><a xlink:title=" ">
<path fill="none" stroke="#63b8ff" d="M128.88,-110.09C109.45,-101.68 80.21,-89.02 57.99,-79.4"/>
<polygon fill="#63b8ff" stroke="#63b8ff" points="59.67,-76.31 49.11,-75.55 56.89,-82.74 59.67,-76.31"/>
</a>
</g>
</g>
<!-- Node3 -->
<g id="Node000003" class="node">
<title>Node3</title>
<g id="a_Node000003"><a xlink:title=" ">
<polygon fill="#e0e0e0" stroke="#999999" points="121.62,-74.5 71.88,-74.5 71.88,-55.25 121.62,-55.25 121.62,-74.5"/>
<text xml:space="preserve" text-anchor="middle" x="96.75" y="-61" font-family="Helvetica,sans-Serif" font-size="10.00">iomanip</text>
</a>
</g>
</g>
<!-- Node1&#45;&gt;Node3 -->
<g id="edge2_Node000001_Node000003" class="edge">
<title>Node1&#45;&gt;Node3</title>
<g id="a_edge2_Node000001_Node000003"><a xlink:title=" ">
<path fill="none" stroke="#63b8ff" d="M141,-110.33C133.6,-102.9 122.79,-92.04 113.7,-82.91"/>
<polygon fill="#63b8ff" stroke="#63b8ff" points="116.29,-80.55 106.76,-75.93 111.33,-85.49 116.29,-80.55"/>
</a>
</g>
</g>
<!-- Node4 -->
<g id="Node000004" class="node">
<title>Node4</title>
<g id="a_Node000004"><a xlink:title=" ">
<polygon fill="#e0e0e0" stroke="#999999" points="75.75,-19.25 35.75,-19.25 35.75,0 75.75,0 75.75,-19.25"/>
<text xml:space="preserve" text-anchor="middle" x="55.75" y="-5.75" font-family="Helvetica,sans-Serif" font-size="10.00">string</text>
</a>
</g>
</g>
<!-- Node1&#45;&gt;Node4 -->
<g id="edge3_Node000001_Node000004" class="edge">
<title>Node1&#45;&gt;Node4</title>
<g id="a_edge3_Node000001_Node000004"><a xlink:title=" ">
<path fill="none" stroke="#63b8ff" d="M149.15,-110.36C147.83,-97.14 143.69,-71.86 130.75,-55.25 119.33,-40.58 101.63,-29.72 86.29,-22.39"/>
<polygon fill="#63b8ff" stroke="#63b8ff" points="88.1,-19.37 77.54,-18.49 85.25,-25.76 88.1,-19.37"/>
</a>
</g>
</g>
<!-- Node5 -->
<g id="Node000005" class="node">
<title>Node5</title>
<g id="a_Node000005"><a xlink:title=" ">
<polygon fill="#e0e0e0" stroke="#999999" points="229.38,-74.5 178.12,-74.5 178.12,-55.25 229.38,-55.25 229.38,-74.5"/>
<text xml:space="preserve" text-anchor="middle" x="203.75" y="-61" font-family="Helvetica,sans-Serif" font-size="10.00">ostream</text>
</a>
</g>
</g>
<!-- Node1&#45;&gt;Node5 -->
<g id="edge4_Node000001_Node000005" class="edge">
<title>Node1&#45;&gt;Node5</title>
<g id="a_edge4_Node000001_Node000005"><a xlink:title=" ">
<path fill="none" stroke="#63b8ff" d="M158.67,-110.33C166.2,-102.9 177.22,-92.04 186.48,-82.91"/>
<polygon fill="#63b8ff" stroke="#63b8ff" points="188.9,-85.44 193.56,-75.92 183.98,-80.45 188.9,-85.44"/>
</a>
</g>
</g>
<!-- Node6 -->
<g id="Node000006" class="node">
<title>Node6</title>
<g id="a_Node000006"><a xlink:href="_types_8hh.html" target="_top" xlink:title=" ">
<polygon fill="white" stroke="#666666" points="388,-74.5 307.5,-74.5 307.5,-55.25 388,-55.25 388,-74.5"/>
<text xml:space="preserve" text-anchor="middle" x="347.75" y="-61" font-family="Helvetica,sans-Serif" font-size="10.00">Pipal/Types.hh</text>
</a>
</g>
</g>
<!-- Node1&#45;&gt;Node6 -->
<g id="edge5_Node000001_Node000006" class="edge">
<title>Node1&#45;&gt;Node6</title>
<g id="a_edge5_Node000001_Node000006"><a xlink:title=" ">
<path fill="none" stroke="#63b8ff" d="M183.34,-110.09C216.33,-101.22 266.88,-87.62 303.21,-77.85"/>
<polygon fill="#63b8ff" stroke="#63b8ff" points="303.79,-81.32 312.54,-75.35 301.97,-74.56 303.79,-81.32"/>
</a>
</g>
</g>
<!-- Node6&#45;&gt;Node4 -->
<g id="edge7_Node000006_Node000004" class="edge">
<title>Node6&#45;&gt;Node4</title>
<g id="a_edge7_Node000006_Node000004"><a xlink:title=" ">
<path fill="none" stroke="#63b8ff" d="M307.35,-58.57C257.64,-51.7 170.5,-38.57 86.92,-19.51"/>
<polygon fill="#63b8ff" stroke="#63b8ff" points="87.95,-16.16 77.42,-17.31 86.37,-22.98 87.95,-16.16"/>
</a>
</g>
</g>
<!-- Node7 -->
<g id="Node000007" class="node">
<title>Node7</title>
<g id="a_Node000007"><a xlink:title=" ">
<polygon fill="#e0e0e0" stroke="#999999" points="151.75,-19.25 93.75,-19.25 93.75,0 151.75,0 151.75,-19.25"/>
<text xml:space="preserve" text-anchor="middle" x="122.75" y="-5.75" font-family="Helvetica,sans-Serif" font-size="10.00">functional</text>
</a>
</g>
</g>
<!-- Node6&#45;&gt;Node7 -->
<g id="edge6_Node000006_Node000007" class="edge">
<title>Node6&#45;&gt;Node7</title>
<g id="a_edge6_Node000006_Node000007"><a xlink:title=" ">
<path fill="none" stroke="#63b8ff" d="M309.33,-54.78C268.6,-45.14 204.55,-29.99 163.11,-20.18"/>
<polygon fill="#63b8ff" stroke="#63b8ff" points="164.06,-16.81 153.53,-17.91 162.45,-23.62 164.06,-16.81"/>
</a>
</g>
</g>
<!-- Node8 -->
<g id="Node000008" class="node">
<title>Node8</title>
<g id="a_Node000008"><a xlink:title=" ">
<polygon fill="#e0e0e0" stroke="#999999" points="209.38,-19.25 170.12,-19.25 170.12,0 209.38,0 209.38,-19.25"/>
<text xml:space="preserve" text-anchor="middle" x="189.75" y="-5.75" font-family="Helvetica,sans-Serif" font-size="10.00">limits</text>
</a>
</g>
</g>
<!-- Node6&#45;&gt;Node8 -->
<g id="edge8_Node000006_Node000008" class="edge">
<title>Node6&#45;&gt;Node8</title>
<g id="a_edge8_Node000006_Node000008"><a xlink:title=" ">
<path fill="none" stroke="#63b8ff" d="M320.95,-54.84C293.12,-45.46 249.66,-30.82 220.46,-20.98"/>
<polygon fill="#63b8ff" stroke="#63b8ff" points="221.69,-17.7 211.1,-17.82 219.46,-24.33 221.69,-17.7"/>
</a>
</g>
</g>
<!-- Node9 -->
<g id="Node000009" class="node">
<title>Node9</title>
<g id="a_Node000009"><a xlink:title=" ">
<polygon fill="#e0e0e0" stroke="#999999" points="270.25,-19.25 227.25,-19.25 227.25,0 270.25,0 270.25,-19.25"/>
<text xml:space="preserve" text-anchor="middle" x="248.75" y="-5.75" font-family="Helvetica,sans-Serif" font-size="10.00">cmath</text>
</a>
</g>
</g>
<!-- Node6&#45;&gt;Node9 -->
<g id="edge9_Node000006_Node000009" class="edge">
<title>Node6&#45;&gt;Node9</title>
<g id="a_edge9_Node000006_Node000009"><a xlink:title=" ">
<path fill="none" stroke="#63b8ff" d="M330.96,-54.84C315.74,-46.66 293.05,-34.46 275.37,-24.94"/>
<polygon fill="#63b8ff" stroke="#63b8ff" points="277.42,-22.07 266.96,-20.42 274.11,-28.24 277.42,-22.07"/>
</a>
</g>
</g>
<!-- Node10 -->
<g id="Node000010" class="node">
<title>Node10</title>
<g id="a_Node000010"><a xlink:title=" ">
<polygon fill="#e0e0e0" stroke="#999999" points="339,-19.25 288.5,-19.25 288.5,0 339,0 339,-19.25"/>
<text xml:space="preserve" text-anchor="middle" x="313.75" y="-5.75" font-family="Helvetica,sans-Serif" font-size="10.00">numeric</text>
</a>
</g>
</g>
<!-- Node6&#45;&gt;Node10 -->
<g id="edge10_Node000006_Node000010" class="edge">
<title>Node6&#45;&gt;Node10</title>
<g id="a_edge10_Node000006_Node000010"><a xlink:title=" ">
<path fill="none" stroke="#63b8ff" d="M342.14,-55.08C337.63,-48.03 331.16,-37.9 325.54,-29.08"/>
<polygon fill="#63b8ff" stroke="#63b8ff" points="328.63,-27.43 320.3,-20.88 322.73,-31.2 328.63,-27.43"/>
</a>
</g>
</g>
<!-- Node11 -->
<g id="Node000011" class="node">
<title>Node11</title>
<g id="a_Node000011"><a xlink:title=" ">
<polygon fill="#e0e0e0" stroke="#999999" points="408.38,-19.25 357.12,-19.25 357.12,0 408.38,0 408.38,-19.25"/>
<text xml:space="preserve" text-anchor="middle" x="382.75" y="-5.75" font-family="Helvetica,sans-Serif" font-size="10.00">memory</text>
</a>
</g>
</g>
<!-- Node6&#45;&gt;Node11 -->
<g id="edge11_Node000006_Node000011" class="edge">
<title>Node6&#45;&gt;Node11</title>
<g id="a_edge11_Node000006_Node000011"><a xlink:title=" ">
<path fill="none" stroke="#63b8ff" d="M353.53,-55.08C358.16,-48.03 364.82,-37.9 370.62,-29.08"/>
<polygon fill="#63b8ff" stroke="#63b8ff" points="373.45,-31.15 376.01,-20.87 367.6,-27.31 373.45,-31.15"/>
</a>
</g>
</g>
<!-- Node12 -->
<g id="Node000012" class="node">
<title>Node12</title>
<g id="a_Node000012"><a xlink:title=" ">
<polygon fill="#e0e0e0" stroke="#999999" points="498.88,-19.25 426.62,-19.25 426.62,0 498.88,0 498.88,-19.25"/>
<text xml:space="preserve" text-anchor="middle" x="462.75" y="-5.75" font-family="Helvetica,sans-Serif" font-size="10.00">Eigen/Dense</text>
</a>
</g>
</g>
<!-- Node6&#45;&gt;Node12 -->
<g id="edge12_Node000006_Node000012" class="edge">
<title>Node6&#45;&gt;Node12</title>
<g id="a_edge12_Node000006_Node000012"><a xlink:title=" ">
<path fill="none" stroke="#63b8ff" d="M367.26,-54.84C385.27,-46.5 412.27,-34 432.98,-24.41"/>
<polygon fill="#63b8ff" stroke="#63b8ff" points="434.17,-27.72 441.77,-20.34 431.23,-21.36 434.17,-27.72"/>
</a>
</g>
</g>
<!-- Node13 -->
<g id="Node000013" class="node">
<title>Node13</title>
<g id="a_Node000013"><a xlink:title=" ">
<polygon fill="#e0e0e0" stroke="#999999" points="591,-19.25 516.5,-19.25 516.5,0 591,0 591,-19.25"/>
<text xml:space="preserve" text-anchor="middle" x="553.75" y="-5.75" font-family="Helvetica,sans-Serif" font-size="10.00">Eigen/Sparse</text>
</a>
</g>
</g>
<!-- Node6&#45;&gt;Node13 -->
<g id="edge13_Node000006_Node000013" class="edge">
<title>Node6&#45;&gt;Node13</title>
<g id="a_edge13_Node000006_Node000013"><a xlink:title=" ">
<path fill="none" stroke="#63b8ff" d="M382.7,-54.84C417.17,-45.93 470.06,-32.26 507.9,-22.48"/>
<polygon fill="#63b8ff" stroke="#63b8ff" points="508.36,-25.97 517.17,-20.08 506.61,-19.2 508.36,-25.97"/>
</a>
</g>
</g>
<!-- Node14 -->
<g id="Node000014" class="node">
<title>Node14</title>
<g id="a_Node000014"><a xlink:title=" ">
<polygon fill="#e0e0e0" stroke="#999999" points="724.62,-19.25 608.88,-19.25 608.88,0 724.62,0 724.62,-19.25"/>
<text xml:space="preserve" text-anchor="middle" x="666.75" y="-5.75" font-family="Helvetica,sans-Serif" font-size="10.00">Eigen/SparseCholesky</text>
</a>
</g>
</g>
<!-- Node6&#45;&gt;Node14 -->
<g id="edge14_Node000006_Node000014" class="edge">
<title>Node6&#45;&gt;Node14</title>
<g id="a_edge14_Node000006_Node000014"><a xlink:title=" ">
<path fill="none" stroke="#63b8ff" d="M388.48,-57.08C442.11,-48.12 537.09,-32.27 600.97,-21.6"/>
<polygon fill="#63b8ff" stroke="#63b8ff" points="601.35,-25.09 610.64,-19.99 600.2,-18.19 601.35,-25.09"/>
</a>
</g>
</g>
<!-- Node15 -->
<g id="Node000015" class="node">
<title>Node15</title>
<g id="a_Node000015"><a xlink:href="_problem_8hh.html" target="_top" xlink:title=" ">
<polygon fill="white" stroke="#666666" points="832.88,-19.25 742.62,-19.25 742.62,0 832.88,0 832.88,-19.25"/>
<text xml:space="preserve" text-anchor="middle" x="787.75" y="-5.75" font-family="Helvetica,sans-Serif" font-size="10.00">Pipal/Problem.hh</text>
</a>
</g>
</g>
<!-- Node6&#45;&gt;Node15 -->
<g id="edge15_Node000006_Node000015" class="edge">
<title>Node6&#45;&gt;Node15</title>
<g id="a_edge15_Node000006_Node000015"><a xlink:title=" ">
<path fill="none" stroke="#63b8ff" d="M388.46,-59.16C457.75,-51.65 602.45,-36.08 724.75,-19.25 726.78,-18.97 728.85,-18.68 730.94,-18.37"/>
<polygon fill="#63b8ff" stroke="#63b8ff" points="731.42,-21.84 740.8,-16.91 730.39,-14.92 731.42,-21.84"/>
</a>
</g>
</g>
<!-- Node15&#45;&gt;Node6 -->
<g id="edge16_Node000015_Node000006" class="edge">
<title>Node15&#45;&gt;Node6</title>
<g id="a_edge16_Node000015_Node000006"><a xlink:title=" ">
<path fill="none" stroke="#63b8ff" d="M742.37,-19.3C619.92,-36.14 475.13,-51.72 399.46,-59.21"/>
<polygon fill="#63b8ff" stroke="#63b8ff" points="399.48,-55.69 389.87,-60.15 400.16,-62.65 399.48,-55.69"/>
</a>
</g>
</g>
</g>
</svg>
