<?xml version="1.0" encoding="UTF-8" standalone="no"?>
<!DOCTYPE svg PUBLIC "-//W3C//DTD SVG 1.1//EN"
 "http://www.w3.org/Graphics/SVG/1.1/DTD/svg11.dtd">
<!-- Generated by graphviz version 14.0.2 (20251019.1705)
 -->
<!-- Title: include/Pipal/Parameter.hh Pages: 1 -->
<svg width="339pt" height="304pt"
 viewBox="0.00 0.00 339.00 304.00" xmlns="http://www.w3.org/2000/svg" xmlns:xlink="http://www.w3.org/1999/xlink">
<g id="graph0" class="graph" transform="scale(1 1) rotate(0) translate(4 299.5)">
<title>include/Pipal/Parameter.hh</title>
<!-- Node1 -->
<g id="Node000001" class="node">
<title>Node1</title>
<g id="a_Node000001"><a xlink:title=" ">
<polygon fill="#999999" stroke="#666666" points="181,-295.5 48.75,-295.5 48.75,-276.25 181,-276.25 181,-295.5"/>
<text xml:space="preserve" text-anchor="middle" x="114.88" y="-282" font-family="Helvetica,sans-Serif" font-size="10.00">include/Pipal/Parameter.hh</text>
</a>
</g>
</g>
<!-- Node2 -->
<g id="Node000002" class="node">
<title>Node2</title>
<g id="a_Node000002"><a xlink:href="_input_8hh.html" target="_top" xlink:title=" ">
<polygon fill="white" stroke="#666666" points="109.75,-185 0,-185 0,-165.75 109.75,-165.75 109.75,-185"/>
<text xml:space="preserve" text-anchor="middle" x="54.88" y="-171.5" font-family="Helvetica,sans-Serif" font-size="10.00">include/Pipal/Input.hh</text>
</a>
</g>
</g>
<!-- Node1&#45;&gt;Node2 -->
<g id="edge1_Node000001_Node000002" class="edge">
<title>Node1&#45;&gt;Node2</title>
<g id="a_edge1_Node000001_Node000002"><a xlink:title=" ">
<path fill="none" stroke="#63b8ff" d="M104.52,-266.15C91.49,-242.58 69.62,-203.04 59.85,-185.38"/>
<polygon fill="#63b8ff" stroke="#63b8ff" points="101.33,-267.61 109.23,-274.67 107.46,-264.23 101.33,-267.61"/>
</a>
</g>
</g>
<!-- Node5 -->
<g id="Node000005" class="node">
<title>Node5</title>
<g id="a_Node000005"><a xlink:href="_iterate_8hh.html" target="_top" xlink:title=" ">
<polygon fill="white" stroke="#666666" points="224.75,-240.25 109,-240.25 109,-221 224.75,-221 224.75,-240.25"/>
<text xml:space="preserve" text-anchor="middle" x="166.88" y="-226.75" font-family="Helvetica,sans-Serif" font-size="10.00">include/Pipal/Iterate.hh</text>
</a>
</g>
</g>
<!-- Node1&#45;&gt;Node5 -->
<g id="edge4_Node000001_Node000005" class="edge">
<title>Node1&#45;&gt;Node5</title>
<g id="a_edge4_Node000001_Node000005"><a xlink:title=" ">
<path fill="none" stroke="#63b8ff" d="M131.28,-268.07C140.17,-258.98 150.79,-248.1 158.1,-240.61"/>
<polygon fill="#63b8ff" stroke="#63b8ff" points="129,-265.4 124.52,-275 134.01,-270.29 129,-265.4"/>
</a>
</g>
</g>
<!-- Node3 -->
<g id="Node000003" class="node">
<title>Node3</title>
<g id="a_Node000003"><a xlink:href="_solver_8hh.html" target="_top" xlink:title=" ">
<polygon fill="white" stroke="#666666" points="244.38,-74.5 129.38,-74.5 129.38,-55.25 244.38,-55.25 244.38,-74.5"/>
<text xml:space="preserve" text-anchor="middle" x="186.88" y="-61" font-family="Helvetica,sans-Serif" font-size="10.00">include/Pipal/Solver.hh</text>
</a>
</g>
</g>
<!-- Node2&#45;&gt;Node3 -->
<g id="edge2_Node000002_Node000003" class="edge">
<title>Node2&#45;&gt;Node3</title>
<g id="a_edge2_Node000002_Node000003"><a xlink:title=" ">
<path fill="none" stroke="#63b8ff" d="M71.89,-157.45C85.52,-144.18 105.36,-125.52 123.88,-110.5 140.11,-97.33 159.96,-83.64 172.98,-74.95"/>
<polygon fill="#63b8ff" stroke="#63b8ff" points="69.66,-154.73 64.98,-164.24 74.57,-159.72 69.66,-154.73"/>
</a>
</g>
</g>
<!-- Node4 -->
<g id="Node000004" class="node">
<title>Node4</title>
<g id="a_Node000004"><a xlink:href="_pipal_8hh.html" target="_top" xlink:title=" ">
<polygon fill="white" stroke="#666666" points="229.38,-19.25 144.38,-19.25 144.38,0 229.38,0 229.38,-19.25"/>
<text xml:space="preserve" text-anchor="middle" x="186.88" y="-5.75" font-family="Helvetica,sans-Serif" font-size="10.00">include/Pipal.hh</text>
</a>
</g>
</g>
<!-- Node3&#45;&gt;Node4 -->
<g id="edge3_Node000003_Node000004" class="edge">
<title>Node3&#45;&gt;Node4</title>
<g id="a_edge3_Node000003_Node000004"><a xlink:title=" ">
<path fill="none" stroke="#63b8ff" d="M186.88,-43.63C186.88,-35.34 186.88,-26.17 186.88,-19.61"/>
<polygon fill="#63b8ff" stroke="#63b8ff" points="183.38,-43.57 186.88,-53.57 190.38,-43.57 183.38,-43.57"/>
</a>
</g>
</g>
<!-- Node5&#45;&gt;Node3 -->
<g id="edge10_Node000005_Node000003" class="edge">
<title>Node5&#45;&gt;Node3</title>
<g id="a_edge10_Node000005_Node000003"><a xlink:title=" ">
<path fill="none" stroke="#63b8ff" d="M160.8,-209.88C154.4,-185.86 146.57,-144.31 156.88,-110.5 161.07,-96.75 171.07,-83.39 178.38,-74.93"/>
<polygon fill="#63b8ff" stroke="#63b8ff" points="157.37,-210.62 163.49,-219.26 164.1,-208.69 157.37,-210.62"/>
</a>
</g>
</g>
<!-- Node6 -->
<g id="Node000006" class="node">
<title>Node6</title>
<g id="a_Node000006"><a xlink:href="_acceptance_8hh.html" target="_top" xlink:title=" ">
<polygon fill="white" stroke="#666666" points="305.75,-129.75 166,-129.75 166,-110.5 305.75,-110.5 305.75,-129.75"/>
<text xml:space="preserve" text-anchor="middle" x="235.88" y="-116.25" font-family="Helvetica,sans-Serif" font-size="10.00">include/Pipal/Acceptance.hh</text>
</a>
</g>
</g>
<!-- Node5&#45;&gt;Node6 -->
<g id="edge5_Node000005_Node000006" class="edge">
<title>Node5&#45;&gt;Node6</title>
<g id="a_edge5_Node000005_Node000006"><a xlink:title=" ">
<path fill="none" stroke="#63b8ff" d="M173.44,-210.29C178.34,-197.16 185.76,-179.72 194.88,-165.75 203.84,-152 217.11,-138.44 226.1,-129.94"/>
<polygon fill="#63b8ff" stroke="#63b8ff" points="170.22,-208.88 170.17,-219.48 176.82,-211.23 170.22,-208.88"/>
</a>
</g>
</g>
<!-- Node7 -->
<g id="Node000007" class="node">
<title>Node7</title>
<g id="a_Node000007"><a xlink:href="_direction_8hh.html" target="_top" xlink:title=" ">
<polygon fill="white" stroke="#666666" points="331.38,-185 204.38,-185 204.38,-165.75 331.38,-165.75 331.38,-185"/>
<text xml:space="preserve" text-anchor="middle" x="267.88" y="-171.5" font-family="Helvetica,sans-Serif" font-size="10.00">include/Pipal/Direction.hh</text>
</a>
</g>
</g>
<!-- Node5&#45;&gt;Node7 -->
<g id="edge7_Node000005_Node000007" class="edge">
<title>Node5&#45;&gt;Node7</title>
<g id="a_edge7_Node000005_Node000007"><a xlink:title=" ">
<path fill="none" stroke="#63b8ff" d="M194.19,-215.23C212.17,-205.74 235.18,-193.61 250.66,-185.45"/>
<polygon fill="#63b8ff" stroke="#63b8ff" points="192.56,-212.13 185.35,-219.89 195.83,-218.32 192.56,-212.13"/>
</a>
</g>
</g>
<!-- Node6&#45;&gt;Node3 -->
<g id="edge6_Node000006_Node000003" class="edge">
<title>Node6&#45;&gt;Node3</title>
<g id="a_edge6_Node000006_Node000003"><a xlink:title=" ">
<path fill="none" stroke="#63b8ff" d="M220.16,-102.04C211.84,-93 201.96,-82.27 195.14,-74.86"/>
<polygon fill="#63b8ff" stroke="#63b8ff" points="217.41,-104.23 226.76,-109.22 222.56,-99.49 217.41,-104.23"/>
</a>
</g>
</g>
<!-- Node7&#45;&gt;Node3 -->
<g id="edge9_Node000007_Node000003" class="edge">
<title>Node7&#45;&gt;Node3</title>
<g id="a_edge9_Node000007_Node000003"><a xlink:title=" ">
<path fill="none" stroke="#63b8ff" d="M292.04,-158.86C309,-145.99 326.72,-127.17 314.88,-110.5 298.86,-87.96 270.58,-76.71 244.67,-71.13"/>
<polygon fill="#63b8ff" stroke="#63b8ff" points="290.26,-155.84 284.12,-164.47 294.31,-161.55 290.26,-155.84"/>
</a>
</g>
</g>
<!-- Node7&#45;&gt;Node6 -->
<g id="edge8_Node000007_Node000006" class="edge">
<title>Node7&#45;&gt;Node6</title>
<g id="a_edge8_Node000007_Node000006"><a xlink:title=" ">
<path fill="none" stroke="#63b8ff" d="M256.75,-155.87C251.51,-147.14 245.5,-137.14 241.27,-130.11"/>
<polygon fill="#63b8ff" stroke="#63b8ff" points="253.66,-157.52 261.81,-164.28 259.66,-153.91 253.66,-157.52"/>
</a>
</g>
</g>
</g>
</svg>
