<?xml version="1.0" encoding="UTF-8" standalone="no"?>
<!DOCTYPE svg PUBLIC "-//W3C//DTD SVG 1.1//EN"
 "http://www.w3.org/Graphics/SVG/1.1/DTD/svg11.dtd">
<!-- Generated by graphviz version 13.1.2 (20250808.2320)
 -->
<!-- Title: include/Pipal.hh Pages: 1 -->
<svg width="409pt" height="193pt"
 viewBox="0.00 0.00 409.00 193.00" xmlns="http://www.w3.org/2000/svg" xmlns:xlink="http://www.w3.org/1999/xlink">
<g id="graph0" class="graph" transform="scale(1 1) rotate(0) translate(4 189)">
<title>include/Pipal.hh</title>
<!-- Node1 -->
<g id="Node000001" class="node">
<title>Node1</title>
<g id="a_Node000001"><a xlink:title=" ">
<polygon fill="#999999" stroke="#666666" points="219.25,-185 134.25,-185 134.25,-165.75 219.25,-165.75 219.25,-185"/>
<text xml:space="preserve" text-anchor="middle" x="176.75" y="-171.5" font-family="Helvetica,sans-Serif" font-size="10.00">include/Pipal.hh</text>
</a>
</g>
</g>
<!-- Node2 -->
<g id="Node000002" class="node">
<title>Node2</title>
<g id="a_Node000002"><a xlink:title=" ">
<polygon fill="#e0e0e0" stroke="#999999" points="53.5,-74.5 0,-74.5 0,-55.25 53.5,-55.25 53.5,-74.5"/>
<text xml:space="preserve" text-anchor="middle" x="26.75" y="-61" font-family="Helvetica,sans-Serif" font-size="10.00">iostream</text>
</a>
</g>
</g>
<!-- Node1&#45;&gt;Node2 -->
<g id="edge1_Node000001_Node000002" class="edge">
<title>Node1&#45;&gt;Node2</title>
<g id="a_edge1_Node000001_Node000002"><a xlink:title=" ">
<path fill="none" stroke="#63b8ff" d="M151.88,-165.34C132.5,-157.61 105.5,-145.28 84.75,-129.75 67.19,-116.6 50.74,-97.59 39.87,-83.73"/>
<polygon fill="#63b8ff" stroke="#63b8ff" points="42.77,-81.76 33.93,-75.91 37.2,-85.99 42.77,-81.76"/>
</a>
</g>
</g>
<!-- Node3 -->
<g id="Node000003" class="node">
<title>Node3</title>
<g id="a_Node000003"><a xlink:title=" ">
<polygon fill="#e0e0e0" stroke="#999999" points="244.38,-129.75 193.12,-129.75 193.12,-110.5 244.38,-110.5 244.38,-129.75"/>
<text xml:space="preserve" text-anchor="middle" x="218.75" y="-116.25" font-family="Helvetica,sans-Serif" font-size="10.00">sstream</text>
</a>
</g>
</g>
<!-- Node1&#45;&gt;Node3 -->
<g id="edge2_Node000001_Node000003" class="edge">
<title>Node1&#45;&gt;Node3</title>
<g id="a_edge2_Node000001_Node000003"><a xlink:title=" ">
<path fill="none" stroke="#63b8ff" d="M183.69,-165.58C189.37,-158.38 197.59,-147.96 204.64,-139.01"/>
<polygon fill="#63b8ff" stroke="#63b8ff" points="207.28,-141.32 210.73,-131.3 201.79,-136.98 207.28,-141.32"/>
</a>
</g>
</g>
<!-- Node4 -->
<g id="Node000004" class="node">
<title>Node4</title>
<g id="a_Node000004"><a xlink:title=" ">
<polygon fill="#e0e0e0" stroke="#999999" points="321.12,-129.75 262.38,-129.75 262.38,-110.5 321.12,-110.5 321.12,-129.75"/>
<text xml:space="preserve" text-anchor="middle" x="291.75" y="-116.25" font-family="Helvetica,sans-Serif" font-size="10.00">stdexcept</text>
</a>
</g>
</g>
<!-- Node1&#45;&gt;Node4 -->
<g id="edge3_Node000001_Node000004" class="edge">
<title>Node1&#45;&gt;Node4</title>
<g id="a_edge3_Node000001_Node000004"><a xlink:title=" ">
<path fill="none" stroke="#63b8ff" d="M196.26,-165.34C214.27,-157 241.27,-144.5 261.98,-134.91"/>
<polygon fill="#63b8ff" stroke="#63b8ff" points="263.17,-138.22 270.77,-130.84 260.23,-131.86 263.17,-138.22"/>
</a>
</g>
</g>
<!-- Node5 -->
<g id="Node000005" class="node">
<title>Node5</title>
<g id="a_Node000005"><a xlink:href="_solver_8hh.html" target="_top" xlink:title=" ">
<polygon fill="white" stroke="#666666" points="175.38,-129.75 94.12,-129.75 94.12,-110.5 175.38,-110.5 175.38,-129.75"/>
<text xml:space="preserve" text-anchor="middle" x="134.75" y="-116.25" font-family="Helvetica,sans-Serif" font-size="10.00">Pipal/Solver.hh</text>
</a>
</g>
</g>
<!-- Node1&#45;&gt;Node5 -->
<g id="edge4_Node000001_Node000005" class="edge">
<title>Node1&#45;&gt;Node5</title>
<g id="a_edge4_Node000001_Node000005"><a xlink:title=" ">
<path fill="none" stroke="#63b8ff" d="M169.81,-165.58C164.13,-158.38 155.91,-147.96 148.86,-139.01"/>
<polygon fill="#63b8ff" stroke="#63b8ff" points="151.71,-136.98 142.77,-131.3 146.22,-141.32 151.71,-136.98"/>
</a>
</g>
</g>
<!-- Node5&#45;&gt;Node2 -->
<g id="edge9_Node000005_Node000002" class="edge">
<title>Node5&#45;&gt;Node2</title>
<g id="a_edge9_Node000005_Node000002"><a xlink:title=" ">
<path fill="none" stroke="#63b8ff" d="M116.43,-110.09C99.67,-101.83 74.62,-89.48 55.25,-79.93"/>
<polygon fill="#63b8ff" stroke="#63b8ff" points="57.03,-76.9 46.52,-75.62 53.94,-83.18 57.03,-76.9"/>
</a>
</g>
</g>
<!-- Node6 -->
<g id="Node000006" class="node">
<title>Node6</title>
<g id="a_Node000006"><a xlink:href="_problem_8hh.html" target="_top" xlink:title=" ">
<polygon fill="white" stroke="#666666" points="341.88,-74.5 251.62,-74.5 251.62,-55.25 341.88,-55.25 341.88,-74.5"/>
<text xml:space="preserve" text-anchor="middle" x="296.75" y="-61" font-family="Helvetica,sans-Serif" font-size="10.00">Pipal/Problem.hh</text>
</a>
</g>
</g>
<!-- Node5&#45;&gt;Node6 -->
<g id="edge5_Node000005_Node000006" class="edge">
<title>Node5&#45;&gt;Node6</title>
<g id="a_edge5_Node000005_Node000006"><a xlink:title=" ">
<path fill="none" stroke="#63b8ff" d="M162.23,-110.09C188.65,-101.41 228.81,-88.21 258.37,-78.49"/>
<polygon fill="#63b8ff" stroke="#63b8ff" points="259.29,-81.87 267.7,-75.43 257.1,-75.22 259.29,-81.87"/>
</a>
</g>
</g>
<!-- Node8 -->
<g id="Node000008" class="node">
<title>Node8</title>
<g id="a_Node000008"><a xlink:title=" ">
<polygon fill="#e0e0e0" stroke="#999999" points="400.62,-19.25 338.88,-19.25 338.88,0 400.62,0 400.62,-19.25"/>
<text xml:space="preserve" text-anchor="middle" x="369.75" y="-5.75" font-family="Helvetica,sans-Serif" font-size="10.00">type_traits</text>
</a>
</g>
</g>
<!-- Node5&#45;&gt;Node8 -->
<g id="edge12_Node000005_Node000008" class="edge">
<title>Node5&#45;&gt;Node8</title>
<g id="a_edge12_Node000005_Node000008"><a xlink:title=" ">
<path fill="none" stroke="#63b8ff" d="M175.85,-111.75C236.69,-100.68 344.3,-80.42 350.75,-74.5 362.88,-63.37 367.39,-44.87 369.01,-30.64"/>
<polygon fill="#63b8ff" stroke="#63b8ff" points="372.48,-31.26 369.7,-21.03 365.5,-30.76 372.48,-31.26"/>
</a>
</g>
</g>
<!-- Node9 -->
<g id="Node000009" class="node">
<title>Node9</title>
<g id="a_Node000009"><a xlink:title=" ">
<polygon fill="#e0e0e0" stroke="#999999" points="181.88,-19.25 109.62,-19.25 109.62,0 181.88,0 181.88,-19.25"/>
<text xml:space="preserve" text-anchor="middle" x="145.75" y="-5.75" font-family="Helvetica,sans-Serif" font-size="10.00">Eigen/Dense</text>
</a>
</g>
</g>
<!-- Node5&#45;&gt;Node9 -->
<g id="edge13_Node000005_Node000009" class="edge">
<title>Node5&#45;&gt;Node9</title>
<g id="a_edge13_Node000005_Node000009"><a xlink:title=" ">
<path fill="none" stroke="#63b8ff" d="M124.37,-110.29C111.51,-98.2 92.25,-75.66 100.75,-55.25 105.4,-44.09 114.34,-34.3 123.04,-26.74"/>
<polygon fill="#63b8ff" stroke="#63b8ff" points="125.01,-29.65 130.64,-20.67 120.64,-24.18 125.01,-29.65"/>
</a>
</g>
</g>
<!-- Node10 -->
<g id="Node000010" class="node">
<title>Node10</title>
<g id="a_Node000010"><a xlink:title=" ">
<polygon fill="#e0e0e0" stroke="#999999" points="159.62,-74.5 109.88,-74.5 109.88,-55.25 159.62,-55.25 159.62,-74.5"/>
<text xml:space="preserve" text-anchor="middle" x="134.75" y="-61" font-family="Helvetica,sans-Serif" font-size="10.00">iomanip</text>
</a>
</g>
</g>
<!-- Node5&#45;&gt;Node10 -->
<g id="edge10_Node000005_Node000010" class="edge">
<title>Node5&#45;&gt;Node10</title>
<g id="a_edge10_Node000005_Node000010"><a xlink:title=" ">
<path fill="none" stroke="#63b8ff" d="M134.75,-110.33C134.75,-103.82 134.75,-94.67 134.75,-86.37"/>
<polygon fill="#63b8ff" stroke="#63b8ff" points="138.25,-86.37 134.75,-76.37 131.25,-86.37 138.25,-86.37"/>
</a>
</g>
</g>
<!-- Node11 -->
<g id="Node000011" class="node">
<title>Node11</title>
<g id="a_Node000011"><a xlink:title=" ">
<polygon fill="#e0e0e0" stroke="#999999" points="233.62,-74.5 177.88,-74.5 177.88,-55.25 233.62,-55.25 233.62,-74.5"/>
<text xml:space="preserve" text-anchor="middle" x="205.75" y="-61" font-family="Helvetica,sans-Serif" font-size="10.00">algorithm</text>
</a>
</g>
</g>
<!-- Node5&#45;&gt;Node11 -->
<g id="edge11_Node000005_Node000011" class="edge">
<title>Node5&#45;&gt;Node11</title>
<g id="a_edge11_Node000005_Node000011"><a xlink:title=" ">
<path fill="none" stroke="#63b8ff" d="M146.79,-110.09C157.16,-102.32 172.35,-90.92 184.72,-81.65"/>
<polygon fill="#63b8ff" stroke="#63b8ff" points="186.77,-84.48 192.67,-75.68 182.57,-78.88 186.77,-84.48"/>
</a>
</g>
</g>
<!-- Node7 -->
<g id="Node000007" class="node">
<title>Node7</title>
<g id="a_Node000007"><a xlink:title=" ">
<polygon fill="#e0e0e0" stroke="#999999" points="320.75,-19.25 262.75,-19.25 262.75,0 320.75,0 320.75,-19.25"/>
<text xml:space="preserve" text-anchor="middle" x="291.75" y="-5.75" font-family="Helvetica,sans-Serif" font-size="10.00">functional</text>
</a>
</g>
</g>
<!-- Node6&#45;&gt;Node7 -->
<g id="edge6_Node000006_Node000007" class="edge">
<title>Node6&#45;&gt;Node7</title>
<g id="a_edge6_Node000006_Node000007"><a xlink:title=" ">
<path fill="none" stroke="#63b8ff" d="M295.92,-55.08C295.31,-48.49 294.43,-39.21 293.65,-30.82"/>
<polygon fill="#63b8ff" stroke="#63b8ff" points="297.15,-30.75 292.74,-21.12 290.19,-31.4 297.15,-30.75"/>
</a>
</g>
</g>
<!-- Node6&#45;&gt;Node8 -->
<g id="edge7_Node000006_Node000008" class="edge">
<title>Node6&#45;&gt;Node8</title>
<g id="a_edge7_Node000006_Node000008"><a xlink:title=" ">
<path fill="none" stroke="#63b8ff" d="M309.13,-54.84C319.9,-46.99 335.72,-35.45 348.5,-26.12"/>
<polygon fill="#63b8ff" stroke="#63b8ff" points="350.31,-29.14 356.33,-20.42 346.19,-23.48 350.31,-29.14"/>
</a>
</g>
</g>
<!-- Node6&#45;&gt;Node9 -->
<g id="edge8_Node000006_Node000009" class="edge">
<title>Node6&#45;&gt;Node9</title>
<g id="a_edge8_Node000006_Node000009"><a xlink:title=" ">
<path fill="none" stroke="#63b8ff" d="M271.13,-54.84C246.73,-46.24 209.74,-33.19 182.25,-23.5"/>
<polygon fill="#63b8ff" stroke="#63b8ff" points="183.51,-20.23 172.92,-20.21 181.18,-26.83 183.51,-20.23"/>
</a>
</g>
</g>
</g>
</svg>
