<?xml version="1.0" encoding="UTF-8" standalone="no"?>
<!DOCTYPE svg PUBLIC "-//W3C//DTD SVG 1.1//EN"
 "http://www.w3.org/Graphics/SVG/1.1/DTD/svg11.dtd">
<!-- Generated by graphviz version 14.0.2 (20251019.1705)
 -->
<!-- Title: include/Pipal.hh Pages: 1 -->
<svg width="784pt" height="414pt"
 viewBox="0.00 0.00 784.00 414.00" xmlns="http://www.w3.org/2000/svg" xmlns:xlink="http://www.w3.org/1999/xlink">
<g id="graph0" class="graph" transform="scale(1 1) rotate(0) translate(4 410)">
<title>include/Pipal.hh</title>
<!-- Node1 -->
<g id="Node000001" class="node">
<title>Node1</title>
<g id="a_Node000001"><a xlink:title=" ">
<polygon fill="#999999" stroke="#666666" points="614.5,-406 529.5,-406 529.5,-386.75 614.5,-386.75 614.5,-406"/>
<text xml:space="preserve" text-anchor="middle" x="572" y="-392.5" font-family="Helvetica,sans-Serif" font-size="10.00">include/Pipal.hh</text>
</a>
</g>
</g>
<!-- Node2 -->
<g id="Node000002" class="node">
<title>Node2</title>
<g id="a_Node000002"><a xlink:href="_problem_8hh.html" target="_top" xlink:title=" ">
<polygon fill="white" stroke="#666666" points="562.12,-185 471.88,-185 471.88,-165.75 562.12,-165.75 562.12,-185"/>
<text xml:space="preserve" text-anchor="middle" x="517" y="-171.5" font-family="Helvetica,sans-Serif" font-size="10.00">Pipal/Problem.hh</text>
</a>
</g>
</g>
<!-- Node1&#45;&gt;Node2 -->
<g id="edge1_Node000001_Node000002" class="edge">
<title>Node1&#45;&gt;Node2</title>
<g id="a_edge1_Node000001_Node000002"><a xlink:title=" ">
<path fill="none" stroke="#63b8ff" d="M589.86,-386.36C638.45,-360.69 766.11,-284.9 715,-221 697.52,-199.14 625.5,-187.23 573.36,-181.33"/>
<polygon fill="#63b8ff" stroke="#63b8ff" points="574.05,-177.89 563.73,-180.3 573.3,-184.85 574.05,-177.89"/>
</a>
</g>
</g>
<!-- Node13 -->
<g id="Node000013" class="node">
<title>Node13</title>
<g id="a_Node000013"><a xlink:href="_solver_8hh.html" target="_top" xlink:title=" ">
<polygon fill="white" stroke="#666666" points="446.62,-350.75 365.38,-350.75 365.38,-331.5 446.62,-331.5 446.62,-350.75"/>
<text xml:space="preserve" text-anchor="middle" x="406" y="-337.25" font-family="Helvetica,sans-Serif" font-size="10.00">Pipal/Solver.hh</text>
</a>
</g>
</g>
<!-- Node1&#45;&gt;Node13 -->
<g id="edge13_Node000001_Node000013" class="edge">
<title>Node1&#45;&gt;Node13</title>
<g id="a_edge13_Node000001_Node000013"><a xlink:title=" ">
<path fill="none" stroke="#63b8ff" d="M543.84,-386.34C516.65,-377.62 475.26,-364.34 444.93,-354.61"/>
<polygon fill="#63b8ff" stroke="#63b8ff" points="446.33,-351.39 435.74,-351.66 444.19,-358.05 446.33,-351.39"/>
</a>
</g>
</g>
<!-- Node3 -->
<g id="Node000003" class="node">
<title>Node3</title>
<g id="a_Node000003"><a xlink:href="_types_8hh.html" target="_top" xlink:title=" ">
<polygon fill="white" stroke="#666666" points="388.25,-74.5 307.75,-74.5 307.75,-55.25 388.25,-55.25 388.25,-74.5"/>
<text xml:space="preserve" text-anchor="middle" x="348" y="-61" font-family="Helvetica,sans-Serif" font-size="10.00">Pipal/Types.hh</text>
</a>
</g>
</g>
<!-- Node2&#45;&gt;Node3 -->
<g id="edge2_Node000002_Node000003" class="edge">
<title>Node2&#45;&gt;Node3</title>
<g id="a_edge2_Node000002_Node000003"><a xlink:title=" ">
<path fill="none" stroke="#63b8ff" d="M504.96,-165.37C491.88,-151.82 471.59,-126.13 449,-110.5 428.98,-96.65 404.01,-86.08 383.82,-78.71"/>
<polygon fill="#63b8ff" stroke="#63b8ff" points="385.17,-75.48 374.57,-75.45 382.84,-82.08 385.17,-75.48"/>
</a>
</g>
</g>
<!-- Node3&#45;&gt;Node2 -->
<g id="edge12_Node000003_Node000002" class="edge">
<title>Node3&#45;&gt;Node2</title>
<g id="a_edge12_Node000003_Node000002"><a xlink:title=" ">
<path fill="none" stroke="#63b8ff" d="M388.2,-74.95C412.6,-82.28 443.27,-94.08 467,-110.5 485.01,-122.96 501.55,-141.8 510.87,-155.8"/>
<polygon fill="#63b8ff" stroke="#63b8ff" points="507.64,-157.21 515.72,-164.06 513.67,-153.67 507.64,-157.21"/>
</a>
</g>
</g>
<!-- Node4 -->
<g id="Node000004" class="node">
<title>Node4</title>
<g id="a_Node000004"><a xlink:title=" ">
<polygon fill="#e0e0e0" stroke="#999999" points="377,-19.25 319,-19.25 319,0 377,0 377,-19.25"/>
<text xml:space="preserve" text-anchor="middle" x="348" y="-5.75" font-family="Helvetica,sans-Serif" font-size="10.00">functional</text>
</a>
</g>
</g>
<!-- Node3&#45;&gt;Node4 -->
<g id="edge3_Node000003_Node000004" class="edge">
<title>Node3&#45;&gt;Node4</title>
<g id="a_edge3_Node000003_Node000004"><a xlink:title=" ">
<path fill="none" stroke="#63b8ff" d="M348,-55.08C348,-48.57 348,-39.42 348,-31.12"/>
<polygon fill="#63b8ff" stroke="#63b8ff" points="351.5,-31.12 348,-21.12 344.5,-31.12 351.5,-31.12"/>
</a>
</g>
</g>
<!-- Node5 -->
<g id="Node000005" class="node">
<title>Node5</title>
<g id="a_Node000005"><a xlink:title=" ">
<polygon fill="#e0e0e0" stroke="#999999" points="632,-19.25 592,-19.25 592,0 632,0 632,-19.25"/>
<text xml:space="preserve" text-anchor="middle" x="612" y="-5.75" font-family="Helvetica,sans-Serif" font-size="10.00">string</text>
</a>
</g>
</g>
<!-- Node3&#45;&gt;Node5 -->
<g id="edge4_Node000003_Node000005" class="edge">
<title>Node3&#45;&gt;Node5</title>
<g id="a_edge4_Node000003_Node000005"><a xlink:title=" ">
<path fill="none" stroke="#63b8ff" d="M388.7,-56.08C433.81,-47.38 508.69,-32.74 573,-19.25 575.48,-18.73 578.05,-18.18 580.63,-17.63"/>
<polygon fill="#63b8ff" stroke="#63b8ff" points="581.28,-21.07 590.3,-15.51 579.78,-14.23 581.28,-21.07"/>
</a>
</g>
</g>
<!-- Node6 -->
<g id="Node000006" class="node">
<title>Node6</title>
<g id="a_Node000006"><a xlink:title=" ">
<polygon fill="#e0e0e0" stroke="#999999" points="434.62,-19.25 395.38,-19.25 395.38,0 434.62,0 434.62,-19.25"/>
<text xml:space="preserve" text-anchor="middle" x="415" y="-5.75" font-family="Helvetica,sans-Serif" font-size="10.00">limits</text>
</a>
</g>
</g>
<!-- Node3&#45;&gt;Node6 -->
<g id="edge5_Node000003_Node000006" class="edge">
<title>Node3&#45;&gt;Node6</title>
<g id="a_edge5_Node000003_Node000006"><a xlink:title=" ">
<path fill="none" stroke="#63b8ff" d="M359.37,-54.84C369.05,-47.15 383.2,-35.9 394.81,-26.68"/>
<polygon fill="#63b8ff" stroke="#63b8ff" points="396.97,-29.43 402.62,-20.47 392.61,-23.95 396.97,-29.43"/>
</a>
</g>
</g>
<!-- Node7 -->
<g id="Node000007" class="node">
<title>Node7</title>
<g id="a_Node000007"><a xlink:title=" ">
<polygon fill="#e0e0e0" stroke="#999999" points="495.5,-19.25 452.5,-19.25 452.5,0 495.5,0 495.5,-19.25"/>
<text xml:space="preserve" text-anchor="middle" x="474" y="-5.75" font-family="Helvetica,sans-Serif" font-size="10.00">cmath</text>
</a>
</g>
</g>
<!-- Node3&#45;&gt;Node7 -->
<g id="edge6_Node000003_Node000007" class="edge">
<title>Node3&#45;&gt;Node7</title>
<g id="a_edge6_Node000003_Node000007"><a xlink:title=" ">
<path fill="none" stroke="#63b8ff" d="M369.37,-54.84C389.29,-46.43 419.24,-33.77 442,-24.15"/>
<polygon fill="#63b8ff" stroke="#63b8ff" points="443.28,-27.41 451.13,-20.29 440.55,-20.96 443.28,-27.41"/>
</a>
</g>
</g>
<!-- Node8 -->
<g id="Node000008" class="node">
<title>Node8</title>
<g id="a_Node000008"><a xlink:title=" ">
<polygon fill="#e0e0e0" stroke="#999999" points="564.25,-19.25 513.75,-19.25 513.75,0 564.25,0 564.25,-19.25"/>
<text xml:space="preserve" text-anchor="middle" x="539" y="-5.75" font-family="Helvetica,sans-Serif" font-size="10.00">numeric</text>
</a>
</g>
</g>
<!-- Node3&#45;&gt;Node8 -->
<g id="edge7_Node000003_Node000008" class="edge">
<title>Node3&#45;&gt;Node8</title>
<g id="a_edge7_Node000003_Node000008"><a xlink:title=" ">
<path fill="none" stroke="#63b8ff" d="M380.4,-54.84C414.3,-45.39 467.41,-30.59 502.7,-20.75"/>
<polygon fill="#63b8ff" stroke="#63b8ff" points="503.33,-24.2 512.03,-18.15 501.45,-17.46 503.33,-24.2"/>
</a>
</g>
</g>
<!-- Node9 -->
<g id="Node000009" class="node">
<title>Node9</title>
<g id="a_Node000009"><a xlink:title=" ">
<polygon fill="#e0e0e0" stroke="#999999" points="74.62,-19.25 23.38,-19.25 23.38,0 74.62,0 74.62,-19.25"/>
<text xml:space="preserve" text-anchor="middle" x="49" y="-5.75" font-family="Helvetica,sans-Serif" font-size="10.00">memory</text>
</a>
</g>
</g>
<!-- Node3&#45;&gt;Node9 -->
<g id="edge8_Node000003_Node000009" class="edge">
<title>Node3&#45;&gt;Node9</title>
<g id="a_edge8_Node000003_Node000009"><a xlink:title=" ">
<path fill="none" stroke="#63b8ff" d="M307.57,-57.99C257.8,-50.55 170.47,-36.8 86.03,-19.54"/>
<polygon fill="#63b8ff" stroke="#63b8ff" points="86.93,-16.15 76.43,-17.55 85.51,-23 86.93,-16.15"/>
</a>
</g>
</g>
<!-- Node10 -->
<g id="Node000010" class="node">
<title>Node10</title>
<g id="a_Node000010"><a xlink:title=" ">
<polygon fill="#e0e0e0" stroke="#999999" points="766.12,-19.25 693.88,-19.25 693.88,0 766.12,0 766.12,-19.25"/>
<text xml:space="preserve" text-anchor="middle" x="730" y="-5.75" font-family="Helvetica,sans-Serif" font-size="10.00">Eigen/Dense</text>
</a>
</g>
</g>
<!-- Node3&#45;&gt;Node10 -->
<g id="edge9_Node000003_Node000010" class="edge">
<title>Node3&#45;&gt;Node10</title>
<g id="a_edge9_Node000003_Node000010"><a xlink:title=" ">
<path fill="none" stroke="#63b8ff" d="M388.52,-58.23C459.66,-48.31 606.64,-27.82 682.46,-17.25"/>
<polygon fill="#63b8ff" stroke="#63b8ff" points="682.63,-20.76 692.06,-15.91 681.67,-13.83 682.63,-20.76"/>
</a>
</g>
</g>
<!-- Node11 -->
<g id="Node000011" class="node">
<title>Node11</title>
<g id="a_Node000011"><a xlink:title=" ">
<polygon fill="#e0e0e0" stroke="#999999" points="167.25,-19.25 92.75,-19.25 92.75,0 167.25,0 167.25,-19.25"/>
<text xml:space="preserve" text-anchor="middle" x="130" y="-5.75" font-family="Helvetica,sans-Serif" font-size="10.00">Eigen/Sparse</text>
</a>
</g>
</g>
<!-- Node3&#45;&gt;Node11 -->
<g id="edge10_Node000003_Node000011" class="edge">
<title>Node3&#45;&gt;Node11</title>
<g id="a_edge10_Node000003_Node000011"><a xlink:title=" ">
<path fill="none" stroke="#63b8ff" d="M311.02,-54.84C274.46,-45.91 218.32,-32.2 178.26,-22.41"/>
<polygon fill="#63b8ff" stroke="#63b8ff" points="179.18,-19.03 168.63,-20.06 177.52,-25.83 179.18,-19.03"/>
</a>
</g>
</g>
<!-- Node12 -->
<g id="Node000012" class="node">
<title>Node12</title>
<g id="a_Node000012"><a xlink:title=" ">
<polygon fill="#e0e0e0" stroke="#999999" points="300.88,-19.25 185.12,-19.25 185.12,0 300.88,0 300.88,-19.25"/>
<text xml:space="preserve" text-anchor="middle" x="243" y="-5.75" font-family="Helvetica,sans-Serif" font-size="10.00">Eigen/SparseCholesky</text>
</a>
</g>
</g>
<!-- Node3&#45;&gt;Node12 -->
<g id="edge11_Node000003_Node000012" class="edge">
<title>Node3&#45;&gt;Node12</title>
<g id="a_edge11_Node000003_Node000012"><a xlink:title=" ">
<path fill="none" stroke="#63b8ff" d="M330.19,-54.84C313.97,-46.62 289.76,-34.34 270.97,-24.81"/>
<polygon fill="#63b8ff" stroke="#63b8ff" points="272.75,-21.79 262.25,-20.39 269.58,-28.03 272.75,-21.79"/>
</a>
</g>
</g>
<!-- Node13&#45;&gt;Node2 -->
<g id="edge42_Node000013_Node000002" class="edge">
<title>Node13&#45;&gt;Node2</title>
<g id="a_edge42_Node000013_Node000002"><a xlink:title=" ">
<path fill="none" stroke="#63b8ff" d="M407.74,-331.12C410.4,-318.45 416.12,-294.83 425,-276.25 437.85,-249.36 442.88,-242.98 463,-221 472.58,-210.53 484.65,-200.33 494.95,-192.34"/>
<polygon fill="#63b8ff" stroke="#63b8ff" points="497.05,-195.13 502.93,-186.31 492.84,-189.54 497.05,-195.13"/>
</a>
</g>
</g>
<!-- Node13&#45;&gt;Node3 -->
<g id="edge30_Node000013_Node000003" class="edge">
<title>Node13&#45;&gt;Node3</title>
<g id="a_edge30_Node000013_Node000003"><a xlink:title=" ">
<path fill="none" stroke="#63b8ff" d="M400.56,-331.21C390.05,-313.13 368,-270.54 368,-231.62 368,-231.62 368,-231.62 368,-174.38 368,-142.99 359.81,-107.34 353.91,-85.73"/>
<polygon fill="#63b8ff" stroke="#63b8ff" points="357.31,-84.89 351.2,-76.23 350.58,-86.81 357.31,-84.89"/>
</a>
</g>
</g>
<!-- Node13&#45;&gt;Node10 -->
<g id="edge17_Node000013_Node000010" class="edge">
<title>Node13&#45;&gt;Node10</title>
<g id="a_edge17_Node000013_Node000010"><a xlink:title=" ">
<path fill="none" stroke="#63b8ff" d="M446.77,-340.68C505.2,-340 614.97,-333.21 699,-295.5 739.57,-277.3 776,-276.09 776,-231.62 776,-231.62 776,-231.62 776,-119.12 776,-85.32 756.84,-49.96 743.25,-29.13"/>
<polygon fill="#63b8ff" stroke="#63b8ff" points="746.17,-27.19 737.64,-20.9 740.38,-31.13 746.17,-27.19"/>
</a>
</g>
</g>
<!-- Node14 -->
<g id="Node000014" class="node">
<title>Node14</title>
<g id="a_Node000014"><a xlink:title=" ">
<polygon fill="#e0e0e0" stroke="#999999" points="705.88,-240.25 656.12,-240.25 656.12,-221 705.88,-221 705.88,-240.25"/>
<text xml:space="preserve" text-anchor="middle" x="681" y="-226.75" font-family="Helvetica,sans-Serif" font-size="10.00">iomanip</text>
</a>
</g>
</g>
<!-- Node13&#45;&gt;Node14 -->
<g id="edge14_Node000013_Node000014" class="edge">
<title>Node13&#45;&gt;Node14</title>
<g id="a_edge14_Node000013_Node000014"><a xlink:title=" ">
<path fill="none" stroke="#63b8ff" d="M447.11,-339.7C516.32,-338 651.46,-330.22 681,-295.5 691.12,-283.61 690.11,-265.48 687.15,-251.57"/>
<polygon fill="#63b8ff" stroke="#63b8ff" points="690.6,-250.94 684.66,-242.16 683.83,-252.72 690.6,-250.94"/>
</a>
</g>
</g>
<!-- Node15 -->
<g id="Node000015" class="node">
<title>Node15</title>
<g id="a_Node000015"><a xlink:title=" ">
<polygon fill="#e0e0e0" stroke="#999999" points="591.88,-295.5 536.12,-295.5 536.12,-276.25 591.88,-276.25 591.88,-295.5"/>
<text xml:space="preserve" text-anchor="middle" x="564" y="-282" font-family="Helvetica,sans-Serif" font-size="10.00">algorithm</text>
</a>
</g>
</g>
<!-- Node13&#45;&gt;Node15 -->
<g id="edge15_Node000013_Node000015" class="edge">
<title>Node13&#45;&gt;Node15</title>
<g id="a_edge15_Node000013_Node000015"><a xlink:title=" ">
<path fill="none" stroke="#63b8ff" d="M432.8,-331.09C458.45,-322.45 497.39,-309.32 526.19,-299.62"/>
<polygon fill="#63b8ff" stroke="#63b8ff" points="527.27,-302.95 535.63,-296.44 525.04,-296.31 527.27,-302.95"/>
</a>
</g>
</g>
<!-- Node16 -->
<g id="Node000016" class="node">
<title>Node16</title>
<g id="a_Node000016"><a xlink:title=" ">
<polygon fill="#e0e0e0" stroke="#999999" points="671.88,-295.5 610.12,-295.5 610.12,-276.25 671.88,-276.25 671.88,-295.5"/>
<text xml:space="preserve" text-anchor="middle" x="641" y="-282" font-family="Helvetica,sans-Serif" font-size="10.00">type_traits</text>
</a>
</g>
</g>
<!-- Node13&#45;&gt;Node16 -->
<g id="edge16_Node000013_Node000016" class="edge">
<title>Node13&#45;&gt;Node16</title>
<g id="a_edge16_Node000013_Node000016"><a xlink:title=" ">
<path fill="none" stroke="#63b8ff" d="M446.13,-331.03C488.61,-321.41 555.38,-306.28 598.67,-296.47"/>
<polygon fill="#63b8ff" stroke="#63b8ff" points="599.23,-299.93 608.21,-294.31 597.68,-293.1 599.23,-299.93"/>
</a>
</g>
</g>
<!-- Node17 -->
<g id="Node000017" class="node">
<title>Node17</title>
<g id="a_Node000017"><a xlink:href="_acceptance_8hh.html" target="_top" xlink:title=" ">
<polygon fill="white" stroke="#666666" points="283,-295.5 177,-295.5 177,-276.25 283,-276.25 283,-295.5"/>
<text xml:space="preserve" text-anchor="middle" x="230" y="-282" font-family="Helvetica,sans-Serif" font-size="10.00">Pipal/Acceptance.hh</text>
</a>
</g>
</g>
<!-- Node13&#45;&gt;Node17 -->
<g id="edge18_Node000013_Node000017" class="edge">
<title>Node13&#45;&gt;Node17</title>
<g id="a_edge18_Node000013_Node000017"><a xlink:title=" ">
<path fill="none" stroke="#63b8ff" d="M376.14,-331.09C347.19,-322.33 303.05,-308.98 270.85,-299.23"/>
<polygon fill="#63b8ff" stroke="#63b8ff" points="272.04,-295.94 261.45,-296.39 270.01,-302.64 272.04,-295.94"/>
</a>
</g>
</g>
<!-- Node18 -->
<g id="Node000018" class="node">
<title>Node18</title>
<g id="a_Node000018"><a xlink:href="_iterate_8hh.html" target="_top" xlink:title=" ">
<polygon fill="white" stroke="#666666" points="221,-185 139,-185 139,-165.75 221,-165.75 221,-185"/>
<text xml:space="preserve" text-anchor="middle" x="180" y="-171.5" font-family="Helvetica,sans-Serif" font-size="10.00">Pipal/Iterate.hh</text>
</a>
</g>
</g>
<!-- Node13&#45;&gt;Node18 -->
<g id="edge35_Node000013_Node000018" class="edge">
<title>Node13&#45;&gt;Node18</title>
<g id="a_edge35_Node000013_Node000018"><a xlink:title=" ">
<path fill="none" stroke="#63b8ff" d="M364.97,-338.53C303.63,-335.18 192.57,-325.1 168,-295.5 144.63,-267.34 159.08,-221.58 170.38,-195.74"/>
<polygon fill="#63b8ff" stroke="#63b8ff" points="173.51,-197.32 174.56,-186.77 167.16,-194.36 173.51,-197.32"/>
</a>
</g>
</g>
<!-- Node20 -->
<g id="Node000020" class="node">
<title>Node20</title>
<g id="a_Node000020"><a xlink:href="_counter_8hh.html" target="_top" xlink:title=" ">
<polygon fill="white" stroke="#666666" points="224,-129.75 136,-129.75 136,-110.5 224,-110.5 224,-129.75"/>
<text xml:space="preserve" text-anchor="middle" x="180" y="-116.25" font-family="Helvetica,sans-Serif" font-size="10.00">Pipal/Counter.hh</text>
</a>
</g>
</g>
<!-- Node13&#45;&gt;Node20 -->
<g id="edge29_Node000013_Node000020" class="edge">
<title>Node13&#45;&gt;Node20</title>
<g id="a_edge29_Node000013_Node000020"><a xlink:title=" ">
<path fill="none" stroke="#63b8ff" d="M365.11,-338.22C301.87,-334.43 184.53,-323.69 155,-295.5 112.52,-254.95 106,-219.35 130,-165.75 135.21,-154.12 145.11,-144.28 154.73,-136.82"/>
<polygon fill="#63b8ff" stroke="#63b8ff" points="156.73,-139.7 162.85,-131.05 152.67,-133.99 156.73,-139.7"/>
</a>
</g>
</g>
<!-- Node21 -->
<g id="Node000021" class="node">
<title>Node21</title>
<g id="a_Node000021"><a xlink:href="_direction_8hh.html" target="_top" xlink:title=" ">
<polygon fill="white" stroke="#666666" points="339.62,-240.25 246.38,-240.25 246.38,-221 339.62,-221 339.62,-240.25"/>
<text xml:space="preserve" text-anchor="middle" x="293" y="-226.75" font-family="Helvetica,sans-Serif" font-size="10.00">Pipal/Direction.hh</text>
</a>
</g>
</g>
<!-- Node13&#45;&gt;Node21 -->
<g id="edge31_Node000013_Node000021" class="edge">
<title>Node13&#45;&gt;Node21</title>
<g id="a_edge31_Node000013_Node000021"><a xlink:title=" ">
<path fill="none" stroke="#63b8ff" d="M394.97,-331.2C384.25,-322.4 367.64,-308.43 354,-295.5 337.91,-280.24 320.53,-261.84 308.45,-248.71"/>
<polygon fill="#63b8ff" stroke="#63b8ff" points="311.37,-246.71 302.04,-241.69 306.2,-251.43 311.37,-246.71"/>
</a>
</g>
</g>
<!-- Node22 -->
<g id="Node000022" class="node">
<title>Node22</title>
<g id="a_Node000022"><a xlink:href="_input_8hh.html" target="_top" xlink:title=" ">
<polygon fill="white" stroke="#666666" points="76,-185 0,-185 0,-165.75 76,-165.75 76,-185"/>
<text xml:space="preserve" text-anchor="middle" x="38" y="-171.5" font-family="Helvetica,sans-Serif" font-size="10.00">Pipal/Input.hh</text>
</a>
</g>
</g>
<!-- Node13&#45;&gt;Node22 -->
<g id="edge32_Node000013_Node000022" class="edge">
<title>Node13&#45;&gt;Node22</title>
<g id="a_edge32_Node000013_Node000022"><a xlink:title=" ">
<path fill="none" stroke="#63b8ff" d="M365.16,-339.21C289.74,-336.74 132.46,-327.76 90,-295.5 58.2,-271.34 45.52,-223.65 40.72,-196.52"/>
<polygon fill="#63b8ff" stroke="#63b8ff" points="44.21,-196.18 39.22,-186.84 37.29,-197.26 44.21,-196.18"/>
</a>
</g>
</g>
<!-- Node23 -->
<g id="Node000023" class="node">
<title>Node23</title>
<g id="a_Node000023"><a xlink:href="_output_8hh.html" target="_top" xlink:title=" ">
<polygon fill="white" stroke="#666666" points="517.75,-295.5 434.25,-295.5 434.25,-276.25 517.75,-276.25 517.75,-295.5"/>
<text xml:space="preserve" text-anchor="middle" x="476" y="-282" font-family="Helvetica,sans-Serif" font-size="10.00">Pipal/Output.hh</text>
</a>
</g>
</g>
<!-- Node13&#45;&gt;Node23 -->
<g id="edge36_Node000013_Node000023" class="edge">
<title>Node13&#45;&gt;Node23</title>
<g id="a_edge36_Node000013_Node000023"><a xlink:title=" ">
<path fill="none" stroke="#63b8ff" d="M417.87,-331.09C428.09,-323.32 443.07,-311.92 455.26,-302.65"/>
<polygon fill="#63b8ff" stroke="#63b8ff" points="457.26,-305.53 463.1,-296.69 453.02,-299.96 457.26,-305.53"/>
</a>
</g>
</g>
<!-- Node17&#45;&gt;Node3 -->
<g id="edge19_Node000017_Node000003" class="edge">
<title>Node17&#45;&gt;Node3</title>
<g id="a_edge19_Node000017_Node000003"><a xlink:title=" ">
<path fill="none" stroke="#63b8ff" d="M229.58,-275.86C229.3,-263.18 229.91,-239.55 237,-221 258.57,-164.58 305.74,-109.82 331.09,-82.99"/>
<polygon fill="#63b8ff" stroke="#63b8ff" points="333.32,-85.72 337.73,-76.08 328.28,-80.86 333.32,-85.72"/>
</a>
</g>
</g>
<!-- Node17&#45;&gt;Node18 -->
<g id="edge20_Node000017_Node000018" class="edge">
<title>Node17&#45;&gt;Node18</title>
<g id="a_edge20_Node000017_Node000018"><a xlink:title=" ">
<path fill="none" stroke="#63b8ff" d="M224.16,-275.89C218.56,-267.05 210.08,-253.05 204,-240.25 197.14,-225.82 190.85,-208.86 186.43,-196.04"/>
<polygon fill="#63b8ff" stroke="#63b8ff" points="189.79,-195.05 183.29,-186.68 183.15,-197.28 189.79,-195.05"/>
</a>
</g>
</g>
<!-- Node17&#45;&gt;Node21 -->
<g id="edge26_Node000017_Node000021" class="edge">
<title>Node17&#45;&gt;Node21</title>
<g id="a_edge26_Node000017_Node000021"><a xlink:title=" ">
<path fill="none" stroke="#63b8ff" d="M240.69,-275.84C249.7,-268.22 262.83,-257.12 273.68,-247.95"/>
<polygon fill="#63b8ff" stroke="#63b8ff" points="275.94,-250.63 281.31,-241.5 271.42,-245.28 275.94,-250.63"/>
</a>
</g>
</g>
<!-- Node18&#45;&gt;Node3 -->
<g id="edge21_Node000018_Node000003" class="edge">
<title>Node18&#45;&gt;Node3</title>
<g id="a_edge21_Node000018_Node000003"><a xlink:title=" ">
<path fill="none" stroke="#63b8ff" d="M193.27,-165.35C211.71,-152.85 246.19,-129.65 276,-110.5 291.73,-100.39 309.6,-89.32 323.6,-80.73"/>
<polygon fill="#63b8ff" stroke="#63b8ff" points="325.02,-83.96 331.73,-75.76 321.37,-77.99 325.02,-83.96"/>
</a>
</g>
</g>
<!-- Node19 -->
<g id="Node000019" class="node">
<title>Node19</title>
<g id="a_Node000019"><a xlink:href="_parameter_8hh.html" target="_top" xlink:title=" ">
<polygon fill="white" stroke="#666666" points="118.25,-129.75 19.75,-129.75 19.75,-110.5 118.25,-110.5 118.25,-129.75"/>
<text xml:space="preserve" text-anchor="middle" x="69" y="-116.25" font-family="Helvetica,sans-Serif" font-size="10.00">Pipal/Parameter.hh</text>
</a>
</g>
</g>
<!-- Node18&#45;&gt;Node19 -->
<g id="edge22_Node000018_Node000019" class="edge">
<title>Node18&#45;&gt;Node19</title>
<g id="a_edge22_Node000018_Node000019"><a xlink:title=" ">
<path fill="none" stroke="#63b8ff" d="M161.17,-165.34C143.95,-157.08 118.2,-144.73 98.29,-135.18"/>
<polygon fill="#63b8ff" stroke="#63b8ff" points="99.82,-132.03 89.29,-130.86 96.79,-138.34 99.82,-132.03"/>
</a>
</g>
</g>
<!-- Node18&#45;&gt;Node20 -->
<g id="edge24_Node000018_Node000020" class="edge">
<title>Node18&#45;&gt;Node20</title>
<g id="a_edge24_Node000018_Node000020"><a xlink:title=" ">
<path fill="none" stroke="#63b8ff" d="M180,-165.58C180,-159.07 180,-149.92 180,-141.62"/>
<polygon fill="#63b8ff" stroke="#63b8ff" points="183.5,-141.62 180,-131.62 176.5,-141.62 183.5,-141.62"/>
</a>
</g>
</g>
<!-- Node19&#45;&gt;Node3 -->
<g id="edge23_Node000019_Node000003" class="edge">
<title>Node19&#45;&gt;Node3</title>
<g id="a_edge23_Node000019_Node000003"><a xlink:title=" ">
<path fill="none" stroke="#63b8ff" d="M116.64,-110.03C166.56,-100.5 244.73,-85.58 296.17,-75.77"/>
<polygon fill="#63b8ff" stroke="#63b8ff" points="296.7,-79.23 305.87,-73.92 295.39,-72.35 296.7,-79.23"/>
</a>
</g>
</g>
<!-- Node20&#45;&gt;Node3 -->
<g id="edge25_Node000020_Node000003" class="edge">
<title>Node20&#45;&gt;Node3</title>
<g id="a_edge25_Node000020_Node000003"><a xlink:title=" ">
<path fill="none" stroke="#63b8ff" d="M208.5,-110.09C236.01,-101.37 277.91,-88.09 308.61,-78.36"/>
<polygon fill="#63b8ff" stroke="#63b8ff" points="309.44,-81.77 317.92,-75.41 307.33,-75.09 309.44,-81.77"/>
</a>
</g>
</g>
<!-- Node21&#45;&gt;Node3 -->
<g id="edge27_Node000021_Node000003" class="edge">
<title>Node21&#45;&gt;Node3</title>
<g id="a_edge27_Node000021_Node000003"><a xlink:title=" ">
<path fill="none" stroke="#63b8ff" d="M295.96,-220.82C304.5,-195.39 329.37,-121.35 341.37,-85.62"/>
<polygon fill="#63b8ff" stroke="#63b8ff" points="344.68,-86.75 344.55,-76.16 338.04,-84.52 344.68,-86.75"/>
</a>
</g>
</g>
<!-- Node21&#45;&gt;Node18 -->
<g id="edge28_Node000021_Node000018" class="edge">
<title>Node21&#45;&gt;Node18</title>
<g id="a_edge28_Node000021_Node000018"><a xlink:title=" ">
<path fill="none" stroke="#63b8ff" d="M273.83,-220.59C256.22,-212.29 229.84,-199.86 209.54,-190.29"/>
<polygon fill="#63b8ff" stroke="#63b8ff" points="211.17,-187.19 200.63,-186.1 208.19,-193.53 211.17,-187.19"/>
</a>
</g>
</g>
<!-- Node22&#45;&gt;Node3 -->
<g id="edge33_Node000022_Node000003" class="edge">
<title>Node22&#45;&gt;Node3</title>
<g id="a_edge33_Node000022_Node000003"><a xlink:title=" ">
<path fill="none" stroke="#63b8ff" d="M28.92,-165.58C16.3,-152.31 -3.44,-126.98 11,-110.5 29.49,-89.4 206.47,-75.02 296.27,-69.02"/>
<polygon fill="#63b8ff" stroke="#63b8ff" points="296.29,-72.53 306.04,-68.38 295.84,-65.55 296.29,-72.53"/>
</a>
</g>
</g>
<!-- Node22&#45;&gt;Node19 -->
<g id="edge34_Node000022_Node000019" class="edge">
<title>Node22&#45;&gt;Node19</title>
<g id="a_edge34_Node000022_Node000019"><a xlink:title=" ">
<path fill="none" stroke="#63b8ff" d="M43.12,-165.58C47.18,-158.61 52.99,-148.62 58.09,-139.87"/>
<polygon fill="#63b8ff" stroke="#63b8ff" points="61,-141.82 63.01,-131.42 54.95,-138.3 61,-141.82"/>
</a>
</g>
</g>
<!-- Node23&#45;&gt;Node3 -->
<g id="edge41_Node000023_Node000003" class="edge">
<title>Node23&#45;&gt;Node3</title>
<g id="a_edge41_Node000023_Node000003"><a xlink:title=" ">
<path fill="none" stroke="#63b8ff" d="M471.78,-275.89C459.32,-249.65 421.14,-171.2 382,-110.5 376.07,-101.31 368.8,-91.59 362.5,-83.58"/>
<polygon fill="#63b8ff" stroke="#63b8ff" points="365.4,-81.59 356.41,-75.98 359.94,-85.97 365.4,-81.59"/>
</a>
</g>
</g>
<!-- Node23&#45;&gt;Node5 -->
<g id="edge39_Node000023_Node000005" class="edge">
<title>Node23&#45;&gt;Node5</title>
<g id="a_edge39_Node000023_Node000005"><a xlink:title=" ">
<path fill="none" stroke="#63b8ff" d="M513.85,-275.76C546.85,-267.11 591.36,-253.48 604,-240.25 624.45,-218.83 623,-205.99 623,-176.38 623,-176.38 623,-176.38 623,-119.12 623,-88.25 618.54,-52.68 615.3,-30.93"/>
<polygon fill="#63b8ff" stroke="#63b8ff" points="618.76,-30.43 613.76,-21.09 611.84,-31.51 618.76,-30.43"/>
</a>
</g>
</g>
<!-- Node23&#45;&gt;Node14 -->
<g id="edge38_Node000023_Node000014" class="edge">
<title>Node23&#45;&gt;Node14</title>
<g id="a_edge38_Node000023_Node000014"><a xlink:title=" ">
<path fill="none" stroke="#63b8ff" d="M510.78,-275.84C548.04,-266.16 606.93,-250.86 644.76,-241.04"/>
<polygon fill="#63b8ff" stroke="#63b8ff" points="645.51,-244.46 654.31,-238.56 643.75,-237.68 645.51,-244.46"/>
</a>
</g>
</g>
<!-- Node24 -->
<g id="Node000024" class="node">
<title>Node24</title>
<g id="a_Node000024"><a xlink:title=" ">
<polygon fill="#e0e0e0" stroke="#999999" points="594.75,-240.25 541.25,-240.25 541.25,-221 594.75,-221 594.75,-240.25"/>
<text xml:space="preserve" text-anchor="middle" x="568" y="-226.75" font-family="Helvetica,sans-Serif" font-size="10.00">iostream</text>
</a>
</g>
</g>
<!-- Node23&#45;&gt;Node24 -->
<g id="edge37_Node000023_Node000024" class="edge">
<title>Node23&#45;&gt;Node24</title>
<g id="a_edge37_Node000023_Node000024"><a xlink:title=" ">
<path fill="none" stroke="#63b8ff" d="M491.61,-275.84C505.62,-267.73 526.43,-255.68 542.8,-246.21"/>
<polygon fill="#63b8ff" stroke="#63b8ff" points="544.11,-249.5 551.01,-241.46 540.6,-243.44 544.11,-249.5"/>
</a>
</g>
</g>
<!-- Node25 -->
<g id="Node000025" class="node">
<title>Node25</title>
<g id="a_Node000025"><a xlink:title=" ">
<polygon fill="#e0e0e0" stroke="#999999" points="523.62,-240.25 472.38,-240.25 472.38,-221 523.62,-221 523.62,-240.25"/>
<text xml:space="preserve" text-anchor="middle" x="498" y="-226.75" font-family="Helvetica,sans-Serif" font-size="10.00">ostream</text>
</a>
</g>
</g>
<!-- Node23&#45;&gt;Node25 -->
<g id="edge40_Node000023_Node000025" class="edge">
<title>Node23&#45;&gt;Node25</title>
<g id="a_edge40_Node000023_Node000025"><a xlink:title=" ">
<path fill="none" stroke="#63b8ff" d="M479.63,-276.08C482.42,-269.34 486.37,-259.77 489.9,-251.24"/>
<polygon fill="#63b8ff" stroke="#63b8ff" points="493.13,-252.59 493.71,-242.01 486.66,-249.91 493.13,-252.59"/>
</a>
</g>
</g>
</g>
</svg>
