<?xml version="1.0" encoding="UTF-8" standalone="no"?>
<!DOCTYPE svg PUBLIC "-//W3C//DTD SVG 1.1//EN"
 "http://www.w3.org/Graphics/SVG/1.1/DTD/svg11.dtd">
<!-- Generated by graphviz version 14.0.2 (20251019.1705)
 -->
<!-- Title: include/Pipal/Problem.hh Pages: 1 -->
<svg width="624pt" height="414pt"
 viewBox="0.00 0.00 624.00 414.00" xmlns="http://www.w3.org/2000/svg" xmlns:xlink="http://www.w3.org/1999/xlink">
<g id="graph0" class="graph" transform="scale(1 1) rotate(0) translate(4 410)">
<title>include/Pipal/Problem.hh</title>
<!-- Node1 -->
<g id="Node000001" class="node">
<title>Node1</title>
<g id="a_Node000001"><a xlink:title=" ">
<polygon fill="#999999" stroke="#666666" points="421,-406 297,-406 297,-386.75 421,-386.75 421,-406"/>
<text xml:space="preserve" text-anchor="middle" x="359" y="-392.5" font-family="Helvetica,sans-Serif" font-size="10.00">include/Pipal/Problem.hh</text>
</a>
</g>
</g>
<!-- Node2 -->
<g id="Node000002" class="node">
<title>Node2</title>
<g id="a_Node000002"><a xlink:href="_pipal_8hh.html" target="_top" xlink:title=" ">
<polygon fill="white" stroke="#666666" points="196.5,-19.25 111.5,-19.25 111.5,0 196.5,0 196.5,-19.25"/>
<text xml:space="preserve" text-anchor="middle" x="154" y="-5.75" font-family="Helvetica,sans-Serif" font-size="10.00">include/Pipal.hh</text>
</a>
</g>
</g>
<!-- Node1&#45;&gt;Node2 -->
<g id="edge1_Node000001_Node000002" class="edge">
<title>Node1&#45;&gt;Node2</title>
<g id="a_edge1_Node000001_Node000002"><a xlink:title=" ">
<path fill="none" stroke="#63b8ff" d="M285.71,-388.2C180.72,-375.85 0,-346.01 0,-286.88 0,-286.88 0,-286.88 0,-119.12 0,-62.71 69.92,-33.06 115.54,-19.72"/>
<polygon fill="#63b8ff" stroke="#63b8ff" points="285.04,-391.64 295.37,-389.3 285.84,-384.69 285.04,-391.64"/>
</a>
</g>
</g>
<!-- Node3 -->
<g id="Node000003" class="node">
<title>Node3</title>
<g id="a_Node000003"><a xlink:href="_solver_8hh.html" target="_top" xlink:title=" ">
<polygon fill="white" stroke="#666666" points="365.5,-74.5 250.5,-74.5 250.5,-55.25 365.5,-55.25 365.5,-74.5"/>
<text xml:space="preserve" text-anchor="middle" x="308" y="-61" font-family="Helvetica,sans-Serif" font-size="10.00">include/Pipal/Solver.hh</text>
</a>
</g>
</g>
<!-- Node1&#45;&gt;Node3 -->
<g id="edge2_Node000001_Node000003" class="edge">
<title>Node1&#45;&gt;Node3</title>
<g id="a_edge2_Node000001_Node000003"><a xlink:title=" ">
<path fill="none" stroke="#63b8ff" d="M432.64,-394.33C508.58,-388.89 616,-367.03 616,-286.88 616,-286.88 616,-286.88 616,-174.38 616,-130.25 579.84,-129.47 540,-110.5 484.45,-84.05 414.35,-73.27 365.82,-68.88"/>
<polygon fill="#63b8ff" stroke="#63b8ff" points="432.49,-390.84 422.72,-394.95 432.92,-397.82 432.49,-390.84"/>
</a>
</g>
</g>
<!-- Node4 -->
<g id="Node000004" class="node">
<title>Node4</title>
<g id="a_Node000004"><a xlink:href="_types_8hh.html" target="_top" xlink:title=" ">
<polygon fill="white" stroke="#666666" points="416.12,-350.75 301.88,-350.75 301.88,-331.5 416.12,-331.5 416.12,-350.75"/>
<text xml:space="preserve" text-anchor="middle" x="359" y="-337.25" font-family="Helvetica,sans-Serif" font-size="10.00">include/Pipal/Types.hh</text>
</a>
</g>
</g>
<!-- Node1&#45;&gt;Node4 -->
<g id="edge4_Node000001_Node000004" class="edge">
<title>Node1&#45;&gt;Node4</title>
<g id="a_edge4_Node000001_Node000004"><a xlink:title=" ">
<path fill="none" stroke="#63b8ff" d="M352.44,-375.42C351.95,-367.05 352.4,-357.75 353.79,-351.11"/>
<polygon fill="#63b8ff" stroke="#63b8ff" points="348.94,-375.59 353.65,-385.08 355.88,-374.72 348.94,-375.59"/>
</a>
</g>
</g>
<!-- Node3&#45;&gt;Node2 -->
<g id="edge3_Node000003_Node000002" class="edge">
<title>Node3&#45;&gt;Node2</title>
<g id="a_edge3_Node000003_Node000002"><a xlink:title=" ">
<path fill="none" stroke="#63b8ff" d="M271.29,-51.18C243.25,-41.49 205.3,-28.36 180.25,-19.7"/>
<polygon fill="#63b8ff" stroke="#63b8ff" points="269.85,-54.39 280.45,-54.35 272.14,-47.77 269.85,-54.39"/>
</a>
</g>
</g>
<!-- Node4&#45;&gt;Node1 -->
<g id="edge24_Node000004_Node000001" class="edge">
<title>Node4&#45;&gt;Node1</title>
<g id="a_edge24_Node000004_Node000001"><a xlink:title=" ">
<path fill="none" stroke="#63b8ff" d="M365.57,-362.32C366.04,-370.71 365.58,-379.99 364.17,-386.58"/>
<polygon fill="#63b8ff" stroke="#63b8ff" points="369.07,-362.12 364.39,-352.61 362.12,-362.96 369.07,-362.12"/>
</a>
</g>
</g>
<!-- Node4&#45;&gt;Node3 -->
<g id="edge25_Node000004_Node000003" class="edge">
<title>Node4&#45;&gt;Node3</title>
<g id="a_edge25_Node000004_Node000003"><a xlink:title=" ">
<path fill="none" stroke="#63b8ff" d="M427.85,-334.5C492.06,-325.04 578,-299.67 578,-231.62 578,-231.62 578,-231.62 578,-174.38 578,-130.59 542.13,-130.14 503,-110.5 459.86,-88.84 406.08,-77.55 365.93,-71.75"/>
<polygon fill="#63b8ff" stroke="#63b8ff" points="427.48,-331.02 418.04,-335.84 428.42,-337.96 427.48,-331.02"/>
</a>
</g>
</g>
<!-- Node5 -->
<g id="Node000005" class="node">
<title>Node5</title>
<g id="a_Node000005"><a xlink:href="_acceptance_8hh.html" target="_top" xlink:title=" ">
<polygon fill="white" stroke="#666666" points="475.88,-129.75 336.12,-129.75 336.12,-110.5 475.88,-110.5 475.88,-129.75"/>
<text xml:space="preserve" text-anchor="middle" x="406" y="-116.25" font-family="Helvetica,sans-Serif" font-size="10.00">include/Pipal/Acceptance.hh</text>
</a>
</g>
</g>
<!-- Node4&#45;&gt;Node5 -->
<g id="edge5_Node000004_Node000005" class="edge">
<title>Node4&#45;&gt;Node5</title>
<g id="a_edge5_Node000004_Node000005"><a xlink:title=" ">
<path fill="none" stroke="#63b8ff" d="M377.32,-323.05C385.03,-315.19 393.66,-305.42 400,-295.5 414.33,-273.09 417.79,-266.33 423,-240.25 424.68,-231.86 424.05,-229.49 423,-221 420.98,-204.63 417.03,-201.21 414,-185 410.34,-165.45 407.9,-142.2 406.76,-129.85"/>
<polygon fill="#63b8ff" stroke="#63b8ff" points="374.96,-320.46 370.27,-329.96 379.86,-325.47 374.96,-320.46"/>
</a>
</g>
</g>
<!-- Node6 -->
<g id="Node000006" class="node">
<title>Node6</title>
<g id="a_Node000006"><a xlink:href="_counter_8hh.html" target="_top" xlink:title=" ">
<polygon fill="white" stroke="#666666" points="375.88,-295.5 254.12,-295.5 254.12,-276.25 375.88,-276.25 375.88,-295.5"/>
<text xml:space="preserve" text-anchor="middle" x="315" y="-282" font-family="Helvetica,sans-Serif" font-size="10.00">include/Pipal/Counter.hh</text>
</a>
</g>
</g>
<!-- Node4&#45;&gt;Node6 -->
<g id="edge7_Node000004_Node000006" class="edge">
<title>Node4&#45;&gt;Node6</title>
<g id="a_edge7_Node000004_Node000006"><a xlink:title=" ">
<path fill="none" stroke="#63b8ff" d="M344.42,-322.47C337.05,-313.56 328.42,-303.12 322.42,-295.86"/>
<polygon fill="#63b8ff" stroke="#63b8ff" points="341.7,-324.69 350.77,-330.17 347.1,-320.23 341.7,-324.69"/>
</a>
</g>
</g>
<!-- Node7 -->
<g id="Node000007" class="node">
<title>Node7</title>
<g id="a_Node000007"><a xlink:href="_iterate_8hh.html" target="_top" xlink:title=" ">
<polygon fill="white" stroke="#666666" points="413.88,-240.25 298.12,-240.25 298.12,-221 413.88,-221 413.88,-240.25"/>
<text xml:space="preserve" text-anchor="middle" x="356" y="-226.75" font-family="Helvetica,sans-Serif" font-size="10.00">include/Pipal/Iterate.hh</text>
</a>
</g>
</g>
<!-- Node4&#45;&gt;Node7 -->
<g id="edge18_Node000004_Node000007" class="edge">
<title>Node4&#45;&gt;Node7</title>
<g id="a_edge18_Node000004_Node000007"><a xlink:title=" ">
<path fill="none" stroke="#63b8ff" d="M373.31,-322.26C381.67,-309.63 389.72,-292.19 385,-276.25 380.96,-262.61 371.28,-249.23 364.22,-240.74"/>
<polygon fill="#63b8ff" stroke="#63b8ff" points="370.73,-319.86 367.68,-330.01 376.39,-323.98 370.73,-319.86"/>
</a>
</g>
</g>
<!-- Node8 -->
<g id="Node000008" class="node">
<title>Node8</title>
<g id="a_Node000008"><a xlink:href="_direction_8hh.html" target="_top" xlink:title=" ">
<polygon fill="white" stroke="#666666" points="549.5,-185 422.5,-185 422.5,-165.75 549.5,-165.75 549.5,-185"/>
<text xml:space="preserve" text-anchor="middle" x="486" y="-171.5" font-family="Helvetica,sans-Serif" font-size="10.00">include/Pipal/Direction.hh</text>
</a>
</g>
</g>
<!-- Node4&#45;&gt;Node8 -->
<g id="edge15_Node000004_Node000008" class="edge">
<title>Node4&#45;&gt;Node8</title>
<g id="a_edge15_Node000004_Node000008"><a xlink:title=" ">
<path fill="none" stroke="#63b8ff" d="M408.2,-327.2C425.53,-320.38 443.74,-310.26 456,-295.5 483.66,-262.2 486.32,-206.8 486.23,-185.3"/>
<polygon fill="#63b8ff" stroke="#63b8ff" points="407.22,-323.83 399,-330.52 409.59,-330.42 407.22,-323.83"/>
</a>
</g>
</g>
<!-- Node9 -->
<g id="Node000009" class="node">
<title>Node9</title>
<g id="a_Node000009"><a xlink:href="_input_8hh.html" target="_top" xlink:title=" ">
<polygon fill="white" stroke="#666666" points="150.88,-240.25 41.12,-240.25 41.12,-221 150.88,-221 150.88,-240.25"/>
<text xml:space="preserve" text-anchor="middle" x="96" y="-226.75" font-family="Helvetica,sans-Serif" font-size="10.00">include/Pipal/Input.hh</text>
</a>
</g>
</g>
<!-- Node4&#45;&gt;Node9 -->
<g id="edge16_Node000004_Node000009" class="edge">
<title>Node4&#45;&gt;Node9</title>
<g id="a_edge16_Node000004_Node000009"><a xlink:title=" ">
<path fill="none" stroke="#63b8ff" d="M290.14,-339.96C210.49,-338.13 86.5,-329.68 57,-295.5 41.8,-277.89 66.93,-253.68 83.41,-240.71"/>
<polygon fill="#63b8ff" stroke="#63b8ff" points="289.97,-343.46 300.04,-340.15 290.11,-336.46 289.97,-343.46"/>
</a>
</g>
</g>
<!-- Node10 -->
<g id="Node000010" class="node">
<title>Node10</title>
<g id="a_Node000010"><a xlink:href="_output_8hh.html" target="_top" xlink:title=" ">
<polygon fill="white" stroke="#666666" points="241.62,-185 124.38,-185 124.38,-165.75 241.62,-165.75 241.62,-185"/>
<text xml:space="preserve" text-anchor="middle" x="183" y="-171.5" font-family="Helvetica,sans-Serif" font-size="10.00">include/Pipal/Output.hh</text>
</a>
</g>
</g>
<!-- Node4&#45;&gt;Node10 -->
<g id="edge19_Node000004_Node000010" class="edge">
<title>Node4&#45;&gt;Node10</title>
<g id="a_edge19_Node000004_Node000010"><a xlink:title=" ">
<path fill="none" stroke="#63b8ff" d="M304.93,-327.7C284.34,-320.87 261.82,-310.61 245,-295.5 209.62,-263.71 191.26,-206.94 185.26,-185.19"/>
<polygon fill="#63b8ff" stroke="#63b8ff" points="303.76,-331 314.35,-330.61 305.83,-324.31 303.76,-331"/>
</a>
</g>
</g>
<!-- Node11 -->
<g id="Node000011" class="node">
<title>Node11</title>
<g id="a_Node000011"><a xlink:href="_parameter_8hh.html" target="_top" xlink:title=" ">
<polygon fill="white" stroke="#666666" points="198.12,-295.5 65.88,-295.5 65.88,-276.25 198.12,-276.25 198.12,-295.5"/>
<text xml:space="preserve" text-anchor="middle" x="132" y="-282" font-family="Helvetica,sans-Serif" font-size="10.00">include/Pipal/Parameter.hh</text>
</a>
</g>
</g>
<!-- Node4&#45;&gt;Node11 -->
<g id="edge21_Node000004_Node000011" class="edge">
<title>Node4&#45;&gt;Node11</title>
<g id="a_edge21_Node000004_Node000011"><a xlink:title=" ">
<path fill="none" stroke="#63b8ff" d="M309.22,-328.45C267.51,-318.66 208.83,-304.9 170.6,-295.93"/>
<polygon fill="#63b8ff" stroke="#63b8ff" points="308.23,-331.81 318.76,-330.69 309.83,-324.99 308.23,-331.81"/>
</a>
</g>
</g>
<!-- Node5&#45;&gt;Node3 -->
<g id="edge6_Node000005_Node000003" class="edge">
<title>Node5&#45;&gt;Node3</title>
<g id="a_edge6_Node000005_Node000003"><a xlink:title=" ">
<path fill="none" stroke="#63b8ff" d="M379.75,-104.86C362.26,-95.36 339.8,-83.15 324.71,-74.95"/>
<polygon fill="#63b8ff" stroke="#63b8ff" points="377.59,-107.67 388.05,-109.37 380.93,-101.52 377.59,-107.67"/>
</a>
</g>
</g>
<!-- Node6&#45;&gt;Node3 -->
<g id="edge14_Node000006_Node000003" class="edge">
<title>Node6&#45;&gt;Node3</title>
<g id="a_edge14_Node000006_Node000003"><a xlink:title=" ">
<path fill="none" stroke="#63b8ff" d="M301.41,-266.59C296.48,-258.87 291.51,-249.53 289,-240.25 272.33,-178.51 295.79,-100.72 304.77,-74.76"/>
<polygon fill="#63b8ff" stroke="#63b8ff" points="298.45,-268.46 307.01,-274.7 304.21,-264.48 298.45,-268.46"/>
</a>
</g>
</g>
<!-- Node6&#45;&gt;Node7 -->
<g id="edge8_Node000006_Node000007" class="edge">
<title>Node6&#45;&gt;Node7</title>
<g id="a_edge8_Node000006_Node000007"><a xlink:title=" ">
<path fill="none" stroke="#63b8ff" d="M328.59,-267.22C335.46,-258.31 343.49,-247.87 349.08,-240.61"/>
<polygon fill="#63b8ff" stroke="#63b8ff" points="326.02,-264.82 322.69,-274.88 331.57,-269.09 326.02,-264.82"/>
</a>
</g>
</g>
<!-- Node7&#45;&gt;Node3 -->
<g id="edge13_Node000007_Node000003" class="edge">
<title>Node7&#45;&gt;Node3</title>
<g id="a_edge13_Node000007_Node000003"><a xlink:title=" ">
<path fill="none" stroke="#63b8ff" d="M350.23,-209.94C339.77,-174.25 318.07,-100.21 310.59,-74.72"/>
<polygon fill="#63b8ff" stroke="#63b8ff" points="346.82,-210.76 352.99,-219.37 353.54,-208.79 346.82,-210.76"/>
</a>
</g>
</g>
<!-- Node7&#45;&gt;Node5 -->
<g id="edge9_Node000007_Node000005" class="edge">
<title>Node7&#45;&gt;Node5</title>
<g id="a_edge9_Node000007_Node000005"><a xlink:title=" ">
<path fill="none" stroke="#63b8ff" d="M362.43,-209.96C366.85,-197.14 373.14,-180.18 380,-165.75 386.08,-152.95 394.56,-138.95 400.16,-130.11"/>
<polygon fill="#63b8ff" stroke="#63b8ff" points="359.15,-208.72 359.29,-219.32 365.79,-210.95 359.15,-208.72"/>
</a>
</g>
</g>
<!-- Node7&#45;&gt;Node8 -->
<g id="edge10_Node000007_Node000008" class="edge">
<title>Node7&#45;&gt;Node8</title>
<g id="a_edge10_Node000007_Node000008"><a xlink:title=" ">
<path fill="none" stroke="#63b8ff" d="M388.57,-216.28C412.07,-206.66 443.17,-193.92 463.84,-185.45"/>
<polygon fill="#63b8ff" stroke="#63b8ff" points="387.38,-212.99 379.45,-220.02 390.03,-219.47 387.38,-212.99"/>
</a>
</g>
</g>
<!-- Node8&#45;&gt;Node3 -->
<g id="edge12_Node000008_Node000003" class="edge">
<title>Node8&#45;&gt;Node3</title>
<g id="a_edge12_Node000008_Node000003"><a xlink:title=" ">
<path fill="none" stroke="#63b8ff" d="M491.54,-154.22C494.04,-140.47 494.59,-122.62 485,-110.5 470.2,-91.8 411.62,-79.67 365.86,-72.84"/>
<polygon fill="#63b8ff" stroke="#63b8ff" points="488.14,-153.41 489.28,-163.94 494.96,-154.99 488.14,-153.41"/>
</a>
</g>
</g>
<!-- Node8&#45;&gt;Node5 -->
<g id="edge11_Node000008_Node000005" class="edge">
<title>Node8&#45;&gt;Node5</title>
<g id="a_edge11_Node000008_Node000005"><a xlink:title=" ">
<path fill="none" stroke="#63b8ff" d="M462.95,-159.03C448.93,-149.7 431.5,-138.1 419.64,-130.2"/>
<polygon fill="#63b8ff" stroke="#63b8ff" points="460.91,-161.88 471.17,-164.5 464.78,-156.05 460.91,-161.88"/>
</a>
</g>
</g>
<!-- Node9&#45;&gt;Node3 -->
<g id="edge17_Node000009_Node000003" class="edge">
<title>Node9&#45;&gt;Node3</title>
<g id="a_edge17_Node000009_Node000003"><a xlink:title=" ">
<path fill="none" stroke="#63b8ff" d="M97.84,-209.66C100,-196 104.72,-178.17 115,-165.75 156.37,-115.75 229.27,-87.85 272.66,-74.93"/>
<polygon fill="#63b8ff" stroke="#63b8ff" points="94.4,-208.91 96.66,-219.26 101.35,-209.76 94.4,-208.91"/>
</a>
</g>
</g>
<!-- Node10&#45;&gt;Node3 -->
<g id="edge20_Node000010_Node000003" class="edge">
<title>Node10&#45;&gt;Node3</title>
<g id="a_edge20_Node000010_Node000003"><a xlink:title=" ">
<path fill="none" stroke="#63b8ff" d="M201.14,-158.42C215.88,-145.47 237.24,-126.76 256,-110.5 270.38,-98.03 287.1,-83.72 297.62,-74.74"/>
<polygon fill="#63b8ff" stroke="#63b8ff" points="199.23,-155.44 194.03,-164.67 203.85,-160.69 199.23,-155.44"/>
</a>
</g>
</g>
<!-- Node11&#45;&gt;Node7 -->
<g id="edge23_Node000011_Node000007" class="edge">
<title>Node11&#45;&gt;Node7</title>
<g id="a_edge23_Node000011_Node000007"><a xlink:title=" ">
<path fill="none" stroke="#63b8ff" d="M181.38,-273.14C222.52,-263.36 280.27,-249.63 317.91,-240.68"/>
<polygon fill="#63b8ff" stroke="#63b8ff" points="180.64,-269.71 171.72,-275.43 182.26,-276.52 180.64,-269.71"/>
</a>
</g>
</g>
<!-- Node11&#45;&gt;Node9 -->
<g id="edge22_Node000011_Node000009" class="edge">
<title>Node11&#45;&gt;Node9</title>
<g id="a_edge22_Node000011_Node000009"><a xlink:title=" ">
<path fill="none" stroke="#63b8ff" d="M119.68,-266.65C113.74,-257.86 106.88,-247.71 102.07,-240.61"/>
<polygon fill="#63b8ff" stroke="#63b8ff" points="116.71,-268.5 125.21,-274.83 122.51,-264.58 116.71,-268.5"/>
</a>
</g>
</g>
</g>
</svg>
