<?xml version="1.0" encoding="UTF-8" standalone="no"?>
<!DOCTYPE svg PUBLIC "-//W3C//DTD SVG 1.1//EN"
 "http://www.w3.org/Graphics/SVG/1.1/DTD/svg11.dtd">
<!-- Generated by graphviz version 14.0.2 (20251019.1705)
 -->
<!-- Title: include/Pipal/Problem.hh Pages: 1 -->
<svg width="697pt" height="138pt"
 viewBox="0.00 0.00 697.00 138.00" xmlns="http://www.w3.org/2000/svg" xmlns:xlink="http://www.w3.org/1999/xlink">
<g id="graph0" class="graph" transform="scale(1 1) rotate(0) translate(4 133.75)">
<title>include/Pipal/Problem.hh</title>
<!-- Node1 -->
<g id="Node000001" class="node">
<title>Node1</title>
<g id="a_Node000001"><a xlink:title=" ">
<polygon fill="#999999" stroke="#666666" points="340,-129.75 216,-129.75 216,-110.5 340,-110.5 340,-129.75"/>
<text xml:space="preserve" text-anchor="middle" x="278" y="-116.25" font-family="Helvetica,sans-Serif" font-size="10.00">include/Pipal/Problem.hh</text>
</a>
</g>
</g>
<!-- Node2 -->
<g id="Node000002" class="node">
<title>Node2</title>
<g id="a_Node000002"><a xlink:href="_types_8hh.html" target="_top" xlink:title=" ">
<polygon fill="white" stroke="#666666" points="318.25,-74.5 237.75,-74.5 237.75,-55.25 318.25,-55.25 318.25,-74.5"/>
<text xml:space="preserve" text-anchor="middle" x="278" y="-61" font-family="Helvetica,sans-Serif" font-size="10.00">Pipal/Types.hh</text>
</a>
</g>
</g>
<!-- Node1&#45;&gt;Node2 -->
<g id="edge1_Node000001_Node000002" class="edge">
<title>Node1&#45;&gt;Node2</title>
<g id="a_edge1_Node000001_Node000002"><a xlink:title=" ">
<path fill="none" stroke="#63b8ff" d="M272.83,-110.33C271.42,-103.74 270.96,-94.46 271.43,-86.07"/>
<polygon fill="#63b8ff" stroke="#63b8ff" points="274.88,-86.71 272.61,-76.36 267.93,-85.87 274.88,-86.71"/>
</a>
</g>
</g>
<!-- Node2&#45;&gt;Node1 -->
<g id="edge11_Node000002_Node000001" class="edge">
<title>Node2&#45;&gt;Node1</title>
<g id="a_edge11_Node000002_Node000001"><a xlink:title=" ">
<path fill="none" stroke="#63b8ff" d="M283.21,-74.86C284.6,-81.5 285.05,-90.8 284.56,-99.17"/>
<polygon fill="#63b8ff" stroke="#63b8ff" points="281.12,-98.47 283.35,-108.83 288.06,-99.34 281.12,-98.47"/>
</a>
</g>
</g>
<!-- Node3 -->
<g id="Node000003" class="node">
<title>Node3</title>
<g id="a_Node000003"><a xlink:title=" ">
<polygon fill="#e0e0e0" stroke="#999999" points="58,-19.25 0,-19.25 0,0 58,0 58,-19.25"/>
<text xml:space="preserve" text-anchor="middle" x="29" y="-5.75" font-family="Helvetica,sans-Serif" font-size="10.00">functional</text>
</a>
</g>
</g>
<!-- Node2&#45;&gt;Node3 -->
<g id="edge2_Node000002_Node000003" class="edge">
<title>Node2&#45;&gt;Node3</title>
<g id="a_edge2_Node000002_Node000003"><a xlink:title=" ">
<path fill="none" stroke="#63b8ff" d="M237.51,-55.5C197.33,-47.14 133.69,-33.8 69.58,-19.79"/>
<polygon fill="#63b8ff" stroke="#63b8ff" points="70.44,-16.4 59.93,-17.68 68.95,-23.24 70.44,-16.4"/>
</a>
</g>
</g>
<!-- Node4 -->
<g id="Node000004" class="node">
<title>Node4</title>
<g id="a_Node000004"><a xlink:title=" ">
<polygon fill="#e0e0e0" stroke="#999999" points="116,-19.25 76,-19.25 76,0 116,0 116,-19.25"/>
<text xml:space="preserve" text-anchor="middle" x="96" y="-5.75" font-family="Helvetica,sans-Serif" font-size="10.00">string</text>
</a>
</g>
</g>
<!-- Node2&#45;&gt;Node4 -->
<g id="edge3_Node000002_Node000004" class="edge">
<title>Node2&#45;&gt;Node4</title>
<g id="a_edge3_Node000002_Node000004"><a xlink:title=" ">
<path fill="none" stroke="#63b8ff" d="M246.63,-54.78C217.93,-46.44 174,-33.66 127.25,-19.9"/>
<polygon fill="#63b8ff" stroke="#63b8ff" points="128.31,-16.57 117.73,-17.1 126.33,-23.28 128.31,-16.57"/>
</a>
</g>
</g>
<!-- Node5 -->
<g id="Node000005" class="node">
<title>Node5</title>
<g id="a_Node000005"><a xlink:title=" ">
<polygon fill="#e0e0e0" stroke="#999999" points="173.62,-19.25 134.38,-19.25 134.38,0 173.62,0 173.62,-19.25"/>
<text xml:space="preserve" text-anchor="middle" x="154" y="-5.75" font-family="Helvetica,sans-Serif" font-size="10.00">limits</text>
</a>
</g>
</g>
<!-- Node2&#45;&gt;Node5 -->
<g id="edge4_Node000002_Node000005" class="edge">
<title>Node2&#45;&gt;Node5</title>
<g id="a_edge4_Node000002_Node000005"><a xlink:title=" ">
<path fill="none" stroke="#63b8ff" d="M256.97,-54.84C237.01,-46.27 206.82,-33.31 184.28,-23.63"/>
<polygon fill="#63b8ff" stroke="#63b8ff" points="185.87,-20.5 175.3,-19.77 183.1,-26.93 185.87,-20.5"/>
</a>
</g>
</g>
<!-- Node6 -->
<g id="Node000006" class="node">
<title>Node6</title>
<g id="a_Node000006"><a xlink:title=" ">
<polygon fill="#e0e0e0" stroke="#999999" points="234.5,-19.25 191.5,-19.25 191.5,0 234.5,0 234.5,-19.25"/>
<text xml:space="preserve" text-anchor="middle" x="213" y="-5.75" font-family="Helvetica,sans-Serif" font-size="10.00">cmath</text>
</a>
</g>
</g>
<!-- Node2&#45;&gt;Node6 -->
<g id="edge5_Node000002_Node000006" class="edge">
<title>Node2&#45;&gt;Node6</title>
<g id="a_edge5_Node000002_Node000006"><a xlink:title=" ">
<path fill="none" stroke="#63b8ff" d="M266.97,-54.84C257.58,-47.15 243.85,-35.9 232.59,-26.68"/>
<polygon fill="#63b8ff" stroke="#63b8ff" points="234.99,-24.11 225.03,-20.48 230.55,-29.53 234.99,-24.11"/>
</a>
</g>
</g>
<!-- Node7 -->
<g id="Node000007" class="node">
<title>Node7</title>
<g id="a_Node000007"><a xlink:title=" ">
<polygon fill="#e0e0e0" stroke="#999999" points="303.25,-19.25 252.75,-19.25 252.75,0 303.25,0 303.25,-19.25"/>
<text xml:space="preserve" text-anchor="middle" x="278" y="-5.75" font-family="Helvetica,sans-Serif" font-size="10.00">numeric</text>
</a>
</g>
</g>
<!-- Node2&#45;&gt;Node7 -->
<g id="edge6_Node000002_Node000007" class="edge">
<title>Node2&#45;&gt;Node7</title>
<g id="a_edge6_Node000002_Node000007"><a xlink:title=" ">
<path fill="none" stroke="#63b8ff" d="M278,-55.08C278,-48.57 278,-39.42 278,-31.12"/>
<polygon fill="#63b8ff" stroke="#63b8ff" points="281.5,-31.12 278,-21.12 274.5,-31.12 281.5,-31.12"/>
</a>
</g>
</g>
<!-- Node8 -->
<g id="Node000008" class="node">
<title>Node8</title>
<g id="a_Node000008"><a xlink:title=" ">
<polygon fill="#e0e0e0" stroke="#999999" points="372.62,-19.25 321.38,-19.25 321.38,0 372.62,0 372.62,-19.25"/>
<text xml:space="preserve" text-anchor="middle" x="347" y="-5.75" font-family="Helvetica,sans-Serif" font-size="10.00">memory</text>
</a>
</g>
</g>
<!-- Node2&#45;&gt;Node8 -->
<g id="edge7_Node000002_Node000008" class="edge">
<title>Node2&#45;&gt;Node8</title>
<g id="a_edge7_Node000002_Node000008"><a xlink:title=" ">
<path fill="none" stroke="#63b8ff" d="M289.7,-54.84C299.78,-47.07 314.54,-35.67 326.56,-26.4"/>
<polygon fill="#63b8ff" stroke="#63b8ff" points="328.49,-29.33 334.27,-20.45 324.21,-23.79 328.49,-29.33"/>
</a>
</g>
</g>
<!-- Node9 -->
<g id="Node000009" class="node">
<title>Node9</title>
<g id="a_Node000009"><a xlink:title=" ">
<polygon fill="#e0e0e0" stroke="#999999" points="463.12,-19.25 390.88,-19.25 390.88,0 463.12,0 463.12,-19.25"/>
<text xml:space="preserve" text-anchor="middle" x="427" y="-5.75" font-family="Helvetica,sans-Serif" font-size="10.00">Eigen/Dense</text>
</a>
</g>
</g>
<!-- Node2&#45;&gt;Node9 -->
<g id="edge8_Node000002_Node000009" class="edge">
<title>Node2&#45;&gt;Node9</title>
<g id="a_edge8_Node000002_Node000009"><a xlink:title=" ">
<path fill="none" stroke="#63b8ff" d="M303.28,-54.84C327.36,-46.24 363.86,-33.19 390.98,-23.5"/>
<polygon fill="#63b8ff" stroke="#63b8ff" points="391.94,-26.87 400.17,-20.21 389.58,-20.28 391.94,-26.87"/>
</a>
</g>
</g>
<!-- Node10 -->
<g id="Node000010" class="node">
<title>Node10</title>
<g id="a_Node000010"><a xlink:title=" ">
<polygon fill="#e0e0e0" stroke="#999999" points="555.25,-19.25 480.75,-19.25 480.75,0 555.25,0 555.25,-19.25"/>
<text xml:space="preserve" text-anchor="middle" x="518" y="-5.75" font-family="Helvetica,sans-Serif" font-size="10.00">Eigen/Sparse</text>
</a>
</g>
</g>
<!-- Node2&#45;&gt;Node10 -->
<g id="edge9_Node000002_Node000010" class="edge">
<title>Node2&#45;&gt;Node10</title>
<g id="a_edge9_Node000002_Node000010"><a xlink:title=" ">
<path fill="none" stroke="#63b8ff" d="M318.71,-54.84C360.3,-45.62 424.87,-31.29 469.18,-21.46"/>
<polygon fill="#63b8ff" stroke="#63b8ff" points="469.77,-24.91 478.78,-19.33 468.26,-18.08 469.77,-24.91"/>
</a>
</g>
</g>
<!-- Node11 -->
<g id="Node000011" class="node">
<title>Node11</title>
<g id="a_Node000011"><a xlink:title=" ">
<polygon fill="#e0e0e0" stroke="#999999" points="688.88,-19.25 573.12,-19.25 573.12,0 688.88,0 688.88,-19.25"/>
<text xml:space="preserve" text-anchor="middle" x="631" y="-5.75" font-family="Helvetica,sans-Serif" font-size="10.00">Eigen/SparseCholesky</text>
</a>
</g>
</g>
<!-- Node2&#45;&gt;Node11 -->
<g id="edge10_Node000002_Node000011" class="edge">
<title>Node2&#45;&gt;Node11</title>
<g id="a_edge10_Node000002_Node000011"><a xlink:title=" ">
<path fill="none" stroke="#63b8ff" d="M318.49,-57.77C377.8,-48.82 489.09,-32.03 561.6,-21.09"/>
<polygon fill="#63b8ff" stroke="#63b8ff" points="562.03,-24.57 571.39,-19.62 560.98,-17.65 562.03,-24.57"/>
</a>
</g>
</g>
</g>
</svg>
