<?xml version="1.0" encoding="UTF-8" standalone="no"?>
<!DOCTYPE svg PUBLIC "-//W3C//DTD SVG 1.1//EN"
 "http://www.w3.org/Graphics/SVG/1.1/DTD/svg11.dtd">
<!-- Generated by graphviz version 13.1.2 (20250808.2320)
 -->
<!-- Title: include/Pipal/Solver.hh Pages: 1 -->
<svg width="414pt" height="138pt"
 viewBox="0.00 0.00 414.00 138.00" xmlns="http://www.w3.org/2000/svg" xmlns:xlink="http://www.w3.org/1999/xlink">
<g id="graph0" class="graph" transform="scale(1 1) rotate(0) translate(4 133.75)">
<title>include/Pipal/Solver.hh</title>
<!-- Node1 -->
<g id="Node000001" class="node">
<title>Node1</title>
<g id="a_Node000001"><a xlink:title=" ">
<polygon fill="#999999" stroke="#666666" points="266.38,-129.75 151.38,-129.75 151.38,-110.5 266.38,-110.5 266.38,-129.75"/>
<text xml:space="preserve" text-anchor="middle" x="208.88" y="-116.25" font-family="Helvetica,sans-Serif" font-size="10.00">include/Pipal/Solver.hh</text>
</a>
</g>
</g>
<!-- Node2 -->
<g id="Node000002" class="node">
<title>Node2</title>
<g id="a_Node000002"><a xlink:href="_problem_8hh.html" target="_top" xlink:title=" ">
<polygon fill="white" stroke="#666666" points="154,-74.5 63.75,-74.5 63.75,-55.25 154,-55.25 154,-74.5"/>
<text xml:space="preserve" text-anchor="middle" x="108.88" y="-61" font-family="Helvetica,sans-Serif" font-size="10.00">Pipal/Problem.hh</text>
</a>
</g>
</g>
<!-- Node1&#45;&gt;Node2 -->
<g id="edge1_Node000001_Node000002" class="edge">
<title>Node1&#45;&gt;Node2</title>
<g id="a_edge1_Node000001_Node000002"><a xlink:title=" ">
<path fill="none" stroke="#63b8ff" d="M191.91,-110.09C176.61,-101.94 153.84,-89.82 136.01,-80.33"/>
<polygon fill="#63b8ff" stroke="#63b8ff" points="137.73,-77.27 127.26,-75.66 134.44,-83.45 137.73,-77.27"/>
</a>
</g>
</g>
<!-- Node4 -->
<g id="Node000004" class="node">
<title>Node4</title>
<g id="a_Node000004"><a xlink:title=" ">
<polygon fill="#e0e0e0" stroke="#999999" points="61.75,-19.25 0,-19.25 0,0 61.75,0 61.75,-19.25"/>
<text xml:space="preserve" text-anchor="middle" x="30.88" y="-5.75" font-family="Helvetica,sans-Serif" font-size="10.00">type_traits</text>
</a>
</g>
</g>
<!-- Node1&#45;&gt;Node4 -->
<g id="edge8_Node000001_Node000004" class="edge">
<title>Node1&#45;&gt;Node4</title>
<g id="a_edge8_Node000001_Node000004"><a xlink:title=" ">
<path fill="none" stroke="#63b8ff" d="M151.11,-114.9C119.22,-109.77 80.92,-98.61 54.88,-74.5 42.5,-63.05 36.47,-44.59 33.55,-30.45"/>
<polygon fill="#63b8ff" stroke="#63b8ff" points="37.06,-30.21 31.96,-20.92 30.15,-31.36 37.06,-30.21"/>
</a>
</g>
</g>
<!-- Node5 -->
<g id="Node000005" class="node">
<title>Node5</title>
<g id="a_Node000005"><a xlink:title=" ">
<polygon fill="#e0e0e0" stroke="#999999" points="228,-19.25 155.75,-19.25 155.75,0 228,0 228,-19.25"/>
<text xml:space="preserve" text-anchor="middle" x="191.88" y="-5.75" font-family="Helvetica,sans-Serif" font-size="10.00">Eigen/Dense</text>
</a>
</g>
</g>
<!-- Node1&#45;&gt;Node5 -->
<g id="edge9_Node000001_Node000005" class="edge">
<title>Node1&#45;&gt;Node5</title>
<g id="a_edge9_Node000001_Node000005"><a xlink:title=" ">
<path fill="none" stroke="#63b8ff" d="M207.18,-110.25C205.49,-101.26 202.86,-86.94 200.88,-74.5 198.54,-59.9 196.22,-43.38 194.52,-30.79"/>
<polygon fill="#63b8ff" stroke="#63b8ff" points="198.04,-30.69 193.25,-21.24 191.1,-31.61 198.04,-30.69"/>
</a>
</g>
</g>
<!-- Node6 -->
<g id="Node000006" class="node">
<title>Node6</title>
<g id="a_Node000006"><a xlink:title=" ">
<polygon fill="#e0e0e0" stroke="#999999" points="263.62,-74.5 210.12,-74.5 210.12,-55.25 263.62,-55.25 263.62,-74.5"/>
<text xml:space="preserve" text-anchor="middle" x="236.88" y="-61" font-family="Helvetica,sans-Serif" font-size="10.00">iostream</text>
</a>
</g>
</g>
<!-- Node1&#45;&gt;Node6 -->
<g id="edge5_Node000001_Node000006" class="edge">
<title>Node1&#45;&gt;Node6</title>
<g id="a_edge5_Node000001_Node000006"><a xlink:title=" ">
<path fill="none" stroke="#63b8ff" d="M213.5,-110.33C217.12,-103.44 222.3,-93.59 226.87,-84.91"/>
<polygon fill="#63b8ff" stroke="#63b8ff" points="229.89,-86.68 231.45,-76.2 223.69,-83.42 229.89,-86.68"/>
</a>
</g>
</g>
<!-- Node7 -->
<g id="Node000007" class="node">
<title>Node7</title>
<g id="a_Node000007"><a xlink:title=" ">
<polygon fill="#e0e0e0" stroke="#999999" points="331.75,-74.5 282,-74.5 282,-55.25 331.75,-55.25 331.75,-74.5"/>
<text xml:space="preserve" text-anchor="middle" x="306.88" y="-61" font-family="Helvetica,sans-Serif" font-size="10.00">iomanip</text>
</a>
</g>
</g>
<!-- Node1&#45;&gt;Node7 -->
<g id="edge6_Node000001_Node000007" class="edge">
<title>Node1&#45;&gt;Node7</title>
<g id="a_edge6_Node000001_Node000007"><a xlink:title=" ">
<path fill="none" stroke="#63b8ff" d="M225.5,-110.09C240.56,-101.91 263.02,-89.71 280.53,-80.19"/>
<polygon fill="#63b8ff" stroke="#63b8ff" points="281.72,-83.52 288.84,-75.68 278.38,-77.37 281.72,-83.52"/>
</a>
</g>
</g>
<!-- Node8 -->
<g id="Node000008" class="node">
<title>Node8</title>
<g id="a_Node000008"><a xlink:title=" ">
<polygon fill="#e0e0e0" stroke="#999999" points="405.75,-74.5 350,-74.5 350,-55.25 405.75,-55.25 405.75,-74.5"/>
<text xml:space="preserve" text-anchor="middle" x="377.88" y="-61" font-family="Helvetica,sans-Serif" font-size="10.00">algorithm</text>
</a>
</g>
</g>
<!-- Node1&#45;&gt;Node8 -->
<g id="edge7_Node000001_Node000008" class="edge">
<title>Node1&#45;&gt;Node8</title>
<g id="a_edge7_Node000001_Node000008"><a xlink:title=" ">
<path fill="none" stroke="#63b8ff" d="M237.54,-110.09C265.39,-101.32 307.88,-87.93 338.81,-78.19"/>
<polygon fill="#63b8ff" stroke="#63b8ff" points="339.7,-81.57 348.19,-75.23 337.6,-74.9 339.7,-81.57"/>
</a>
</g>
</g>
<!-- Node3 -->
<g id="Node000003" class="node">
<title>Node3</title>
<g id="a_Node000003"><a xlink:title=" ">
<polygon fill="#e0e0e0" stroke="#999999" points="137.88,-19.25 79.88,-19.25 79.88,0 137.88,0 137.88,-19.25"/>
<text xml:space="preserve" text-anchor="middle" x="108.88" y="-5.75" font-family="Helvetica,sans-Serif" font-size="10.00">functional</text>
</a>
</g>
</g>
<!-- Node2&#45;&gt;Node3 -->
<g id="edge2_Node000002_Node000003" class="edge">
<title>Node2&#45;&gt;Node3</title>
<g id="a_edge2_Node000002_Node000003"><a xlink:title=" ">
<path fill="none" stroke="#63b8ff" d="M108.88,-55.08C108.88,-48.57 108.88,-39.42 108.88,-31.12"/>
<polygon fill="#63b8ff" stroke="#63b8ff" points="112.38,-31.12 108.88,-21.12 105.38,-31.12 112.38,-31.12"/>
</a>
</g>
</g>
<!-- Node2&#45;&gt;Node4 -->
<g id="edge3_Node000002_Node000004" class="edge">
<title>Node2&#45;&gt;Node4</title>
<g id="a_edge3_Node000002_Node000004"><a xlink:title=" ">
<path fill="none" stroke="#63b8ff" d="M95.64,-54.84C84.1,-46.96 67.11,-35.36 53.43,-26.02"/>
<polygon fill="#63b8ff" stroke="#63b8ff" points="55.65,-23.3 45.42,-20.56 51.71,-29.08 55.65,-23.3"/>
</a>
</g>
</g>
<!-- Node2&#45;&gt;Node5 -->
<g id="edge4_Node000002_Node000005" class="edge">
<title>Node2&#45;&gt;Node5</title>
<g id="a_edge4_Node000002_Node000005"><a xlink:title=" ">
<path fill="none" stroke="#63b8ff" d="M122.95,-54.84C135.36,-46.89 153.67,-35.14 168.3,-25.75"/>
<polygon fill="#63b8ff" stroke="#63b8ff" points="169.93,-28.87 176.45,-20.52 166.15,-22.97 169.93,-28.87"/>
</a>
</g>
</g>
</g>
</svg>
