<?xml version="1.0" encoding="UTF-8" standalone="no"?>
<!DOCTYPE svg PUBLIC "-//W3C//DTD SVG 1.1//EN"
 "http://www.w3.org/Graphics/SVG/1.1/DTD/svg11.dtd">
<!-- Generated by graphviz version 14.0.2 (20251019.1705)
 -->
<!-- Title: include/Pipal/Solver.hh Pages: 1 -->
<svg width="946pt" height="359pt"
 viewBox="0.00 0.00 946.00 359.00" xmlns="http://www.w3.org/2000/svg" xmlns:xlink="http://www.w3.org/1999/xlink">
<g id="graph0" class="graph" transform="scale(1 1) rotate(0) translate(4 354.75)">
<title>include/Pipal/Solver.hh</title>
<!-- Node1 -->
<g id="Node000001" class="node">
<title>Node1</title>
<g id="a_Node000001"><a xlink:title=" ">
<polygon fill="#999999" stroke="#666666" points="489.62,-350.75 374.62,-350.75 374.62,-331.5 489.62,-331.5 489.62,-350.75"/>
<text xml:space="preserve" text-anchor="middle" x="432.12" y="-337.25" font-family="Helvetica,sans-Serif" font-size="10.00">include/Pipal/Solver.hh</text>
</a>
</g>
</g>
<!-- Node2 -->
<g id="Node000002" class="node">
<title>Node2</title>
<g id="a_Node000002"><a xlink:title=" ">
<polygon fill="#e0e0e0" stroke="#999999" points="529,-240.25 479.25,-240.25 479.25,-221 529,-221 529,-240.25"/>
<text xml:space="preserve" text-anchor="middle" x="504.12" y="-226.75" font-family="Helvetica,sans-Serif" font-size="10.00">iomanip</text>
</a>
</g>
</g>
<!-- Node1&#45;&gt;Node2 -->
<g id="edge1_Node000001_Node000002" class="edge">
<title>Node1&#45;&gt;Node2</title>
<g id="a_edge1_Node000001_Node000002"><a xlink:title=" ">
<path fill="none" stroke="#63b8ff" d="M439.19,-331.07C446.05,-322.17 456.62,-308.13 465.12,-295.5 475.21,-280.51 485.85,-262.96 493.46,-250.05"/>
<polygon fill="#63b8ff" stroke="#63b8ff" points="496.28,-252.16 498.3,-241.76 490.24,-248.63 496.28,-252.16"/>
</a>
</g>
</g>
<!-- Node3 -->
<g id="Node000003" class="node">
<title>Node3</title>
<g id="a_Node000003"><a xlink:title=" ">
<polygon fill="#e0e0e0" stroke="#999999" points="858,-295.5 802.25,-295.5 802.25,-276.25 858,-276.25 858,-295.5"/>
<text xml:space="preserve" text-anchor="middle" x="830.12" y="-282" font-family="Helvetica,sans-Serif" font-size="10.00">algorithm</text>
</a>
</g>
</g>
<!-- Node1&#45;&gt;Node3 -->
<g id="edge2_Node000001_Node000003" class="edge">
<title>Node1&#45;&gt;Node3</title>
<g id="a_edge2_Node000001_Node000003"><a xlink:title=" ">
<path fill="none" stroke="#63b8ff" d="M489.98,-334.27C560.58,-326.81 683.49,-312.77 788.12,-295.5 789.12,-295.34 790.13,-295.16 791.15,-294.99"/>
<polygon fill="#63b8ff" stroke="#63b8ff" points="791.49,-298.48 800.68,-293.21 790.21,-291.6 791.49,-298.48"/>
</a>
</g>
</g>
<!-- Node4 -->
<g id="Node000004" class="node">
<title>Node4</title>
<g id="a_Node000004"><a xlink:title=" ">
<polygon fill="#e0e0e0" stroke="#999999" points="938,-295.5 876.25,-295.5 876.25,-276.25 938,-276.25 938,-295.5"/>
<text xml:space="preserve" text-anchor="middle" x="907.12" y="-282" font-family="Helvetica,sans-Serif" font-size="10.00">type_traits</text>
</a>
</g>
</g>
<!-- Node1&#45;&gt;Node4 -->
<g id="edge3_Node000001_Node000004" class="edge">
<title>Node1&#45;&gt;Node4</title>
<g id="a_edge3_Node000001_Node000004"><a xlink:title=" ">
<path fill="none" stroke="#63b8ff" d="M490.09,-336.22C571.51,-330.28 724.57,-317.49 864.82,-295.69"/>
<polygon fill="#63b8ff" stroke="#63b8ff" points="865.35,-299.15 874.68,-294.14 864.26,-292.23 865.35,-299.15"/>
</a>
</g>
</g>
<!-- Node5 -->
<g id="Node000005" class="node">
<title>Node5</title>
<g id="a_Node000005"><a xlink:title=" ">
<polygon fill="#e0e0e0" stroke="#999999" points="72.25,-19.25 0,-19.25 0,0 72.25,0 72.25,-19.25"/>
<text xml:space="preserve" text-anchor="middle" x="36.12" y="-5.75" font-family="Helvetica,sans-Serif" font-size="10.00">Eigen/Dense</text>
</a>
</g>
</g>
<!-- Node1&#45;&gt;Node5 -->
<g id="edge4_Node000001_Node000005" class="edge">
<title>Node1&#45;&gt;Node5</title>
<g id="a_edge4_Node000001_Node000005"><a xlink:title=" ">
<path fill="none" stroke="#63b8ff" d="M374.32,-339.64C318.47,-337.11 232.76,-327.64 166.12,-295.5 127.89,-277.06 95.12,-274.07 95.12,-231.62 95.12,-231.62 95.12,-231.62 95.12,-119.12 95.12,-83.4 70.13,-48.22 52.68,-28.01"/>
<polygon fill="#63b8ff" stroke="#63b8ff" points="55.4,-25.79 46.1,-20.71 50.2,-30.48 55.4,-25.79"/>
</a>
</g>
</g>
<!-- Node6 -->
<g id="Node000006" class="node">
<title>Node6</title>
<g id="a_Node000006"><a xlink:href="_acceptance_8hh.html" target="_top" xlink:title=" ">
<polygon fill="white" stroke="#666666" points="321.12,-295.5 215.12,-295.5 215.12,-276.25 321.12,-276.25 321.12,-295.5"/>
<text xml:space="preserve" text-anchor="middle" x="268.12" y="-282" font-family="Helvetica,sans-Serif" font-size="10.00">Pipal/Acceptance.hh</text>
</a>
</g>
</g>
<!-- Node1&#45;&gt;Node6 -->
<g id="edge5_Node000001_Node000006" class="edge">
<title>Node1&#45;&gt;Node6</title>
<g id="a_edge5_Node000001_Node000006"><a xlink:title=" ">
<path fill="none" stroke="#63b8ff" d="M404.3,-331.09C377.56,-322.41 336.91,-309.21 306.98,-299.49"/>
<polygon fill="#63b8ff" stroke="#63b8ff" points="308.11,-296.18 297.52,-296.42 305.95,-302.84 308.11,-296.18"/>
</a>
</g>
</g>
<!-- Node7 -->
<g id="Node000007" class="node">
<title>Node7</title>
<g id="a_Node000007"><a xlink:href="_types_8hh.html" target="_top" xlink:title=" ">
<polygon fill="white" stroke="#666666" points="409.38,-74.5 328.88,-74.5 328.88,-55.25 409.38,-55.25 409.38,-74.5"/>
<text xml:space="preserve" text-anchor="middle" x="369.12" y="-61" font-family="Helvetica,sans-Serif" font-size="10.00">Pipal/Types.hh</text>
</a>
</g>
</g>
<!-- Node1&#45;&gt;Node7 -->
<g id="edge28_Node000001_Node000007" class="edge">
<title>Node1&#45;&gt;Node7</title>
<g id="a_edge28_Node000001_Node000007"><a xlink:title=" ">
<path fill="none" stroke="#63b8ff" d="M374.14,-340.35C324.1,-338.03 251.64,-328.49 198.12,-295.5 167.67,-276.72 149.12,-267.4 149.12,-231.62 149.12,-231.62 149.12,-231.62 149.12,-174.38 149.12,-99.75 252.2,-76.45 317.24,-69.18"/>
<polygon fill="#63b8ff" stroke="#63b8ff" points="317.42,-72.68 327.01,-68.18 316.71,-65.71 317.42,-72.68"/>
</a>
</g>
</g>
<!-- Node16 -->
<g id="Node000016" class="node">
<title>Node16</title>
<g id="a_Node000016"><a xlink:href="_problem_8hh.html" target="_top" xlink:title=" ">
<polygon fill="white" stroke="#666666" points="740.25,-19.25 650,-19.25 650,0 740.25,0 740.25,-19.25"/>
<text xml:space="preserve" text-anchor="middle" x="695.12" y="-5.75" font-family="Helvetica,sans-Serif" font-size="10.00">Pipal/Problem.hh</text>
</a>
</g>
</g>
<!-- Node1&#45;&gt;Node16 -->
<g id="edge40_Node000001_Node000016" class="edge">
<title>Node1&#45;&gt;Node16</title>
<g id="a_edge40_Node000001_Node000016"><a xlink:title=" ">
<path fill="none" stroke="#63b8ff" d="M489.75,-333.86C587.22,-321.66 774.12,-290.57 774.12,-231.62 774.12,-231.62 774.12,-231.62 774.12,-119.12 774.12,-80.21 740.51,-45.9 717.13,-26.74"/>
<polygon fill="#63b8ff" stroke="#63b8ff" points="719.39,-24.06 709.36,-20.65 715.07,-29.57 719.39,-24.06"/>
</a>
</g>
</g>
<!-- Node17 -->
<g id="Node000017" class="node">
<title>Node17</title>
<g id="a_Node000017"><a xlink:href="_iterate_8hh.html" target="_top" xlink:title=" ">
<polygon fill="white" stroke="#666666" points="426.12,-185 344.12,-185 344.12,-165.75 426.12,-165.75 426.12,-185"/>
<text xml:space="preserve" text-anchor="middle" x="385.12" y="-171.5" font-family="Helvetica,sans-Serif" font-size="10.00">Pipal/Iterate.hh</text>
</a>
</g>
</g>
<!-- Node1&#45;&gt;Node17 -->
<g id="edge33_Node000001_Node000017" class="edge">
<title>Node1&#45;&gt;Node17</title>
<g id="a_edge33_Node000001_Node000017"><a xlink:title=" ">
<path fill="none" stroke="#63b8ff" d="M429.6,-331.32C422.3,-305.89 401.05,-231.85 390.79,-196.12"/>
<polygon fill="#63b8ff" stroke="#63b8ff" points="394.21,-195.32 388.08,-186.68 387.48,-197.25 394.21,-195.32"/>
</a>
</g>
</g>
<!-- Node19 -->
<g id="Node000019" class="node">
<title>Node19</title>
<g id="a_Node000019"><a xlink:href="_counter_8hh.html" target="_top" xlink:title=" ">
<polygon fill="white" stroke="#666666" points="341.12,-129.75 253.12,-129.75 253.12,-110.5 341.12,-110.5 341.12,-129.75"/>
<text xml:space="preserve" text-anchor="middle" x="297.12" y="-116.25" font-family="Helvetica,sans-Serif" font-size="10.00">Pipal/Counter.hh</text>
</a>
</g>
</g>
<!-- Node1&#45;&gt;Node19 -->
<g id="edge27_Node000001_Node000019" class="edge">
<title>Node1&#45;&gt;Node19</title>
<g id="a_edge27_Node000001_Node000019"><a xlink:title=" ">
<path fill="none" stroke="#63b8ff" d="M426.37,-331.08C411.24,-307.27 369.2,-240.86 335.12,-185 325.87,-169.83 315.58,-152.51 308.05,-139.73"/>
<polygon fill="#63b8ff" stroke="#63b8ff" points="311.08,-137.99 302.99,-131.14 305.05,-141.54 311.08,-137.99"/>
</a>
</g>
</g>
<!-- Node20 -->
<g id="Node000020" class="node">
<title>Node20</title>
<g id="a_Node000020"><a xlink:href="_direction_8hh.html" target="_top" xlink:title=" ">
<polygon fill="white" stroke="#666666" points="308.75,-240.25 215.5,-240.25 215.5,-221 308.75,-221 308.75,-240.25"/>
<text xml:space="preserve" text-anchor="middle" x="262.12" y="-226.75" font-family="Helvetica,sans-Serif" font-size="10.00">Pipal/Direction.hh</text>
</a>
</g>
</g>
<!-- Node1&#45;&gt;Node20 -->
<g id="edge29_Node000001_Node000020" class="edge">
<title>Node1&#45;&gt;Node20</title>
<g id="a_edge29_Node000001_Node000020"><a xlink:title=" ">
<path fill="none" stroke="#63b8ff" d="M374.15,-336.84C314.37,-332.09 227.01,-320.91 206.12,-295.5 191.96,-278.27 214.08,-259.1 234.56,-246.3"/>
<polygon fill="#63b8ff" stroke="#63b8ff" points="236.16,-249.42 243,-241.33 232.61,-243.39 236.16,-249.42"/>
</a>
</g>
</g>
<!-- Node21 -->
<g id="Node000021" class="node">
<title>Node21</title>
<g id="a_Node000021"><a xlink:href="_input_8hh.html" target="_top" xlink:title=" ">
<polygon fill="white" stroke="#666666" points="520.12,-185 444.12,-185 444.12,-165.75 520.12,-165.75 520.12,-185"/>
<text xml:space="preserve" text-anchor="middle" x="482.12" y="-171.5" font-family="Helvetica,sans-Serif" font-size="10.00">Pipal/Input.hh</text>
</a>
</g>
</g>
<!-- Node1&#45;&gt;Node21 -->
<g id="edge30_Node000001_Node000021" class="edge">
<title>Node1&#45;&gt;Node21</title>
<g id="a_edge30_Node000001_Node000021"><a xlink:title=" ">
<path fill="none" stroke="#63b8ff" d="M434.81,-331.32C442.58,-305.89 465.19,-231.85 476.1,-196.12"/>
<polygon fill="#63b8ff" stroke="#63b8ff" points="479.41,-197.26 478.98,-186.67 472.71,-195.21 479.41,-197.26"/>
</a>
</g>
</g>
<!-- Node22 -->
<g id="Node000022" class="node">
<title>Node22</title>
<g id="a_Node000022"><a xlink:href="_output_8hh.html" target="_top" xlink:title=" ">
<polygon fill="white" stroke="#666666" points="631.88,-295.5 548.38,-295.5 548.38,-276.25 631.88,-276.25 631.88,-295.5"/>
<text xml:space="preserve" text-anchor="middle" x="590.12" y="-282" font-family="Helvetica,sans-Serif" font-size="10.00">Pipal/Output.hh</text>
</a>
</g>
</g>
<!-- Node1&#45;&gt;Node22 -->
<g id="edge34_Node000001_Node000022" class="edge">
<title>Node1&#45;&gt;Node22</title>
<g id="a_edge34_Node000001_Node000022"><a xlink:title=" ">
<path fill="none" stroke="#63b8ff" d="M458.93,-331.09C484.58,-322.45 523.51,-309.32 552.31,-299.62"/>
<polygon fill="#63b8ff" stroke="#63b8ff" points="553.4,-302.95 561.76,-296.44 551.16,-296.31 553.4,-302.95"/>
</a>
</g>
</g>
<!-- Node6&#45;&gt;Node7 -->
<g id="edge6_Node000006_Node000007" class="edge">
<title>Node6&#45;&gt;Node7</title>
<g id="a_edge6_Node000006_Node000007"><a xlink:title=" ">
<path fill="none" stroke="#63b8ff" d="M246.69,-275.87C232.34,-268.57 214.59,-256.77 206.12,-240.25 187.54,-203.98 159.17,-189.84 232.12,-110.5 253.95,-86.77 288.52,-75.62 317.48,-70.4"/>
<polygon fill="#63b8ff" stroke="#63b8ff" points="317.85,-73.89 327.18,-68.86 316.75,-66.97 317.85,-73.89"/>
</a>
</g>
</g>
<!-- Node6&#45;&gt;Node17 -->
<g id="edge18_Node000006_Node000017" class="edge">
<title>Node6&#45;&gt;Node17</title>
<g id="a_edge18_Node000006_Node000017"><a xlink:title=" ">
<path fill="none" stroke="#63b8ff" d="M278.17,-276.08C288.33,-267.15 304.44,-252.87 318.12,-240.25 335.37,-224.34 354.74,-205.8 368.2,-192.8"/>
<polygon fill="#63b8ff" stroke="#63b8ff" points="370.27,-195.67 375.02,-186.2 365.4,-190.64 370.27,-195.67"/>
</a>
</g>
</g>
<!-- Node6&#45;&gt;Node20 -->
<g id="edge24_Node000006_Node000020" class="edge">
<title>Node6&#45;&gt;Node20</title>
<g id="a_edge24_Node000006_Node000020"><a xlink:title=" ">
<path fill="none" stroke="#63b8ff" d="M267.13,-276.08C266.39,-269.49 265.35,-260.21 264.4,-251.82"/>
<polygon fill="#63b8ff" stroke="#63b8ff" points="267.9,-251.66 263.31,-242.11 260.95,-252.44 267.9,-251.66"/>
</a>
</g>
</g>
<!-- Node7&#45;&gt;Node5 -->
<g id="edge13_Node000007_Node000005" class="edge">
<title>Node7&#45;&gt;Node5</title>
<g id="a_edge13_Node000007_Node000005"><a xlink:title=" ">
<path fill="none" stroke="#63b8ff" d="M328.51,-58.05C274.8,-50.24 176.94,-35.66 83.53,-19.62"/>
<polygon fill="#63b8ff" stroke="#63b8ff" points="84.4,-16.21 73.95,-17.96 83.2,-23.11 84.4,-16.21"/>
</a>
</g>
</g>
<!-- Node8 -->
<g id="Node000008" class="node">
<title>Node8</title>
<g id="a_Node000008"><a xlink:title=" ">
<polygon fill="#e0e0e0" stroke="#999999" points="574.12,-19.25 516.12,-19.25 516.12,0 574.12,0 574.12,-19.25"/>
<text xml:space="preserve" text-anchor="middle" x="545.12" y="-5.75" font-family="Helvetica,sans-Serif" font-size="10.00">functional</text>
</a>
</g>
</g>
<!-- Node7&#45;&gt;Node8 -->
<g id="edge7_Node000007_Node000008" class="edge">
<title>Node7&#45;&gt;Node8</title>
<g id="a_edge7_Node000007_Node000008"><a xlink:title=" ">
<path fill="none" stroke="#63b8ff" d="M398.98,-54.84C428.11,-46.03 472.62,-32.56 504.86,-22.81"/>
<polygon fill="#63b8ff" stroke="#63b8ff" points="505.7,-26.21 514.26,-19.96 503.68,-19.51 505.7,-26.21"/>
</a>
</g>
</g>
<!-- Node9 -->
<g id="Node000009" class="node">
<title>Node9</title>
<g id="a_Node000009"><a xlink:title=" ">
<polygon fill="#e0e0e0" stroke="#999999" points="798.12,-19.25 758.12,-19.25 758.12,0 798.12,0 798.12,-19.25"/>
<text xml:space="preserve" text-anchor="middle" x="778.12" y="-5.75" font-family="Helvetica,sans-Serif" font-size="10.00">string</text>
</a>
</g>
</g>
<!-- Node7&#45;&gt;Node9 -->
<g id="edge8_Node000007_Node000009" class="edge">
<title>Node7&#45;&gt;Node9</title>
<g id="a_edge8_Node000007_Node000009"><a xlink:title=" ">
<path fill="none" stroke="#63b8ff" d="M409.7,-61.41C477.62,-56.79 618.69,-45.08 746.5,-19.47"/>
<polygon fill="#63b8ff" stroke="#63b8ff" points="747.06,-22.93 756.16,-17.5 745.66,-16.07 747.06,-22.93"/>
</a>
</g>
</g>
<!-- Node10 -->
<g id="Node000010" class="node">
<title>Node10</title>
<g id="a_Node000010"><a xlink:title=" ">
<polygon fill="#e0e0e0" stroke="#999999" points="631.75,-19.25 592.5,-19.25 592.5,0 631.75,0 631.75,-19.25"/>
<text xml:space="preserve" text-anchor="middle" x="612.12" y="-5.75" font-family="Helvetica,sans-Serif" font-size="10.00">limits</text>
</a>
</g>
</g>
<!-- Node7&#45;&gt;Node10 -->
<g id="edge9_Node000007_Node000010" class="edge">
<title>Node7&#45;&gt;Node10</title>
<g id="a_edge9_Node000007_Node000010"><a xlink:title=" ">
<path fill="none" stroke="#63b8ff" d="M409.59,-56.48C450.51,-48.77 515.8,-35.85 581.28,-19.54"/>
<polygon fill="#63b8ff" stroke="#63b8ff" points="581.91,-22.99 590.75,-17.15 580.2,-16.2 581.91,-22.99"/>
</a>
</g>
</g>
<!-- Node11 -->
<g id="Node000011" class="node">
<title>Node11</title>
<g id="a_Node000011"><a xlink:title=" ">
<polygon fill="#e0e0e0" stroke="#999999" points="133.62,-19.25 90.62,-19.25 90.62,0 133.62,0 133.62,-19.25"/>
<text xml:space="preserve" text-anchor="middle" x="112.12" y="-5.75" font-family="Helvetica,sans-Serif" font-size="10.00">cmath</text>
</a>
</g>
</g>
<!-- Node7&#45;&gt;Node11 -->
<g id="edge10_Node000007_Node000011" class="edge">
<title>Node7&#45;&gt;Node11</title>
<g id="a_edge10_Node000007_Node000011"><a xlink:title=" ">
<path fill="none" stroke="#63b8ff" d="M328.51,-56.82C285.42,-49.13 215.12,-35.97 145.29,-19.61"/>
<polygon fill="#63b8ff" stroke="#63b8ff" points="146.1,-16.21 135.56,-17.31 144.48,-23.02 146.1,-16.21"/>
</a>
</g>
</g>
<!-- Node12 -->
<g id="Node000012" class="node">
<title>Node12</title>
<g id="a_Node000012"><a xlink:title=" ">
<polygon fill="#e0e0e0" stroke="#999999" points="202.38,-19.25 151.88,-19.25 151.88,0 202.38,0 202.38,-19.25"/>
<text xml:space="preserve" text-anchor="middle" x="177.12" y="-5.75" font-family="Helvetica,sans-Serif" font-size="10.00">numeric</text>
</a>
</g>
</g>
<!-- Node7&#45;&gt;Node12 -->
<g id="edge11_Node000007_Node000012" class="edge">
<title>Node7&#45;&gt;Node12</title>
<g id="a_edge11_Node000007_Node000012"><a xlink:title=" ">
<path fill="none" stroke="#63b8ff" d="M336.55,-54.84C302.48,-45.39 249.09,-30.59 213.62,-20.75"/>
<polygon fill="#63b8ff" stroke="#63b8ff" points="214.8,-17.44 204.23,-18.14 212.93,-24.19 214.8,-17.44"/>
</a>
</g>
</g>
<!-- Node13 -->
<g id="Node000013" class="node">
<title>Node13</title>
<g id="a_Node000013"><a xlink:title=" ">
<polygon fill="#e0e0e0" stroke="#999999" points="271.75,-19.25 220.5,-19.25 220.5,0 271.75,0 271.75,-19.25"/>
<text xml:space="preserve" text-anchor="middle" x="246.12" y="-5.75" font-family="Helvetica,sans-Serif" font-size="10.00">memory</text>
</a>
</g>
</g>
<!-- Node7&#45;&gt;Node13 -->
<g id="edge12_Node000007_Node000013" class="edge">
<title>Node7&#45;&gt;Node13</title>
<g id="a_edge12_Node000007_Node000013"><a xlink:title=" ">
<path fill="none" stroke="#63b8ff" d="M348.26,-54.84C328.82,-46.43 299.58,-33.77 277.36,-24.15"/>
<polygon fill="#63b8ff" stroke="#63b8ff" points="279.05,-21.06 268.48,-20.3 276.27,-27.49 279.05,-21.06"/>
</a>
</g>
</g>
<!-- Node14 -->
<g id="Node000014" class="node">
<title>Node14</title>
<g id="a_Node000014"><a xlink:title=" ">
<polygon fill="#e0e0e0" stroke="#999999" points="364.38,-19.25 289.88,-19.25 289.88,0 364.38,0 364.38,-19.25"/>
<text xml:space="preserve" text-anchor="middle" x="327.12" y="-5.75" font-family="Helvetica,sans-Serif" font-size="10.00">Eigen/Sparse</text>
</a>
</g>
</g>
<!-- Node7&#45;&gt;Node14 -->
<g id="edge14_Node000007_Node000014" class="edge">
<title>Node7&#45;&gt;Node14</title>
<g id="a_edge14_Node000007_Node000014"><a xlink:title=" ">
<path fill="none" stroke="#63b8ff" d="M362.19,-55.08C356.51,-47.88 348.29,-37.46 341.23,-28.51"/>
<polygon fill="#63b8ff" stroke="#63b8ff" points="344.09,-26.48 335.15,-20.8 338.59,-30.82 344.09,-26.48"/>
</a>
</g>
</g>
<!-- Node15 -->
<g id="Node000015" class="node">
<title>Node15</title>
<g id="a_Node000015"><a xlink:title=" ">
<polygon fill="#e0e0e0" stroke="#999999" points="498,-19.25 382.25,-19.25 382.25,0 498,0 498,-19.25"/>
<text xml:space="preserve" text-anchor="middle" x="440.12" y="-5.75" font-family="Helvetica,sans-Serif" font-size="10.00">Eigen/SparseCholesky</text>
</a>
</g>
</g>
<!-- Node7&#45;&gt;Node15 -->
<g id="edge15_Node000007_Node000015" class="edge">
<title>Node7&#45;&gt;Node15</title>
<g id="a_edge15_Node000007_Node000015"><a xlink:title=" ">
<path fill="none" stroke="#63b8ff" d="M381.17,-54.84C391.53,-47.07 406.73,-35.67 419.09,-26.4"/>
<polygon fill="#63b8ff" stroke="#63b8ff" points="421.15,-29.23 427.05,-20.43 416.95,-23.63 421.15,-29.23"/>
</a>
</g>
</g>
<!-- Node7&#45;&gt;Node16 -->
<g id="edge16_Node000007_Node000016" class="edge">
<title>Node7&#45;&gt;Node16</title>
<g id="a_edge16_Node000007_Node000016"><a xlink:title=" ">
<path fill="none" stroke="#63b8ff" d="M409.61,-56.47C467.23,-46.66 572.89,-29.39 638.31,-19.07"/>
<polygon fill="#63b8ff" stroke="#63b8ff" points="638.81,-22.54 648.14,-17.53 637.72,-15.62 638.81,-22.54"/>
</a>
</g>
</g>
<!-- Node16&#45;&gt;Node7 -->
<g id="edge17_Node000016_Node000007" class="edge">
<title>Node16&#45;&gt;Node7</title>
<g id="a_edge17_Node000016_Node000007"><a xlink:title=" ">
<path fill="none" stroke="#63b8ff" d="M649.75,-18.86C589.66,-29.06 484.14,-46.28 420.97,-56.21"/>
<polygon fill="#63b8ff" stroke="#63b8ff" points="420.53,-52.74 411.19,-57.74 421.61,-59.65 420.53,-52.74"/>
</a>
</g>
</g>
<!-- Node17&#45;&gt;Node7 -->
<g id="edge19_Node000017_Node000007" class="edge">
<title>Node17&#45;&gt;Node7</title>
<g id="a_edge19_Node000017_Node000007"><a xlink:title=" ">
<path fill="none" stroke="#63b8ff" d="M383.82,-165.5C381.27,-148.25 375.61,-109.83 372.1,-86.06"/>
<polygon fill="#63b8ff" stroke="#63b8ff" points="375.59,-85.76 370.67,-76.37 368.67,-86.78 375.59,-85.76"/>
</a>
</g>
</g>
<!-- Node18 -->
<g id="Node000018" class="node">
<title>Node18</title>
<g id="a_Node000018"><a xlink:href="_parameter_8hh.html" target="_top" xlink:title=" ">
<polygon fill="white" stroke="#666666" points="495.38,-129.75 396.88,-129.75 396.88,-110.5 495.38,-110.5 495.38,-129.75"/>
<text xml:space="preserve" text-anchor="middle" x="446.12" y="-116.25" font-family="Helvetica,sans-Serif" font-size="10.00">Pipal/Parameter.hh</text>
</a>
</g>
</g>
<!-- Node17&#45;&gt;Node18 -->
<g id="edge20_Node000017_Node000018" class="edge">
<title>Node17&#45;&gt;Node18</title>
<g id="a_edge20_Node000017_Node000018"><a xlink:title=" ">
<path fill="none" stroke="#63b8ff" d="M395.47,-165.34C404.2,-157.72 416.91,-146.62 427.42,-137.45"/>
<polygon fill="#63b8ff" stroke="#63b8ff" points="429.56,-140.23 434.79,-131.02 424.95,-134.96 429.56,-140.23"/>
</a>
</g>
</g>
<!-- Node17&#45;&gt;Node19 -->
<g id="edge22_Node000017_Node000019" class="edge">
<title>Node17&#45;&gt;Node19</title>
<g id="a_edge22_Node000017_Node000019"><a xlink:title=" ">
<path fill="none" stroke="#63b8ff" d="M370.2,-165.34C356.92,-157.31 337.26,-145.41 321.67,-135.98"/>
<polygon fill="#63b8ff" stroke="#63b8ff" points="323.79,-133.17 313.42,-130.99 320.16,-139.16 323.79,-133.17"/>
</a>
</g>
</g>
<!-- Node18&#45;&gt;Node7 -->
<g id="edge21_Node000018_Node000007" class="edge">
<title>Node18&#45;&gt;Node7</title>
<g id="a_edge21_Node000018_Node000007"><a xlink:title=" ">
<path fill="none" stroke="#63b8ff" d="M433.06,-110.09C421.67,-102.21 404.9,-90.61 391.39,-81.27"/>
<polygon fill="#63b8ff" stroke="#63b8ff" points="393.71,-78.62 383.5,-75.81 389.73,-84.38 393.71,-78.62"/>
</a>
</g>
</g>
<!-- Node19&#45;&gt;Node7 -->
<g id="edge23_Node000019_Node000007" class="edge">
<title>Node19&#45;&gt;Node7</title>
<g id="a_edge23_Node000019_Node000007"><a xlink:title=" ">
<path fill="none" stroke="#63b8ff" d="M309.34,-110.09C319.95,-102.24 335.56,-90.7 348.17,-81.37"/>
<polygon fill="#63b8ff" stroke="#63b8ff" points="349.92,-84.44 355.87,-75.67 345.75,-78.81 349.92,-84.44"/>
</a>
</g>
</g>
<!-- Node20&#45;&gt;Node7 -->
<g id="edge25_Node000020_Node000007" class="edge">
<title>Node20&#45;&gt;Node7</title>
<g id="a_edge25_Node000020_Node000007"><a xlink:title=" ">
<path fill="none" stroke="#63b8ff" d="M256.81,-220.57C245.06,-199.24 219.78,-145.03 244.12,-110.5 260.74,-86.93 290.97,-75.74 317.54,-70.46"/>
<polygon fill="#63b8ff" stroke="#63b8ff" points="317.91,-73.95 327.17,-68.8 316.72,-67.05 317.91,-73.95"/>
</a>
</g>
</g>
<!-- Node20&#45;&gt;Node17 -->
<g id="edge26_Node000020_Node000017" class="edge">
<title>Node20&#45;&gt;Node17</title>
<g id="a_edge26_Node000020_Node000017"><a xlink:title=" ">
<path fill="none" stroke="#63b8ff" d="M282.99,-220.59C302.43,-212.18 331.67,-199.52 353.89,-189.9"/>
<polygon fill="#63b8ff" stroke="#63b8ff" points="354.98,-193.24 362.77,-186.05 352.2,-186.81 354.98,-193.24"/>
</a>
</g>
</g>
<!-- Node21&#45;&gt;Node7 -->
<g id="edge31_Node000021_Node000007" class="edge">
<title>Node21&#45;&gt;Node7</title>
<g id="a_edge31_Node000021_Node000007"><a xlink:title=" ">
<path fill="none" stroke="#63b8ff" d="M490.06,-165.35C500.59,-152.24 516.49,-127.61 504.12,-110.5 485.3,-84.45 450.7,-73.35 421.24,-68.74"/>
<polygon fill="#63b8ff" stroke="#63b8ff" points="421.7,-65.27 411.33,-67.42 420.78,-72.21 421.7,-65.27"/>
</a>
</g>
</g>
<!-- Node21&#45;&gt;Node18 -->
<g id="edge32_Node000021_Node000018" class="edge">
<title>Node21&#45;&gt;Node18</title>
<g id="a_edge32_Node000021_Node000018"><a xlink:title=" ">
<path fill="none" stroke="#63b8ff" d="M476.18,-165.58C471.41,-158.53 464.56,-148.4 458.6,-139.58"/>
<polygon fill="#63b8ff" stroke="#63b8ff" points="461.55,-137.69 453.05,-131.36 455.75,-141.61 461.55,-137.69"/>
</a>
</g>
</g>
<!-- Node22&#45;&gt;Node2 -->
<g id="edge36_Node000022_Node000002" class="edge">
<title>Node22&#45;&gt;Node2</title>
<g id="a_edge36_Node000022_Node000002"><a xlink:title=" ">
<path fill="none" stroke="#63b8ff" d="M575.54,-275.84C562.69,-267.89 543.71,-256.14 528.55,-246.75"/>
<polygon fill="#63b8ff" stroke="#63b8ff" points="530.42,-243.79 520.07,-241.5 526.73,-249.74 530.42,-243.79"/>
</a>
</g>
</g>
<!-- Node22&#45;&gt;Node7 -->
<g id="edge39_Node000022_Node000007" class="edge">
<title>Node22&#45;&gt;Node7</title>
<g id="a_edge39_Node000022_Node000007"><a xlink:title=" ">
<path fill="none" stroke="#63b8ff" d="M586.99,-275.75C575.17,-241.59 533.34,-122.52 520.12,-110.5 493.11,-85.92 453.17,-74.85 421.15,-69.87"/>
<polygon fill="#63b8ff" stroke="#63b8ff" points="421.64,-66.4 411.25,-68.51 420.68,-73.34 421.64,-66.4"/>
</a>
</g>
</g>
<!-- Node22&#45;&gt;Node9 -->
<g id="edge37_Node000022_Node000009" class="edge">
<title>Node22&#45;&gt;Node9</title>
<g id="a_edge37_Node000022_Node000009"><a xlink:title=" ">
<path fill="none" stroke="#63b8ff" d="M632.32,-280C659.97,-274.67 694.96,-263.52 717.12,-240.25 737.55,-218.8 736.12,-205.99 736.12,-176.38 736.12,-176.38 736.12,-176.38 736.12,-119.12 736.12,-85.76 753.62,-50.27 766.02,-29.3"/>
<polygon fill="#63b8ff" stroke="#63b8ff" points="768.85,-31.37 771.13,-21.03 762.9,-27.69 768.85,-31.37"/>
</a>
</g>
</g>
<!-- Node23 -->
<g id="Node000023" class="node">
<title>Node23</title>
<g id="a_Node000023"><a xlink:title=" ">
<polygon fill="#e0e0e0" stroke="#999999" points="638.88,-240.25 585.38,-240.25 585.38,-221 638.88,-221 638.88,-240.25"/>
<text xml:space="preserve" text-anchor="middle" x="612.12" y="-226.75" font-family="Helvetica,sans-Serif" font-size="10.00">iostream</text>
</a>
</g>
</g>
<!-- Node22&#45;&gt;Node23 -->
<g id="edge35_Node000022_Node000023" class="edge">
<title>Node22&#45;&gt;Node23</title>
<g id="a_edge35_Node000022_Node000023"><a xlink:title=" ">
<path fill="none" stroke="#63b8ff" d="M593.76,-276.08C596.54,-269.34 600.5,-259.77 604.02,-251.24"/>
<polygon fill="#63b8ff" stroke="#63b8ff" points="607.25,-252.59 607.84,-242.01 600.78,-249.91 607.25,-252.59"/>
</a>
</g>
</g>
<!-- Node24 -->
<g id="Node000024" class="node">
<title>Node24</title>
<g id="a_Node000024"><a xlink:title=" ">
<polygon fill="#e0e0e0" stroke="#999999" points="707.75,-240.25 656.5,-240.25 656.5,-221 707.75,-221 707.75,-240.25"/>
<text xml:space="preserve" text-anchor="middle" x="682.12" y="-226.75" font-family="Helvetica,sans-Serif" font-size="10.00">ostream</text>
</a>
</g>
</g>
<!-- Node22&#45;&gt;Node24 -->
<g id="edge38_Node000022_Node000024" class="edge">
<title>Node22&#45;&gt;Node24</title>
<g id="a_edge38_Node000022_Node000024"><a xlink:title=" ">
<path fill="none" stroke="#63b8ff" d="M605.73,-275.84C619.74,-267.73 640.56,-255.68 656.93,-246.21"/>
<polygon fill="#63b8ff" stroke="#63b8ff" points="658.23,-249.5 665.13,-241.46 654.72,-243.44 658.23,-249.5"/>
</a>
</g>
</g>
</g>
</svg>
