<?xml version="1.0" encoding="UTF-8" standalone="no"?>
<!DOCTYPE svg PUBLIC "-//W3C//DTD SVG 1.1//EN"
 "http://www.w3.org/Graphics/SVG/1.1/DTD/svg11.dtd">
<!-- Generated by graphviz version 14.0.2 (20251019.1705)
 -->
<!-- Title: include/Pipal/Types.hh Pages: 1 -->
<svg width="805pt" height="83pt"
 viewBox="0.00 0.00 805.00 83.00" xmlns="http://www.w3.org/2000/svg" xmlns:xlink="http://www.w3.org/1999/xlink">
<g id="graph0" class="graph" transform="scale(1 1) rotate(0) translate(4 78.5)">
<title>include/Pipal/Types.hh</title>
<!-- Node1 -->
<g id="Node000001" class="node">
<title>Node1</title>
<g id="a_Node000001"><a xlink:title=" ">
<polygon fill="#999999" stroke="#666666" points="404.12,-74.5 289.88,-74.5 289.88,-55.25 404.12,-55.25 404.12,-74.5"/>
<text xml:space="preserve" text-anchor="middle" x="347" y="-61" font-family="Helvetica,sans-Serif" font-size="10.00">include/Pipal/Types.hh</text>
</a>
</g>
</g>
<!-- Node2 -->
<g id="Node000002" class="node">
<title>Node2</title>
<g id="a_Node000002"><a xlink:title=" ">
<polygon fill="#e0e0e0" stroke="#999999" points="58,-19.25 0,-19.25 0,0 58,0 58,-19.25"/>
<text xml:space="preserve" text-anchor="middle" x="29" y="-5.75" font-family="Helvetica,sans-Serif" font-size="10.00">functional</text>
</a>
</g>
</g>
<!-- Node1&#45;&gt;Node2 -->
<g id="edge1_Node000001_Node000002" class="edge">
<title>Node1&#45;&gt;Node2</title>
<g id="a_edge1_Node000001_Node000002"><a xlink:title=" ">
<path fill="none" stroke="#63b8ff" d="M289.43,-55.82C235.18,-47.98 151.37,-35.22 69.67,-19.66"/>
<polygon fill="#63b8ff" stroke="#63b8ff" points="70.39,-16.24 59.9,-17.79 69.06,-23.11 70.39,-16.24"/>
</a>
</g>
</g>
<!-- Node3 -->
<g id="Node000003" class="node">
<title>Node3</title>
<g id="a_Node000003"><a xlink:title=" ">
<polygon fill="#e0e0e0" stroke="#999999" points="116,-19.25 76,-19.25 76,0 116,0 116,-19.25"/>
<text xml:space="preserve" text-anchor="middle" x="96" y="-5.75" font-family="Helvetica,sans-Serif" font-size="10.00">string</text>
</a>
</g>
</g>
<!-- Node1&#45;&gt;Node3 -->
<g id="edge2_Node000001_Node000003" class="edge">
<title>Node1&#45;&gt;Node3</title>
<g id="a_edge2_Node000001_Node000003"><a xlink:title=" ">
<path fill="none" stroke="#63b8ff" d="M295.12,-54.82C252.41,-47.06 190.08,-35.03 127.14,-19.6"/>
<polygon fill="#63b8ff" stroke="#63b8ff" points="128.23,-16.27 117.69,-17.26 126.55,-23.06 128.23,-16.27"/>
</a>
</g>
</g>
<!-- Node4 -->
<g id="Node000004" class="node">
<title>Node4</title>
<g id="a_Node000004"><a xlink:title=" ">
<polygon fill="#e0e0e0" stroke="#999999" points="173.62,-19.25 134.38,-19.25 134.38,0 173.62,0 173.62,-19.25"/>
<text xml:space="preserve" text-anchor="middle" x="154" y="-5.75" font-family="Helvetica,sans-Serif" font-size="10.00">limits</text>
</a>
</g>
</g>
<!-- Node1&#45;&gt;Node4 -->
<g id="edge3_Node000001_Node000004" class="edge">
<title>Node1&#45;&gt;Node4</title>
<g id="a_edge3_Node000001_Node000004"><a xlink:title=" ">
<path fill="none" stroke="#63b8ff" d="M312.14,-54.82C280.96,-46.64 233.77,-34.06 184.69,-19.96"/>
<polygon fill="#63b8ff" stroke="#63b8ff" points="185.89,-16.67 175.31,-17.26 183.95,-23.39 185.89,-16.67"/>
</a>
</g>
</g>
<!-- Node5 -->
<g id="Node000005" class="node">
<title>Node5</title>
<g id="a_Node000005"><a xlink:title=" ">
<polygon fill="#e0e0e0" stroke="#999999" points="234.5,-19.25 191.5,-19.25 191.5,0 234.5,0 234.5,-19.25"/>
<text xml:space="preserve" text-anchor="middle" x="213" y="-5.75" font-family="Helvetica,sans-Serif" font-size="10.00">cmath</text>
</a>
</g>
</g>
<!-- Node1&#45;&gt;Node5 -->
<g id="edge4_Node000001_Node000005" class="edge">
<title>Node1&#45;&gt;Node5</title>
<g id="a_edge4_Node000001_Node000005"><a xlink:title=" ">
<path fill="none" stroke="#63b8ff" d="M324.27,-54.84C302.64,-46.25 269.88,-33.23 245.49,-23.54"/>
<polygon fill="#63b8ff" stroke="#63b8ff" points="246.94,-20.35 236.36,-19.91 244.36,-26.85 246.94,-20.35"/>
</a>
</g>
</g>
<!-- Node6 -->
<g id="Node000006" class="node">
<title>Node6</title>
<g id="a_Node000006"><a xlink:title=" ">
<polygon fill="#e0e0e0" stroke="#999999" points="303.25,-19.25 252.75,-19.25 252.75,0 303.25,0 303.25,-19.25"/>
<text xml:space="preserve" text-anchor="middle" x="278" y="-5.75" font-family="Helvetica,sans-Serif" font-size="10.00">numeric</text>
</a>
</g>
</g>
<!-- Node1&#45;&gt;Node6 -->
<g id="edge5_Node000001_Node000006" class="edge">
<title>Node1&#45;&gt;Node6</title>
<g id="a_edge5_Node000001_Node000006"><a xlink:title=" ">
<path fill="none" stroke="#63b8ff" d="M335.3,-54.84C325.22,-47.07 310.46,-35.67 298.44,-26.4"/>
<polygon fill="#63b8ff" stroke="#63b8ff" points="300.79,-23.79 290.73,-20.45 296.51,-29.33 300.79,-23.79"/>
</a>
</g>
</g>
<!-- Node7 -->
<g id="Node000007" class="node">
<title>Node7</title>
<g id="a_Node000007"><a xlink:title=" ">
<polygon fill="#e0e0e0" stroke="#999999" points="372.62,-19.25 321.38,-19.25 321.38,0 372.62,0 372.62,-19.25"/>
<text xml:space="preserve" text-anchor="middle" x="347" y="-5.75" font-family="Helvetica,sans-Serif" font-size="10.00">memory</text>
</a>
</g>
</g>
<!-- Node1&#45;&gt;Node7 -->
<g id="edge6_Node000001_Node000007" class="edge">
<title>Node1&#45;&gt;Node7</title>
<g id="a_edge6_Node000001_Node000007"><a xlink:title=" ">
<path fill="none" stroke="#63b8ff" d="M347,-55.08C347,-48.57 347,-39.42 347,-31.12"/>
<polygon fill="#63b8ff" stroke="#63b8ff" points="350.5,-31.12 347,-21.12 343.5,-31.12 350.5,-31.12"/>
</a>
</g>
</g>
<!-- Node8 -->
<g id="Node000008" class="node">
<title>Node8</title>
<g id="a_Node000008"><a xlink:title=" ">
<polygon fill="#e0e0e0" stroke="#999999" points="463.12,-19.25 390.88,-19.25 390.88,0 463.12,0 463.12,-19.25"/>
<text xml:space="preserve" text-anchor="middle" x="427" y="-5.75" font-family="Helvetica,sans-Serif" font-size="10.00">Eigen/Dense</text>
</a>
</g>
</g>
<!-- Node1&#45;&gt;Node8 -->
<g id="edge7_Node000001_Node000008" class="edge">
<title>Node1&#45;&gt;Node8</title>
<g id="a_edge7_Node000001_Node000008"><a xlink:title=" ">
<path fill="none" stroke="#63b8ff" d="M360.57,-54.84C372.41,-46.96 389.84,-35.36 403.87,-26.02"/>
<polygon fill="#63b8ff" stroke="#63b8ff" points="405.72,-29 412.1,-20.54 401.84,-23.17 405.72,-29"/>
</a>
</g>
</g>
<!-- Node9 -->
<g id="Node000009" class="node">
<title>Node9</title>
<g id="a_Node000009"><a xlink:title=" ">
<polygon fill="#e0e0e0" stroke="#999999" points="555.25,-19.25 480.75,-19.25 480.75,0 555.25,0 555.25,-19.25"/>
<text xml:space="preserve" text-anchor="middle" x="518" y="-5.75" font-family="Helvetica,sans-Serif" font-size="10.00">Eigen/Sparse</text>
</a>
</g>
</g>
<!-- Node1&#45;&gt;Node9 -->
<g id="edge8_Node000001_Node000009" class="edge">
<title>Node1&#45;&gt;Node9</title>
<g id="a_edge8_Node000001_Node000009"><a xlink:title=" ">
<path fill="none" stroke="#63b8ff" d="M376.01,-54.84C404.01,-46.12 446.66,-32.84 477.9,-23.11"/>
<polygon fill="#63b8ff" stroke="#63b8ff" points="478.9,-26.47 487.4,-20.15 476.82,-19.78 478.9,-26.47"/>
</a>
</g>
</g>
<!-- Node10 -->
<g id="Node000010" class="node">
<title>Node10</title>
<g id="a_Node000010"><a xlink:title=" ">
<polygon fill="#e0e0e0" stroke="#999999" points="688.88,-19.25 573.12,-19.25 573.12,0 688.88,0 688.88,-19.25"/>
<text xml:space="preserve" text-anchor="middle" x="631" y="-5.75" font-family="Helvetica,sans-Serif" font-size="10.00">Eigen/SparseCholesky</text>
</a>
</g>
</g>
<!-- Node1&#45;&gt;Node10 -->
<g id="edge9_Node000001_Node000010" class="edge">
<title>Node1&#45;&gt;Node10</title>
<g id="a_edge9_Node000001_Node000010"><a xlink:title=" ">
<path fill="none" stroke="#63b8ff" d="M395.5,-54.78C444.21,-45.65 519.33,-31.56 571.59,-21.76"/>
<polygon fill="#63b8ff" stroke="#63b8ff" points="572.03,-25.24 581.21,-19.96 570.74,-18.36 572.03,-25.24"/>
</a>
</g>
</g>
<!-- Node11 -->
<g id="Node000011" class="node">
<title>Node11</title>
<g id="a_Node000011"><a xlink:href="_problem_8hh.html" target="_top" xlink:title=" ">
<polygon fill="white" stroke="#666666" points="797.12,-19.25 706.88,-19.25 706.88,0 797.12,0 797.12,-19.25"/>
<text xml:space="preserve" text-anchor="middle" x="752" y="-5.75" font-family="Helvetica,sans-Serif" font-size="10.00">Pipal/Problem.hh</text>
</a>
</g>
</g>
<!-- Node1&#45;&gt;Node11 -->
<g id="edge10_Node000001_Node000011" class="edge">
<title>Node1&#45;&gt;Node11</title>
<g id="a_edge10_Node000001_Node000011"><a xlink:title=" ">
<path fill="none" stroke="#63b8ff" d="M404.52,-56.34C472.57,-47.93 588.97,-33.59 689,-19.25 691.03,-18.96 693.09,-18.66 695.19,-18.35"/>
<polygon fill="#63b8ff" stroke="#63b8ff" points="695.68,-21.81 705.04,-16.86 694.63,-14.89 695.68,-21.81"/>
</a>
</g>
</g>
<!-- Node11&#45;&gt;Node1 -->
<g id="edge11_Node000011_Node000001" class="edge">
<title>Node11&#45;&gt;Node1</title>
<g id="a_edge11_Node000011_Node000001"><a xlink:title=" ">
<path fill="none" stroke="#63b8ff" d="M706.38,-19.34C605.5,-33.79 488.11,-48.23 415.59,-56.59"/>
<polygon fill="#63b8ff" stroke="#63b8ff" points="415.39,-53.09 405.85,-57.71 416.19,-60.05 415.39,-53.09"/>
</a>
</g>
</g>
</g>
</svg>
