<?xml version="1.0" encoding="UTF-8" standalone="no"?>
<!DOCTYPE svg PUBLIC "-//W3C//DTD SVG 1.1//EN"
 "http://www.w3.org/Graphics/SVG/1.1/DTD/svg11.dtd">
<!-- Generated by graphviz version 14.0.2 (20251019.1705)
 -->
<!-- Title: include/Pipal/Types.hh Pages: 1 -->
<svg width="711pt" height="359pt"
 viewBox="0.00 0.00 711.00 359.00" xmlns="http://www.w3.org/2000/svg" xmlns:xlink="http://www.w3.org/1999/xlink">
<g id="graph0" class="graph" transform="scale(1 1) rotate(0) translate(4 354.75)">
<title>include/Pipal/Types.hh</title>
<!-- Node1 -->
<g id="Node000001" class="node">
<title>Node1</title>
<g id="a_Node000001"><a xlink:title=" ">
<polygon fill="#999999" stroke="#666666" points="428.46,-350.75 314.21,-350.75 314.21,-331.5 428.46,-331.5 428.46,-350.75"/>
<text xml:space="preserve" text-anchor="middle" x="371.34" y="-337.25" font-family="Helvetica,sans-Serif" font-size="10.00">include/Pipal/Types.hh</text>
</a>
</g>
</g>
<!-- Node2 -->
<g id="Node000002" class="node">
<title>Node2</title>
<g id="a_Node000002"><a xlink:href="_acceptance_8hh.html" target="_top" xlink:title=" ">
<polygon fill="white" stroke="#666666" points="382.21,-129.75 242.46,-129.75 242.46,-110.5 382.21,-110.5 382.21,-129.75"/>
<text xml:space="preserve" text-anchor="middle" x="312.34" y="-116.25" font-family="Helvetica,sans-Serif" font-size="10.00">include/Pipal/Acceptance.hh</text>
</a>
</g>
</g>
<!-- Node1&#45;&gt;Node2 -->
<g id="edge1_Node000001_Node000002" class="edge">
<title>Node1&#45;&gt;Node2</title>
<g id="a_edge1_Node000001_Node000002"><a xlink:title=" ">
<path fill="none" stroke="#63b8ff" d="M363.71,-320.81C347.39,-279.43 310.5,-185.89 310.34,-185 306.66,-165.6 309.06,-142.3 310.87,-129.9"/>
<polygon fill="#63b8ff" stroke="#63b8ff" points="360.41,-321.98 367.34,-329.99 366.92,-319.41 360.41,-321.98"/>
</a>
</g>
</g>
<!-- Node3 -->
<g id="Node000003" class="node">
<title>Node3</title>
<g id="a_Node000003"><a xlink:href="_solver_8hh.html" target="_top" xlink:title=" ">
<polygon fill="white" stroke="#666666" points="467.84,-74.5 352.84,-74.5 352.84,-55.25 467.84,-55.25 467.84,-74.5"/>
<text xml:space="preserve" text-anchor="middle" x="410.34" y="-61" font-family="Helvetica,sans-Serif" font-size="10.00">include/Pipal/Solver.hh</text>
</a>
</g>
</g>
<!-- Node1&#45;&gt;Node3 -->
<g id="edge25_Node000001_Node000003" class="edge">
<title>Node1&#45;&gt;Node3</title>
<g id="a_edge25_Node000001_Node000003"><a xlink:title=" ">
<path fill="none" stroke="#63b8ff" d="M399.97,-325.66C430.45,-308 474.34,-275.03 474.34,-231.62 474.34,-231.62 474.34,-231.62 474.34,-174.38 474.34,-132.39 438.34,-92.35 420.34,-74.96"/>
<polygon fill="#63b8ff" stroke="#63b8ff" points="398.6,-322.42 391.55,-330.33 401.99,-328.54 398.6,-322.42"/>
</a>
</g>
</g>
<!-- Node5 -->
<g id="Node000005" class="node">
<title>Node5</title>
<g id="a_Node000005"><a xlink:href="_counter_8hh.html" target="_top" xlink:title=" ">
<polygon fill="white" stroke="#666666" points="286.21,-295.5 164.46,-295.5 164.46,-276.25 286.21,-276.25 286.21,-295.5"/>
<text xml:space="preserve" text-anchor="middle" x="225.34" y="-282" font-family="Helvetica,sans-Serif" font-size="10.00">include/Pipal/Counter.hh</text>
</a>
</g>
</g>
<!-- Node1&#45;&gt;Node5 -->
<g id="edge4_Node000001_Node000005" class="edge">
<title>Node1&#45;&gt;Node5</title>
<g id="a_edge4_Node000001_Node000005"><a xlink:title=" ">
<path fill="none" stroke="#63b8ff" d="M335.82,-327.17C309.32,-317.5 273.76,-304.54 250.22,-295.95"/>
<polygon fill="#63b8ff" stroke="#63b8ff" points="334.55,-330.43 345.15,-330.57 336.95,-323.86 334.55,-330.43"/>
</a>
</g>
</g>
<!-- Node6 -->
<g id="Node000006" class="node">
<title>Node6</title>
<g id="a_Node000006"><a xlink:href="_iterate_8hh.html" target="_top" xlink:title=" ">
<polygon fill="white" stroke="#666666" points="315.21,-240.25 199.46,-240.25 199.46,-221 315.21,-221 315.21,-240.25"/>
<text xml:space="preserve" text-anchor="middle" x="257.34" y="-226.75" font-family="Helvetica,sans-Serif" font-size="10.00">include/Pipal/Iterate.hh</text>
</a>
</g>
</g>
<!-- Node1&#45;&gt;Node6 -->
<g id="edge15_Node000001_Node000006" class="edge">
<title>Node1&#45;&gt;Node6</title>
<g id="a_edge15_Node000001_Node000006"><a xlink:title=" ">
<path fill="none" stroke="#63b8ff" d="M353.96,-323.59C329.55,-300.36 285.94,-258.85 266.79,-240.63"/>
<polygon fill="#63b8ff" stroke="#63b8ff" points="351.25,-325.84 360.91,-330.2 356.08,-320.77 351.25,-325.84"/>
</a>
</g>
</g>
<!-- Node7 -->
<g id="Node000007" class="node">
<title>Node7</title>
<g id="a_Node000007"><a xlink:href="_direction_8hh.html" target="_top" xlink:title=" ">
<polygon fill="white" stroke="#666666" points="445.84,-185 318.84,-185 318.84,-165.75 445.84,-165.75 445.84,-185"/>
<text xml:space="preserve" text-anchor="middle" x="382.34" y="-171.5" font-family="Helvetica,sans-Serif" font-size="10.00">include/Pipal/Direction.hh</text>
</a>
</g>
</g>
<!-- Node1&#45;&gt;Node7 -->
<g id="edge12_Node000001_Node000007" class="edge">
<title>Node1&#45;&gt;Node7</title>
<g id="a_edge12_Node000001_Node000007"><a xlink:title=" ">
<path fill="none" stroke="#63b8ff" d="M372.69,-319.97C375.1,-284.11 380.04,-210.6 381.74,-185.22"/>
<polygon fill="#63b8ff" stroke="#63b8ff" points="369.21,-319.6 372.03,-329.81 376.19,-320.07 369.21,-319.6"/>
</a>
</g>
</g>
<!-- Node8 -->
<g id="Node000008" class="node">
<title>Node8</title>
<g id="a_Node000008"><a xlink:href="_input_8hh.html" target="_top" xlink:title=" ">
<polygon fill="white" stroke="#666666" points="135.21,-240.25 25.46,-240.25 25.46,-221 135.21,-221 135.21,-240.25"/>
<text xml:space="preserve" text-anchor="middle" x="80.34" y="-226.75" font-family="Helvetica,sans-Serif" font-size="10.00">include/Pipal/Input.hh</text>
</a>
</g>
</g>
<!-- Node1&#45;&gt;Node8 -->
<g id="edge13_Node000001_Node000008" class="edge">
<title>Node1&#45;&gt;Node8</title>
<g id="a_edge13_Node000001_Node000008"><a xlink:title=" ">
<path fill="none" stroke="#63b8ff" d="M302.49,-336.58C201.93,-330.69 24.67,-317.33 5.34,-295.5 -14.11,-273.54 26.16,-252.34 54.86,-240.73"/>
<polygon fill="#63b8ff" stroke="#63b8ff" points="302.06,-340.06 312.25,-337.14 302.46,-333.08 302.06,-340.06"/>
</a>
</g>
</g>
<!-- Node9 -->
<g id="Node000009" class="node">
<title>Node9</title>
<g id="a_Node000009"><a xlink:href="_output_8hh.html" target="_top" xlink:title=" ">
<polygon fill="white" stroke="#666666" points="619.96,-185 502.71,-185 502.71,-165.75 619.96,-165.75 619.96,-185"/>
<text xml:space="preserve" text-anchor="middle" x="561.34" y="-171.5" font-family="Helvetica,sans-Serif" font-size="10.00">include/Pipal/Output.hh</text>
</a>
</g>
</g>
<!-- Node1&#45;&gt;Node9 -->
<g id="edge16_Node000001_Node000009" class="edge">
<title>Node1&#45;&gt;Node9</title>
<g id="a_edge16_Node000001_Node000009"><a xlink:title=" ">
<path fill="none" stroke="#63b8ff" d="M424.98,-327.77C446.37,-320.89 470.17,-310.57 488.34,-295.5 526.41,-263.9 550.16,-207.02 558.24,-185.21"/>
<polygon fill="#63b8ff" stroke="#63b8ff" points="424.07,-324.39 415.51,-330.62 426.09,-331.09 424.07,-324.39"/>
</a>
</g>
</g>
<!-- Node10 -->
<g id="Node000010" class="node">
<title>Node10</title>
<g id="a_Node000010"><a xlink:href="_parameter_8hh.html" target="_top" xlink:title=" ">
<polygon fill="white" stroke="#666666" points="146.46,-295.5 14.21,-295.5 14.21,-276.25 146.46,-276.25 146.46,-295.5"/>
<text xml:space="preserve" text-anchor="middle" x="80.34" y="-282" font-family="Helvetica,sans-Serif" font-size="10.00">include/Pipal/Parameter.hh</text>
</a>
</g>
</g>
<!-- Node1&#45;&gt;Node10 -->
<g id="edge18_Node000001_Node000010" class="edge">
<title>Node1&#45;&gt;Node10</title>
<g id="a_edge18_Node000001_Node000010"><a xlink:title=" ">
<path fill="none" stroke="#63b8ff" d="M310.58,-329.01C256.95,-319.19 179.76,-305.07 129.83,-295.93"/>
<polygon fill="#63b8ff" stroke="#63b8ff" points="309.69,-332.4 320.15,-330.76 310.95,-325.52 309.69,-332.4"/>
</a>
</g>
</g>
<!-- Node11 -->
<g id="Node000011" class="node">
<title>Node11</title>
<g id="a_Node000011"><a xlink:href="_problem_8hh.html" target="_top" xlink:title=" ">
<polygon fill="white" stroke="#666666" points="703.34,-129.75 579.34,-129.75 579.34,-110.5 703.34,-110.5 703.34,-129.75"/>
<text xml:space="preserve" text-anchor="middle" x="641.34" y="-116.25" font-family="Helvetica,sans-Serif" font-size="10.00">include/Pipal/Problem.hh</text>
</a>
</g>
</g>
<!-- Node1&#45;&gt;Node11 -->
<g id="edge21_Node000001_Node000011" class="edge">
<title>Node1&#45;&gt;Node11</title>
<g id="a_edge21_Node000001_Node000011"><a xlink:title=" ">
<path fill="none" stroke="#63b8ff" d="M420.91,-328.13C446.62,-321.07 477.79,-310.52 503.34,-295.5 564.99,-259.24 586.06,-247.78 620.34,-185 630.07,-167.17 632.05,-142.84 635.49,-129.96"/>
<polygon fill="#63b8ff" stroke="#63b8ff" points="420.13,-324.71 411.36,-330.64 421.92,-331.48 420.13,-324.71"/>
</a>
</g>
</g>
<!-- Node2&#45;&gt;Node3 -->
<g id="edge2_Node000002_Node000003" class="edge">
<title>Node2&#45;&gt;Node3</title>
<g id="a_edge2_Node000002_Node000003"><a xlink:title=" ">
<path fill="none" stroke="#63b8ff" d="M338.59,-104.86C356.08,-95.36 378.54,-83.15 393.63,-74.95"/>
<polygon fill="#63b8ff" stroke="#63b8ff" points="337.41,-101.52 330.29,-109.37 340.75,-107.67 337.41,-101.52"/>
</a>
</g>
</g>
<!-- Node4 -->
<g id="Node000004" class="node">
<title>Node4</title>
<g id="a_Node000004"><a xlink:href="_pipal_8hh.html" target="_top" xlink:title=" ">
<polygon fill="white" stroke="#666666" points="495.84,-19.25 410.84,-19.25 410.84,0 495.84,0 495.84,-19.25"/>
<text xml:space="preserve" text-anchor="middle" x="453.34" y="-5.75" font-family="Helvetica,sans-Serif" font-size="10.00">include/Pipal.hh</text>
</a>
</g>
</g>
<!-- Node3&#45;&gt;Node4 -->
<g id="edge3_Node000003_Node000004" class="edge">
<title>Node3&#45;&gt;Node4</title>
<g id="a_edge3_Node000003_Node000004"><a xlink:title=" ">
<path fill="none" stroke="#63b8ff" d="M424.59,-46.22C431.79,-37.31 440.22,-26.87 446.08,-19.61"/>
<polygon fill="#63b8ff" stroke="#63b8ff" points="421.95,-43.93 418.39,-53.9 427.39,-48.32 421.95,-43.93"/>
</a>
</g>
</g>
<!-- Node5&#45;&gt;Node3 -->
<g id="edge11_Node000005_Node000003" class="edge">
<title>Node5&#45;&gt;Node3</title>
<g id="a_edge11_Node000005_Node000003"><a xlink:title=" ">
<path fill="none" stroke="#63b8ff" d="M207.26,-267.47C200.59,-259.82 193.81,-250.31 190.34,-240.25 175.51,-197.32 174.38,-154.9 220.34,-110.5 239.04,-92.43 303.62,-79.99 352.34,-72.92"/>
<polygon fill="#63b8ff" stroke="#63b8ff" points="204.66,-269.81 214.08,-274.67 209.75,-265 204.66,-269.81"/>
</a>
</g>
</g>
<!-- Node5&#45;&gt;Node6 -->
<g id="edge5_Node000005_Node000006" class="edge">
<title>Node5&#45;&gt;Node6</title>
<g id="a_edge5_Node000005_Node000006"><a xlink:title=" ">
<path fill="none" stroke="#63b8ff" d="M236.46,-266.37C241.7,-257.64 247.71,-247.64 251.94,-240.61"/>
<polygon fill="#63b8ff" stroke="#63b8ff" points="233.55,-264.41 231.4,-274.78 239.55,-268.02 233.55,-264.41"/>
</a>
</g>
</g>
<!-- Node6&#45;&gt;Node2 -->
<g id="edge6_Node000006_Node000002" class="edge">
<title>Node6&#45;&gt;Node2</title>
<g id="a_edge6_Node000006_Node000002"><a xlink:title=" ">
<path fill="none" stroke="#63b8ff" d="M261.19,-209.54C264.19,-196.55 269.07,-179.56 276.34,-165.75 283.56,-152 295.35,-138.44 303.46,-129.94"/>
<polygon fill="#63b8ff" stroke="#63b8ff" points="257.83,-208.54 259.2,-219.04 264.68,-209.98 257.83,-208.54"/>
</a>
</g>
</g>
<!-- Node6&#45;&gt;Node3 -->
<g id="edge10_Node000006_Node000003" class="edge">
<title>Node6&#45;&gt;Node3</title>
<g id="a_edge10_Node000006_Node000003"><a xlink:title=" ">
<path fill="none" stroke="#63b8ff" d="M245.49,-211.28C230.79,-185.95 210.3,-140.06 233.34,-110.5 247.99,-91.69 306.59,-79.57 352.4,-72.78"/>
<polygon fill="#63b8ff" stroke="#63b8ff" points="242.3,-212.77 250.5,-219.47 248.27,-209.12 242.3,-212.77"/>
</a>
</g>
</g>
<!-- Node6&#45;&gt;Node7 -->
<g id="edge7_Node000006_Node000007" class="edge">
<title>Node6&#45;&gt;Node7</title>
<g id="a_edge7_Node000006_Node000007"><a xlink:title=" ">
<path fill="none" stroke="#63b8ff" d="M288.96,-216.15C311.52,-206.54 341.24,-193.88 361.03,-185.45"/>
<polygon fill="#63b8ff" stroke="#63b8ff" points="287.76,-212.86 279.93,-220 290.5,-219.3 287.76,-212.86"/>
</a>
</g>
</g>
<!-- Node7&#45;&gt;Node2 -->
<g id="edge8_Node000007_Node000002" class="edge">
<title>Node7&#45;&gt;Node2</title>
<g id="a_edge8_Node000007_Node000002"><a xlink:title=" ">
<path fill="none" stroke="#63b8ff" d="M361.39,-158.44C349.17,-149.14 334.2,-137.76 324.04,-130.02"/>
<polygon fill="#63b8ff" stroke="#63b8ff" points="359.18,-161.16 369.26,-164.43 363.42,-155.59 359.18,-161.16"/>
</a>
</g>
</g>
<!-- Node7&#45;&gt;Node3 -->
<g id="edge9_Node000007_Node000003" class="edge">
<title>Node7&#45;&gt;Node3</title>
<g id="a_edge9_Node000007_Node000003"><a xlink:title=" ">
<path fill="none" stroke="#63b8ff" d="M387.5,-154.35C393.62,-130.65 403.54,-92.22 408.01,-74.88"/>
<polygon fill="#63b8ff" stroke="#63b8ff" points="384.12,-153.47 385.01,-164.03 390.89,-155.22 384.12,-153.47"/>
</a>
</g>
</g>
<!-- Node8&#45;&gt;Node3 -->
<g id="edge14_Node000008_Node000003" class="edge">
<title>Node8&#45;&gt;Node3</title>
<g id="a_edge14_Node000008_Node000003"><a xlink:title=" ">
<path fill="none" stroke="#63b8ff" d="M87.15,-210.2C97.7,-183.17 120.69,-134.81 157.34,-110.5 188.6,-89.76 288.05,-77 352.56,-70.7"/>
<polygon fill="#63b8ff" stroke="#63b8ff" points="84,-208.64 83.8,-219.23 90.56,-211.07 84,-208.64"/>
</a>
</g>
</g>
<!-- Node9&#45;&gt;Node3 -->
<g id="edge17_Node000009_Node000003" class="edge">
<title>Node9&#45;&gt;Node3</title>
<g id="a_edge17_Node000009_Node000003"><a xlink:title=" ">
<path fill="none" stroke="#63b8ff" d="M544.46,-157.88C530.16,-144.33 508.78,-125.07 488.34,-110.5 468.77,-96.55 444.52,-83.24 428.3,-74.84"/>
<polygon fill="#63b8ff" stroke="#63b8ff" points="541.65,-160.03 551.29,-164.43 546.5,-154.98 541.65,-160.03"/>
</a>
</g>
</g>
<!-- Node10&#45;&gt;Node6 -->
<g id="edge20_Node000010_Node000006" class="edge">
<title>Node10&#45;&gt;Node6</title>
<g id="a_edge20_Node000010_Node000006"><a xlink:title=" ">
<path fill="none" stroke="#63b8ff" d="M121.25,-272.57C153.59,-262.84 198,-249.48 227.16,-240.7"/>
<polygon fill="#63b8ff" stroke="#63b8ff" points="120.38,-269.17 111.81,-275.41 122.4,-275.88 120.38,-269.17"/>
</a>
</g>
</g>
<!-- Node10&#45;&gt;Node8 -->
<g id="edge19_Node000010_Node000008" class="edge">
<title>Node10&#45;&gt;Node8</title>
<g id="a_edge19_Node000010_Node000008"><a xlink:title=" ">
<path fill="none" stroke="#63b8ff" d="M80.34,-264.63C80.34,-256.34 80.34,-247.17 80.34,-240.61"/>
<polygon fill="#63b8ff" stroke="#63b8ff" points="76.84,-264.57 80.34,-274.57 83.84,-264.57 76.84,-264.57"/>
</a>
</g>
</g>
<!-- Node11&#45;&gt;Node1 -->
<g id="edge24_Node000011_Node000001" class="edge">
<title>Node11&#45;&gt;Node1</title>
<g id="a_edge24_Node000011_Node000001"><a xlink:title=" ">
<path fill="none" stroke="#63b8ff" d="M648.39,-141.08C648.64,-154.24 645.71,-171.49 638.34,-185 604.06,-247.78 582.99,-259.24 521.34,-295.5 492.01,-312.75 455.27,-324.1 425.4,-331.03"/>
<polygon fill="#63b8ff" stroke="#63b8ff" points="651.91,-141.05 647.39,-131.46 644.95,-141.77 651.91,-141.05"/>
</a>
</g>
</g>
<!-- Node11&#45;&gt;Node3 -->
<g id="edge23_Node000011_Node000003" class="edge">
<title>Node11&#45;&gt;Node3</title>
<g id="a_edge23_Node000011_Node000003"><a xlink:title=" ">
<path fill="none" stroke="#63b8ff" d="M590.68,-107.45C548.24,-97.66 488.52,-83.9 449.62,-74.93"/>
<polygon fill="#63b8ff" stroke="#63b8ff" points="589.88,-110.86 600.41,-109.69 591.46,-104.03 589.88,-110.86"/>
</a>
</g>
</g>
<!-- Node11&#45;&gt;Node4 -->
<g id="edge22_Node000011_Node000004" class="edge">
<title>Node11&#45;&gt;Node4</title>
<g id="a_edge22_Node000011_Node000004"><a xlink:title=" ">
<path fill="none" stroke="#63b8ff" d="M615.71,-104.34C576.21,-81.54 501.62,-38.49 469.13,-19.74"/>
<polygon fill="#63b8ff" stroke="#63b8ff" points="613.91,-107.34 624.32,-109.3 617.41,-101.27 613.91,-107.34"/>
</a>
</g>
</g>
</g>
</svg>
